<svg width="24" height="25" viewBox="0 0 24 25" fill="none" xmlns="http://www.w3.org/2000/svg">
<path d="M11.999 7.61389C10.7726 7.61389 9.59651 8.10106 8.72934 8.96823C7.86217 9.8354 7.375 11.0115 7.375 12.2379C7.375 13.4643 7.86217 14.6404 8.72934 15.5076C9.59651 16.3747 10.7726 16.8619 11.999 16.8619C13.2254 16.8619 14.4015 16.3747 15.2687 15.5076C16.1358 14.6404 16.623 13.4643 16.623 12.2379C16.623 11.0115 16.1358 9.8354 15.2687 8.96823C14.4015 8.10106 13.2254 7.61389 11.999 7.61389V7.61389ZM11.999 15.2409C11.2023 15.2409 10.4382 14.9244 9.87485 14.361C9.31149 13.7977 8.995 13.0336 8.995 12.2369C8.995 11.4402 9.31149 10.6761 9.87485 10.1127C10.4382 9.54938 11.2023 9.23289 11.999 9.23289C12.7957 9.23289 13.5598 9.54938 14.1231 10.1127C14.6865 10.6761 15.003 11.4402 15.003 12.2369C15.003 13.0336 14.6865 13.7977 14.1231 14.361C13.5598 14.9244 12.7957 15.2409 11.999 15.2409V15.2409Z" fill="#F9F9FA"/>
<path d="M16.8055 8.52197C17.4009 8.52197 17.8835 8.03933 17.8835 7.44397C17.8835 6.8486 17.4009 6.36597 16.8055 6.36597C16.2102 6.36597 15.7275 6.8486 15.7275 7.44397C15.7275 8.03933 16.2102 8.52197 16.8055 8.52197Z" fill="#F9F9FA"/>
<path d="M20.533 6.34794C20.3015 5.75012 19.9477 5.20723 19.4943 4.754C19.0409 4.30078 18.4979 3.94721 17.9 3.71594C17.2003 3.4533 16.4611 3.31128 15.714 3.29594C14.751 3.25394 14.446 3.24194 12.004 3.24194C9.56195 3.24194 9.24895 3.24194 8.29395 3.29594C7.54734 3.3105 6.80871 3.45254 6.10995 3.71594C5.51189 3.94694 4.96872 4.30041 4.51529 4.75367C4.06186 5.20693 3.70818 5.74997 3.47695 6.34794C3.21426 7.04756 3.07257 7.78678 3.05795 8.53394C3.01495 9.49594 3.00195 9.80094 3.00195 12.2439C3.00195 14.6859 3.00195 14.9969 3.05795 15.9539C3.07295 16.7019 3.21395 17.4399 3.47695 18.1409C3.70883 18.7387 4.06285 19.2815 4.51639 19.7347C4.96993 20.1879 5.51302 20.5415 6.11095 20.7729C6.80839 21.0461 7.54732 21.1983 8.29595 21.2229C9.25895 21.2649 9.56395 21.2779 12.006 21.2779C14.448 21.2779 14.761 21.2779 15.716 21.2229C16.4631 21.2077 17.2022 21.0661 17.902 20.8039C18.4997 20.5721 19.0426 20.2183 19.4959 19.7649C19.9493 19.3116 20.3031 18.7687 20.535 18.1709C20.798 17.4709 20.939 16.7329 20.954 15.9849C20.997 15.0229 21.01 14.7179 21.01 12.2749C21.01 9.83194 21.01 9.52194 20.954 8.56494C20.9423 7.80722 20.7999 7.05719 20.533 6.34794V6.34794ZM19.315 15.8799C19.3085 16.4562 19.2033 17.0272 19.004 17.5679C18.8538 17.9568 18.6239 18.3099 18.329 18.6046C18.0342 18.8993 17.6809 19.129 17.292 19.2789C16.7572 19.4774 16.1923 19.5826 15.622 19.5899C14.672 19.6339 14.404 19.6449 11.968 19.6449C9.52995 19.6449 9.28095 19.6449 8.31295 19.5899C7.74288 19.583 7.17828 19.4778 6.64395 19.2789C6.25364 19.1299 5.89895 18.9006 5.60284 18.6059C5.30673 18.3112 5.07579 17.9576 4.92495 17.5679C4.7284 17.033 4.62326 16.4688 4.61395 15.8989C4.57095 14.9489 4.56095 14.6809 4.56095 12.2449C4.56095 9.80794 4.56095 9.55894 4.61395 8.58994C4.62042 8.01397 4.72561 7.44336 4.92495 6.90294C5.22995 6.11394 5.85495 5.49294 6.64395 5.19094C7.17854 4.99308 7.74298 4.88791 8.31295 4.87994C9.26395 4.83694 9.53095 4.82494 11.968 4.82494C14.405 4.82494 14.655 4.82494 15.622 4.87994C16.1924 4.88681 16.7573 4.99201 17.292 5.19094C17.6809 5.34122 18.0341 5.57115 18.3289 5.86597C18.6238 6.1608 18.8537 6.51401 19.004 6.90294C19.2005 7.43789 19.3056 8.0021 19.315 8.57194C19.358 9.52294 19.369 9.78994 19.369 12.2269C19.369 14.6629 19.369 14.9249 19.326 15.8809H19.315V15.8799Z" fill="#F9F9FA"/>
</svg>
