<svg width="21" height="22" viewBox="0 0 21 22" fill="none" xmlns="http://www.w3.org/2000/svg">
<path d="M20.6022 9.01579H19.7864V8.97376H10.672V13.0246H16.3954C15.5604 15.3827 13.3167 17.0755 10.672 17.0755C7.31642 17.0755 4.59577 14.3548 4.59577 10.9992C4.59577 7.64357 7.31642 4.92292 10.672 4.92292C12.221 4.92292 13.6302 5.50725 14.7031 6.46173L17.5676 3.59728C15.7589 1.91162 13.3395 0.87207 10.672 0.87207C5.07934 0.87207 0.544922 5.40649 0.544922 10.9992C0.544922 16.5919 5.07934 21.1263 10.672 21.1263C16.2647 21.1263 20.7992 16.5919 20.7992 10.9992C20.7992 10.3202 20.7293 9.65734 20.6022 9.01579Z" fill="#FFC107"/>
<path d="M1.71289 6.28552L5.04015 8.72565C5.94046 6.49667 8.12082 4.92292 10.6724 4.92292C12.2213 4.92292 13.6305 5.50725 14.7035 6.46173L17.5679 3.59728C15.7592 1.91162 13.3398 0.87207 10.6724 0.87207C6.78253 0.87207 3.40918 3.06814 1.71289 6.28552Z" fill="#FF3D00"/>
<path d="M10.6719 21.1261C13.2877 21.1261 15.6646 20.125 17.4616 18.4971L14.3273 15.8448C13.2764 16.644 11.9922 17.0763 10.6719 17.0753C8.03785 17.0753 5.80128 15.3957 4.9587 13.0518L1.65625 15.5962C3.33229 18.8759 6.73601 21.1261 10.6719 21.1261Z" fill="#4CAF50"/>
<path d="M20.5939 8.97363H19.862H19.7865H10.6721V13.0245H16.3955C15.9961 14.1468 15.2766 15.1275 14.326 15.8454L14.3275 15.8444L17.4618 18.4967C17.2401 18.6982 20.7992 16.0626 20.7992 10.9991C20.7992 10.32 20.721 9.61519 20.5939 8.97363Z" fill="#1976D2"/>
</svg>
