<svg width="24" height="25" viewBox="0 0 24 25" fill="none" xmlns="http://www.w3.org/2000/svg">
<path d="M12.0002 4.59778C14.0757 4.59778 14.3347 4.60542 15.149 4.64361C15.9625 4.68181 16.5163 4.80938 17.0037 4.99882C17.5079 5.19285 17.9326 5.45563 18.3573 5.87958C18.7457 6.26145 19.0463 6.72337 19.2381 7.23319C19.4267 7.71979 19.5551 8.27438 19.5933 9.08792C19.6292 9.90222 19.6391 10.1612 19.6391 12.2367C19.6391 14.3122 19.6315 14.5711 19.5933 15.3854C19.5551 16.199 19.4267 16.7528 19.2381 17.2401C19.0468 17.7502 18.7462 18.2123 18.3573 18.5937C17.9753 18.982 17.5134 19.2826 17.0037 19.4745C16.5171 19.6632 15.9625 19.7915 15.149 19.8297C14.3347 19.8656 14.0757 19.8756 12.0002 19.8756C9.92473 19.8756 9.66577 19.8679 8.85147 19.8297C8.03793 19.7915 7.48411 19.6632 6.99674 19.4745C6.48672 19.2831 6.02472 18.9825 5.64313 18.5937C5.25462 18.2119 4.95405 17.75 4.76237 17.2401C4.57293 16.7535 4.44536 16.199 4.40716 15.3854C4.37126 14.5711 4.36133 14.3122 4.36133 12.2367C4.36133 10.1612 4.36897 9.90222 4.40716 9.08792C4.44536 8.27361 4.57293 7.72056 4.76237 7.23319C4.95352 6.72305 5.25416 6.26101 5.64313 5.87958C6.02483 5.49094 6.48679 5.19035 6.99674 4.99882C7.48411 4.80938 8.03716 4.68181 8.85147 4.64361C9.66577 4.60771 9.92473 4.59778 12.0002 4.59778ZM12.0002 8.41722C10.9872 8.41722 10.0157 8.81963 9.29946 9.53591C8.58318 10.2522 8.18077 11.2237 8.18077 12.2367C8.18077 13.2496 8.58318 14.2211 9.29946 14.9374C10.0157 15.6537 10.9872 16.0561 12.0002 16.0561C13.0132 16.0561 13.9847 15.6537 14.701 14.9374C15.4173 14.2211 15.8197 13.2496 15.8197 12.2367C15.8197 11.2237 15.4173 10.2522 14.701 9.53591C13.9847 8.81963 13.0132 8.41722 12.0002 8.41722V8.41722ZM16.9655 8.22625C16.9655 7.97301 16.8649 7.73013 16.6858 7.55106C16.5068 7.37199 16.2639 7.27139 16.0106 7.27139C15.7574 7.27139 15.5145 7.37199 15.3354 7.55106C15.1564 7.73013 15.0558 7.97301 15.0558 8.22625C15.0558 8.4795 15.1564 8.72237 15.3354 8.90144C15.5145 9.08051 15.7574 9.18111 16.0106 9.18111C16.2639 9.18111 16.5068 9.08051 16.6858 8.90144C16.8649 8.72237 16.9655 8.4795 16.9655 8.22625ZM12.0002 9.945C12.608 9.945 13.1909 10.1864 13.6207 10.6162C14.0504 11.046 14.2919 11.6289 14.2919 12.2367C14.2919 12.8445 14.0504 13.4273 13.6207 13.8571C13.1909 14.2869 12.608 14.5283 12.0002 14.5283C11.3924 14.5283 10.8095 14.2869 10.3798 13.8571C9.94999 13.4273 9.70855 12.8445 9.70855 12.2367C9.70855 11.6289 9.94999 11.046 10.3798 10.6162C10.8095 10.1864 11.3924 9.945 12.0002 9.945V9.945Z" fill="white"/>
</svg>
