<svg width="20" height="21" viewBox="0 0 20 21" fill="none" xmlns="http://www.w3.org/2000/svg">
<g clip-path="url(#clip0_491_9719)">
<path d="M18.5195 0.441406H1.47656C0.660156 0.441406 0 1.08594 0 1.88281V18.9961C0 19.793 0.660156 20.4414 1.47656 20.4414H18.5195C19.3359 20.4414 20 19.793 20 19V1.88281C20 1.08594 19.3359 0.441406 18.5195 0.441406ZM5.93359 17.4844H2.96484V7.9375H5.93359V17.4844ZM4.44922 6.63672C3.49609 6.63672 2.72656 5.86719 2.72656 4.91797C2.72656 3.96875 3.49609 3.19922 4.44922 3.19922C5.39844 3.19922 6.16797 3.96875 6.16797 4.91797C6.16797 5.86328 5.39844 6.63672 4.44922 6.63672ZM17.043 17.4844H14.0781V12.8438C14.0781 11.7383 14.0586 10.3125 12.5352 10.3125C10.9922 10.3125 10.7578 11.5195 10.7578 12.7656V17.4844H7.79688V7.9375H10.6406V9.24219H10.6797C11.0742 8.49219 12.043 7.69922 13.4844 7.69922C16.4883 7.69922 17.043 9.67578 17.043 12.2461V17.4844Z" fill="#98A2B3"/>
</g>
<defs>
<clipPath id="clip0_491_9719">
<rect width="20" height="20" fill="white" transform="translate(0 0.441406)"/>
</clipPath>
</defs>
</svg>
