<svg width="20" height="21" viewBox="0 0 20 21" fill="none" xmlns="http://www.w3.org/2000/svg">
<path d="M6.2918 18.5665C13.8371 18.5665 17.9652 12.3138 17.9652 6.89308C17.9652 6.7173 17.9613 6.53761 17.9535 6.36183C18.7566 5.78108 19.4496 5.06174 20 4.23761C19.2521 4.57036 18.458 4.78768 17.6449 4.88214C18.5011 4.36895 19.1421 3.56275 19.4492 2.613C18.6438 3.09033 17.763 3.42704 16.8445 3.6087C16.2257 2.95116 15.4075 2.51579 14.5164 2.3699C13.6253 2.22402 12.711 2.37574 11.9148 2.80161C11.1186 3.22748 10.4848 3.90378 10.1115 4.72595C9.73825 5.54813 9.64619 6.47037 9.84961 7.35011C8.21874 7.26827 6.62328 6.84461 5.16665 6.10661C3.71002 5.36861 2.42474 4.33273 1.39414 3.06613C0.870333 3.96923 0.710047 5.0379 0.945859 6.05494C1.18167 7.07198 1.79589 7.96107 2.66367 8.54152C2.01219 8.52083 1.37498 8.34543 0.804688 8.0298V8.08058C0.804104 9.02832 1.13175 9.94702 1.73192 10.6805C2.3321 11.414 3.16777 11.917 4.09687 12.104C3.49338 12.2691 2.85999 12.2932 2.2457 12.1743C2.50788 12.9894 3.01798 13.7023 3.70481 14.2135C4.39164 14.7247 5.22093 15.0087 6.07695 15.0259C4.62369 16.1675 2.82848 16.7866 0.980469 16.7837C0.652739 16.7832 0.325333 16.7631 0 16.7235C1.87738 17.928 4.06128 18.5677 6.2918 18.5665Z" fill="#98A2B3"/>
</svg>
