<svg width="20" height="21" viewBox="0 0 20 21" fill="none" xmlns="http://www.w3.org/2000/svg">
<path fill-rule="evenodd" clip-rule="evenodd" d="M10 0.441406C4.47939 0.441406 0 4.9208 0 10.4414C0 15.962 4.47939 20.4414 10 20.4414C15.5098 20.4414 20 15.962 20 10.4414C20 4.9208 15.5098 0.441406 10 0.441406ZM16.6052 5.05095C17.7983 6.50431 18.5141 8.35897 18.5358 10.3655C18.2538 10.3113 15.4338 9.73641 12.5922 10.0943C12.5271 9.95334 12.4729 9.80147 12.4078 9.64966C12.2343 9.23753 12.0391 8.81453 11.8438 8.41322C14.9891 7.13341 16.4208 5.28956 16.6052 5.05095ZM10 1.91646C12.1692 1.91646 14.154 2.72991 15.6616 4.06397C15.5097 4.28089 14.2191 6.0054 11.1822 7.14422C9.78306 4.57372 8.23213 2.46961 7.9935 2.14423C8.63338 1.99238 9.30587 1.91646 10 1.91646ZM6.36662 2.71906C6.59437 3.02275 8.11281 5.13772 9.53363 7.65397C5.5423 8.71691 2.01736 8.69522 1.63774 8.69522C2.19089 6.04878 3.98047 3.84704 6.36662 2.71906ZM1.45336 10.4523C1.45336 10.3655 1.45336 10.2787 1.45336 10.192C1.82213 10.2028 5.96529 10.257 10.2278 8.97722C10.4773 9.45441 10.705 9.94247 10.9219 10.4305C10.8134 10.4631 10.6941 10.4957 10.5857 10.5282C6.18221 11.949 3.83948 15.8318 3.64425 16.1572C2.2885 14.6497 1.45336 12.6432 1.45336 10.4523ZM10 18.988C8.026 18.988 6.20391 18.3156 4.76139 17.1876C4.91323 16.8731 6.64856 13.5325 11.4642 11.8514C11.4859 11.8405 11.4968 11.8405 11.5184 11.8297C12.7223 14.9425 13.2104 17.5563 13.3406 18.3047C12.3102 18.7494 11.1822 18.988 10 18.988ZM14.7614 17.5238C14.6746 17.0032 14.2191 14.5087 13.1019 11.4392C15.7809 11.0162 18.1236 11.7104 18.4165 11.808C18.0478 14.1833 16.6811 16.2332 14.7614 17.5238Z" fill="#98A2B3"/>
</svg>
