<svg width="24" height="25" viewBox="0 0 24 25" fill="none" xmlns="http://www.w3.org/2000/svg">
<path d="M19.633 8.23398C19.646 8.40898 19.646 8.58298 19.646 8.75698C19.646 14.082 15.593 20.218 8.186 20.218C5.904 20.218 3.784 19.557 2 18.409C2.324 18.446 2.636 18.459 2.973 18.459C4.78599 18.4634 6.54765 17.8571 7.974 16.738C7.13342 16.7228 6.31858 16.4454 5.64324 15.9447C4.9679 15.444 4.46578 14.7449 4.207 13.945C4.456 13.982 4.706 14.007 4.968 14.007C5.329 14.007 5.692 13.957 6.029 13.87C5.11676 13.6858 4.29647 13.1913 3.70762 12.4707C3.11876 11.75 2.79769 10.8476 2.799 9.91698V9.86698C3.336 10.166 3.959 10.353 4.619 10.378C4.06609 10.0106 3.61272 9.51201 3.29934 8.92677C2.98596 8.34154 2.82231 7.68784 2.823 7.02398C2.823 6.27598 3.022 5.58998 3.371 4.99198C4.38314 6.237 5.6455 7.25554 7.07634 7.98164C8.50717 8.70774 10.0746 9.1252 11.677 9.20698C11.615 8.90698 11.577 8.59598 11.577 8.28398C11.5767 7.75494 11.6807 7.23104 11.8831 6.74222C12.0854 6.2534 12.3821 5.80926 12.7562 5.43517C13.1303 5.06108 13.5744 4.76439 14.0632 4.56206C14.5521 4.35973 15.076 4.25572 15.605 4.25598C16.765 4.25598 17.812 4.74198 18.548 5.52798C19.4498 5.3536 20.3145 5.0244 21.104 4.55498C20.8034 5.4858 20.1738 6.27509 19.333 6.77498C20.1328 6.68376 20.9144 6.47343 21.652 6.15098C21.1011 6.95408 20.4185 7.65833 19.633 8.23398V8.23398Z" fill="#F9F9FA"/>
</svg>
