<svg width="24" height="16" viewBox="0 0 24 16" fill="none" xmlns="http://www.w3.org/2000/svg">
<path d="M22.5 4.57696H21.1806L20.3425 3.06866C20.0807 2.59517 19.6764 2.21616 19.187 1.98542L15.7344 0.349909C15.051 0.0246907 14.2827 -0.0779088 13.5379 0.0565654L4.44042 1.68416C4.35434 1.36776 4.1668 1.08835 3.9066 0.88882C3.64639 0.689287 3.3279 0.580655 3 0.579597H1.5C1.10231 0.580031 0.72103 0.738206 0.439819 1.01942C0.158609 1.30063 0.000434263 1.68191 0 2.0796L0 8.5971C0.000434263 8.99479 0.158609 9.37607 0.439819 9.65728C0.72103 9.93849 1.10231 10.0967 1.5 10.0971H3C3.36302 10.096 3.71328 9.96306 3.98559 9.723C4.2579 9.48294 4.43371 9.15211 4.48031 8.7921L6.77634 9.85208C7.16544 10.0294 7.57713 10.1523 7.99978 10.2172V14.5C8.00022 14.8977 8.15839 15.279 8.4396 15.5602C8.72081 15.8414 9.10209 15.9996 9.49978 16H22.5C22.8977 15.9996 23.279 15.8414 23.5602 15.5602C23.8414 15.279 23.9996 14.8977 24 14.5V6.07696C23.9996 5.67927 23.8414 5.29799 23.5602 5.01678C23.279 4.73557 22.8977 4.57739 22.5 4.57696ZM9 12.4999H23V13.2499H9V12.4999ZM22.5 5.57694C22.6326 5.57709 22.7597 5.62982 22.8534 5.72356C22.9471 5.8173 22.9999 5.94439 23 6.07696V11.4999H9V10.2814H15.5649C15.9745 10.2817 16.3693 10.1286 16.6717 9.85241C16.9741 9.5762 17.1622 9.19682 17.199 8.78891C17.2358 8.381 17.1185 7.9741 16.8704 7.64827C16.6222 7.32244 16.2611 7.10128 15.8581 7.02828L11.9172 6.31194C11.7072 6.27328 11.5071 6.19296 11.3286 6.0757C11.1501 5.95844 10.997 5.80662 10.8781 5.62921L10.8432 5.57694H22.5ZM3.50002 8.5971C3.49983 8.72965 3.44709 8.85672 3.35336 8.95044C3.25962 9.04416 3.13255 9.09689 3 9.09707H1.5C1.36745 9.09689 1.24038 9.04416 1.14664 8.95044C1.05291 8.85672 1.00017 8.72965 0.999984 8.5971V2.0796C1.00011 1.94701 1.05283 1.8199 1.14657 1.72614C1.24031 1.63238 1.36742 1.57964 1.5 1.57949H3C3.13258 1.57964 3.25969 1.63238 3.35343 1.72614C3.44717 1.8199 3.49989 1.94701 3.50002 2.0796V8.5971ZM4.5 7.69991V2.68939L13.7139 1.04094C14.2538 0.943675 14.8107 1.01808 15.3062 1.25371L18.7588 2.88922C19.0593 3.03092 19.3076 3.2636 19.4685 3.55428L20.0367 4.577H9.90937C9.81887 4.57698 9.73005 4.60153 9.65241 4.64803C9.57476 4.69453 9.51119 4.76123 9.46848 4.84103C9.42578 4.92083 9.40554 5.01072 9.40992 5.10112C9.4143 5.19152 9.44314 5.27904 9.49336 5.35433L10.0465 6.18402C10.24 6.47296 10.4894 6.72022 10.7801 6.91119C11.0707 7.10217 11.3967 7.23299 11.7387 7.29594L15.6796 8.01247C15.8367 8.04109 15.9774 8.12743 16.0741 8.25452C16.1708 8.38162 16.2164 8.54027 16.202 8.69931C16.1877 8.85834 16.1144 9.00626 15.9965 9.11399C15.8787 9.22173 15.7248 9.28148 15.5651 9.28152H8.73487C8.20317 9.28232 7.6777 9.16714 7.19508 8.94402L4.5 7.69991ZM23 14.4999C22.9998 14.6325 22.9471 14.7595 22.8534 14.8533C22.7596 14.947 22.6326 14.9997 22.5 14.9999H9.50002C9.36747 14.9997 9.24039 14.947 9.14666 14.8533C9.05293 14.7595 9.00019 14.6325 9 14.4999V14.2499H23V14.4999Z" fill="#0066FF"/>
</svg>
