<svg width="24" height="20" viewBox="0 0 24 20" fill="none" xmlns="http://www.w3.org/2000/svg">
<path d="M22.8488 3.21662L5.65916 0.150427C4.90587 0.0149427 4.17406 0.541975 4.04342 1.2912L2.93632 7.6423H1.35484C0.607742 7.6423 0 8.25023 0 8.99714V18.5158C0 19.2627 0.607742 19.8707 1.35484 19.8707H18.8878C19.6349 19.8707 20.2426 19.2627 20.2426 18.5158V15.1688C20.7449 15.2584 21.2297 15.3641 21.6941 15.0864C22.0424 14.8779 22.2923 14.5185 22.3622 14.118L23.9787 4.84397C24.1117 4.0812 23.6048 3.35114 22.8488 3.21662ZM4.80619 1.42417C4.86426 1.09146 5.1871 0.852427 5.52329 0.912427L22.7129 3.97862C23.0503 4.03881 23.2759 4.36727 23.2161 4.71081L22.9494 6.24178L4.53871 2.95804L4.80619 1.42417ZM19.4685 18.5158C19.4685 18.836 19.2079 19.0965 18.8878 19.0965H1.35484C1.03471 19.0965 0.774194 18.836 0.774194 18.5158V8.99714C0.774194 8.67701 1.03471 8.41649 1.35484 8.41649H18.8878C19.2079 8.41649 19.4685 8.67701 19.4685 8.99714V18.5158ZM21.5996 13.9851C21.4792 14.6735 20.7147 14.4666 20.2426 14.3824V8.99714C20.2426 8.25023 19.6349 7.6423 18.8878 7.6423H3.72232L4.40574 3.72062L5.52716 3.92056L22.8163 7.00436L21.5996 13.9851Z" fill="#0066FF"/>
<path d="M9.11974 17.5489H6.89393C6.68026 17.5489 6.50684 17.3754 6.50684 17.1618C6.50684 16.9481 6.68026 16.7747 6.89393 16.7747H9.11974C9.33342 16.7747 9.50684 16.9481 9.50684 17.1618C9.50684 17.3754 9.33361 17.5489 9.11974 17.5489Z" fill="#0066FF"/>
<path d="M4.89122 17.5489H2.66542C2.45174 17.5489 2.27832 17.3754 2.27832 17.1618C2.27832 16.9481 2.45174 16.7747 2.66542 16.7747H4.89122C5.1049 16.7747 5.27832 16.9481 5.27832 17.1618C5.27832 17.3754 5.1049 17.5489 4.89122 17.5489Z" fill="#0066FF"/>
<path d="M13.3483 17.5489H11.1224C10.9088 17.5489 10.7354 17.3754 10.7354 17.1618C10.7354 16.9481 10.9088 16.7747 11.1224 16.7747H13.3483C13.5619 16.7747 13.7354 16.9481 13.7354 17.1618C13.7354 17.3754 13.5621 17.5489 13.3483 17.5489Z" fill="#0066FF"/>
<path d="M17.5777 17.5489H15.3519C15.1383 17.5489 14.9648 17.3754 14.9648 17.1618C14.9648 16.9481 15.1383 16.7747 15.3519 16.7747H17.5777C17.7914 16.7747 17.9648 16.9481 17.9648 17.1618C17.9648 17.3754 17.7914 17.5489 17.5777 17.5489Z" fill="#0066FF"/>
<path d="M5.8916 15.5406H3.08786C2.55425 15.5406 2.12012 15.1065 2.12012 14.5729V13.4612C2.12012 12.9275 2.55425 12.4934 3.08786 12.4934H5.8916C6.42521 12.4934 6.85934 12.9275 6.85934 13.4612V14.5729C6.85934 15.1063 6.42502 15.5406 5.8916 15.5406ZM3.08786 13.2674C2.98121 13.2674 2.89431 13.3541 2.89431 13.461V14.5727C2.89431 14.6795 2.98121 14.7662 3.08786 14.7662H5.8916C5.99825 14.7662 6.08515 14.6795 6.08515 14.5727V13.461C6.08515 13.3541 5.99825 13.2674 5.8916 13.2674H3.08786Z" fill="#0066FF"/>
</svg>
