<svg width="24" height="22" viewBox="0 0 24 22" fill="none" xmlns="http://www.w3.org/2000/svg">
<path d="M23.25 13.9998C22.836 13.9998 22.5 14.3358 22.5 14.7498V19.9998H1.5V10.9998H9.75C10.164 10.9998 10.5 10.6638 10.5 10.2498C10.5 9.83576 10.164 9.49976 9.75 9.49976H1.5V6.49976H9.75C10.164 6.49976 10.5 6.16376 10.5 5.74976C10.5 5.33576 10.164 4.99976 9.75 4.99976H1.5C0.672 4.99976 0 5.67176 0 6.49976V19.9998C0 20.8278 0.672 21.4998 1.5 21.4998H22.5C23.328 21.4998 24 20.8278 24 19.9998V14.7498C24 14.3358 23.664 13.9998 23.25 13.9998Z" fill="#0066FF"/>
<path d="M6.75 13.9998H3.75C3.336 13.9998 3 14.3358 3 14.7498C3 15.1638 3.336 15.4998 3.75 15.4998H6.75C7.164 15.4998 7.5 15.1638 7.5 14.7498C7.5 14.3358 7.164 13.9998 6.75 13.9998Z" fill="#0066FF"/>
<path d="M23.5455 2.80987L18.2955 0.559869C18.105 0.480369 17.8935 0.480369 17.703 0.559869L12.453 2.80987C12.1785 2.92837 12 3.19987 12 3.49987V6.49987C12 10.6264 13.5255 13.0384 17.6265 15.4009C17.742 15.4669 17.871 15.4999 18 15.4999C18.129 15.4999 18.258 15.4669 18.3735 15.4009C22.4745 13.0444 24 10.6324 24 6.49987V3.49987C24 3.19987 23.8215 2.92837 23.5455 2.80987ZM22.5 6.49987C22.5 9.96337 21.354 11.8699 18 13.8799C14.646 11.8654 13.5 9.95887 13.5 6.49987V3.99487L18 2.06587L22.5 3.99487V6.49987Z" fill="#0066FF"/>
<path d="M20.72 5.16328C20.3975 4.90828 19.9265 4.95778 19.6655 5.28028L17.3075 8.22928L16.3745 6.83428C16.142 6.48928 15.6755 6.39778 15.335 6.62578C14.9915 6.85528 14.897 7.32178 15.1265 7.66528L16.6265 9.91528C16.76 10.1148 16.979 10.2378 17.219 10.2498C17.2295 10.2498 17.2415 10.2498 17.2505 10.2498C17.477 10.2498 17.693 10.1478 17.837 9.96778L20.837 6.21778C21.095 5.89378 21.044 5.42278 20.72 5.16328Z" fill="#0066FF"/>
</svg>
