<svg width="507" height="384" viewBox="0 0 507 384" fill="none" xmlns="http://www.w3.org/2000/svg">
<path d="M183.771 11.8805C181.184 11.8805 178.597 12.5363 176.495 13.8478C175.687 6.14283 169.219 0.241211 161.458 0.241211C153.05 0.241211 146.42 7.12644 146.42 15.4871C146.42 15.9789 146.42 16.6346 146.582 17.1264C145.935 16.9625 145.127 16.9625 144.48 16.9625C138.174 16.9625 133 22.2084 133 28.6019C133 34.9953 138.174 40.2412 144.48 40.2412H183.933C191.694 40.2412 198 33.8477 198 25.9789C198 18.274 191.694 11.8805 183.771 11.8805Z" fill="#F1F1F1"/>
<path d="M316.901 364.541H181.601C169.801 364.541 160.301 354.941 160.301 343.241V41.9411C160.301 30.1411 169.901 20.6411 181.601 20.6411H316.901C328.701 20.6411 338.201 30.2411 338.201 41.9411V343.141C338.301 354.941 328.701 364.541 316.901 364.541Z" fill="#3945BA"/>
<path d="M316.201 359.641H182.301C172.001 359.641 163.601 351.241 163.601 340.941V42.3411C163.601 32.0411 172.001 23.6411 182.301 23.6411H316.201C326.501 23.6411 334.901 32.0411 334.901 42.3411V340.941C334.901 351.241 326.501 359.641 316.201 359.641Z" fill="white"/>
<path d="M327.401 41.741V339.941C327.401 346.941 321.701 352.641 314.701 352.641H183.701C176.701 352.641 171.001 346.941 171.001 339.941V41.741C171.001 34.741 176.701 29.041 183.701 29.041H205.501C206.701 29.041 207.801 29.741 208.401 30.841L210.701 35.441C211.801 37.541 213.901 38.941 216.301 38.941H282.001C284.401 38.941 286.601 37.641 287.601 35.441L289.901 30.841C290.401 29.741 291.601 29.041 292.801 29.041H314.601C321.701 29.141 327.401 34.741 327.401 41.741Z" fill="#DEE3FC"/>
<path d="M276.801 33.5411H223.901C222.701 33.5411 221.701 32.5411 221.701 31.3411C221.701 30.1411 222.701 29.1411 223.901 29.1411H276.801C278.001 29.1411 279.001 30.1411 279.001 31.3411C279.101 32.5411 278.101 33.5411 276.801 33.5411Z" fill="#DEE3FC"/>
<path d="M306.6 342.241H188.8C184.2 342.241 180.4 338.441 180.4 333.841V292.241C180.4 287.641 184.2 283.841 188.8 283.841H306.6C311.2 283.841 315 287.641 315 292.241V333.841C315 338.541 311.2 342.241 306.6 342.241Z" stroke="#698BD1" stroke-miterlimit="10" stroke-linecap="round" stroke-linejoin="round" stroke-dasharray="2.84 2.84"/>
<path d="M300.701 199.141H242.301C239.001 199.141 236.301 196.441 236.301 193.141V164.241C236.301 160.941 239.001 158.241 242.301 158.241H300.701C304.001 158.241 306.701 160.941 306.701 164.241V193.141C306.701 196.441 304.001 199.141 300.701 199.141Z" stroke="#698BD1" stroke-miterlimit="10" stroke-linecap="round" stroke-linejoin="round" stroke-dasharray="2.84 2.84"/>
<path d="M313.201 274.241H192.501C188.501 274.241 185.301 271.041 185.301 267.041V216.141C185.301 212.141 188.501 208.941 192.501 208.941H313.201C317.201 208.941 320.401 212.141 320.401 216.141V267.041C320.401 271.041 317.201 274.241 313.201 274.241Z" fill="#4B5A9B"/>
<path d="M315 210.841V261.741C315 265.741 311.8 268.941 307.8 268.941H187.6C183.6 268.941 180.4 265.741 180.4 261.741V210.841C180.4 206.841 183.6 203.641 187.6 203.641H307.8C311.8 203.641 315 206.841 315 210.841Z" fill="#7F95F4"/>
<path d="M226.901 263.641H191.501C188.801 263.641 186.601 261.441 186.601 258.741V223.341C186.601 220.641 188.801 218.441 191.501 218.441H226.901C229.601 218.441 231.801 220.641 231.801 223.341V258.741C231.801 261.441 229.601 263.641 226.901 263.641Z" fill="white"/>
<path d="M268.9 224.241H237.7C236.9 224.241 236.2 223.541 236.2 222.741C236.2 221.941 236.9 221.241 237.7 221.241H268.9C269.7 221.241 270.4 221.941 270.4 222.741C270.4 223.541 269.7 224.241 268.9 224.241Z" fill="#B2C1F9"/>
<path d="M254.7 230.341H237.7C236.9 230.341 236.2 229.641 236.2 228.841C236.2 228.041 236.9 227.341 237.7 227.341H254.7C255.5 227.341 256.2 228.041 256.2 228.841C256.2 229.641 255.5 230.341 254.7 230.341Z" fill="#B2C1F9"/>
<path d="M306.8 230.341H260.9C260.1 230.341 259.4 229.641 259.4 228.841C259.4 228.041 260.1 227.341 260.9 227.341H306.8C307.6 227.341 308.3 228.041 308.3 228.841C308.4 229.641 307.7 230.341 306.8 230.341Z" fill="#B2C1F9"/>
<path d="M264 236.441H237.7C236.9 236.441 236.2 235.741 236.2 234.941C236.2 234.141 236.9 233.441 237.7 233.441H264C264.8 233.441 265.5 234.141 265.5 234.941C265.5 235.841 264.8 236.441 264 236.441Z" fill="#B2C1F9"/>
<path d="M286.3 236.441H269.8C269 236.441 268.3 235.741 268.3 234.941C268.3 234.141 269 233.441 269.8 233.441H286.3C287.1 233.441 287.8 234.141 287.8 234.941C287.8 235.841 287.1 236.441 286.3 236.441Z" fill="#B2C1F9"/>
<path d="M306.801 236.441H291.601C290.801 236.441 290.101 235.741 290.101 234.941C290.101 234.141 290.801 233.441 291.601 233.441H306.801C307.601 233.441 308.301 234.141 308.301 234.941C308.401 235.841 307.701 236.441 306.801 236.441Z" fill="#B2C1F9"/>
<path d="M306.8 242.641H237.7C236.9 242.641 236.2 241.941 236.2 241.141C236.2 240.341 236.9 239.641 237.7 239.641H306.8C307.6 239.641 308.3 240.341 308.3 241.141C308.4 241.941 307.7 242.641 306.8 242.641Z" fill="#B2C1F9"/>
<path d="M275.8 248.741H237.7C236.9 248.741 236.2 248.041 236.2 247.241C236.2 246.441 236.9 245.741 237.7 245.741H275.8C276.6 245.741 277.3 246.441 277.3 247.241C277.3 248.041 276.6 248.741 275.8 248.741Z" fill="#B2C1F9"/>
<path d="M306.8 248.741H281.8C281 248.741 280.3 248.041 280.3 247.241C280.3 246.441 281 245.741 281.8 245.741H306.8C307.6 245.741 308.3 246.441 308.3 247.241C308.4 248.041 307.7 248.741 306.8 248.741Z" fill="#B2C1F9"/>
<path d="M260.1 254.841H237.7C236.9 254.841 236.2 254.141 236.2 253.341C236.2 252.541 236.9 251.841 237.7 251.841H260.1C260.9 251.841 261.6 252.541 261.6 253.341C261.6 254.141 260.9 254.841 260.1 254.841Z" fill="#B2C1F9"/>
<path d="M288.501 254.841H266.101C265.301 254.841 264.601 254.141 264.601 253.341C264.601 252.541 265.301 251.841 266.101 251.841H288.501C289.301 251.841 290.001 252.541 290.001 253.341C290.001 254.141 289.301 254.841 288.501 254.841Z" fill="#B2C1F9"/>
<path d="M306.8 254.841H293.8C293 254.841 292.3 254.141 292.3 253.341C292.3 252.541 293 251.841 293.8 251.841H306.8C307.6 251.841 308.3 252.541 308.3 253.341C308.4 254.141 307.7 254.841 306.8 254.841Z" fill="#B2C1F9"/>
<path d="M268.9 261.041H237.7C236.9 261.041 236.2 260.341 236.2 259.541C236.2 258.741 236.9 258.041 237.7 258.041H268.9C269.7 258.041 270.4 258.741 270.4 259.541C270.4 260.341 269.7 261.041 268.9 261.041Z" fill="#B2C1F9"/>
<path d="M306.801 224.241H275.601C274.801 224.241 274.101 223.541 274.101 222.741C274.101 221.941 274.801 221.241 275.601 221.241H306.801C307.601 221.241 308.301 221.941 308.301 222.741C308.401 223.541 307.701 224.241 306.801 224.241Z" fill="#B2C1F9"/>
<path d="M315 210.841V212.941H180.5V210.841C180.5 206.841 183.7 203.641 187.7 203.641H307.9C311.8 203.641 315 206.841 315 210.841Z" fill="#3052CE"/>
<path d="M289.6 208.441C289.6 209.341 288.9 210.141 287.9 210.141C286.9 210.141 286.2 209.441 286.2 208.441C286.2 207.541 286.9 206.741 287.9 206.741C288.9 206.741 289.6 207.541 289.6 208.441Z" fill="#DEE3FC"/>
<path d="M298.2 208.441C298.2 209.341 297.5 210.141 296.5 210.141C295.5 210.141 294.8 209.441 294.8 208.441C294.8 207.541 295.5 206.741 296.5 206.741C297.5 206.741 298.2 207.541 298.2 208.441Z" fill="#DEE3FC"/>
<path d="M306.7 208.441C306.7 209.341 306 210.141 305 210.141C304 210.141 303.3 209.441 303.3 208.441C303.3 207.541 304 206.741 305 206.741C306 206.741 306.7 207.541 306.7 208.441Z" fill="#DEE3FC"/>
<path d="M222.101 199.141H195.501C191.601 199.141 188.301 195.941 188.301 191.941V165.341C188.301 161.441 191.501 158.141 195.501 158.141H222.101C226.001 158.141 229.301 161.341 229.301 165.341V191.941C229.301 195.941 226.101 199.141 222.101 199.141Z" stroke="#495AD6" stroke-width="0.8956" stroke-miterlimit="10"/>
<path d="M202.401 172.741L196.501 178.641L202.501 184.541" stroke="#495AD6" stroke-width="1.6716" stroke-miterlimit="10" stroke-linecap="round" stroke-linejoin="round"/>
<path d="M215.201 172.741L221.101 178.641L215.101 184.541" stroke="#495AD6" stroke-width="1.6716" stroke-miterlimit="10" stroke-linecap="round" stroke-linejoin="round"/>
<path d="M211.601 172.741L206.001 184.541" stroke="#495AD6" stroke-width="1.6716" stroke-miterlimit="10" stroke-linecap="round" stroke-linejoin="round"/>
<path d="M315 58.241V141.541C315 146.041 311.3 149.741 306.8 149.741H188.6C184.1 149.741 180.4 146.041 180.4 141.541V58.241C180.4 53.741 184.1 50.041 188.6 50.041H306.8C311.3 50.041 315 53.741 315 58.241Z" fill="#B2C1F9"/>
<path d="M287.801 95.9409C298.57 95.9409 307.301 87.2105 307.301 76.4409C307.301 65.6714 298.57 56.9409 287.801 56.9409C277.031 56.9409 268.301 65.6714 268.301 76.4409C268.301 87.2105 277.031 95.9409 287.801 95.9409Z" fill="#F0F4FF"/>
<path d="M259.5 149.741H188.6C184.1 149.741 180.4 146.041 180.4 141.541V128.441L211.4 74.641C213 71.841 217.1 71.841 218.7 74.641L242.2 115.241L259.6 145.341C260.5 146.841 260.3 148.441 259.5 149.741Z" fill="white"/>
<path d="M290.101 149.741H222.301L242.201 115.241L252.901 96.6411C254.401 94.1411 258.001 94.1411 259.501 96.6411L290.101 149.741Z" fill="#F0F4FF"/>
<path d="M424.601 304.441H372.301V383.041H424.601V304.441Z" fill="#3B47BC"/>
<path d="M424.656 383.016H444.656V304.416H424.656V383.016Z" fill="#495AD6"/>
<path d="M442.201 307.441H427.501V309.941H442.201V307.441Z" fill="#B2C1F9"/>
<path d="M442.201 312.841H427.501V315.341H442.201V312.841Z" fill="#B2C1F9"/>
<path d="M442.201 318.241H427.501V320.741H442.201V318.241Z" fill="#B2C1F9"/>
<path d="M442.201 323.642H427.501V326.142H442.201V323.642Z" fill="#B2C1F9"/>
<path d="M442.201 329.042H427.501V331.542H442.201V329.042Z" fill="#B2C1F9"/>
<path d="M442.201 334.441H427.501V336.941H442.201V334.441Z" fill="#B2C1F9"/>
<path d="M442.201 339.741H427.501V342.241H442.201V339.741Z" fill="#B2C1F9"/>
<path d="M442.201 345.142H427.501V347.642H442.201V345.142Z" fill="#B2C1F9"/>
<path d="M442.201 350.542H427.501V353.042H442.201V350.542Z" fill="#B2C1F9"/>
<path d="M442.201 355.941H427.501V358.441H442.201V355.941Z" fill="#B2C1F9"/>
<path d="M442.201 361.341H427.501V363.841H442.201V361.341Z" fill="#B2C1F9"/>
<path d="M442.201 366.741H427.501V369.241H442.201V366.741Z" fill="#B2C1F9"/>
<path d="M442.201 372.142H427.501V374.642H442.201V372.142Z" fill="#B2C1F9"/>
<path d="M442.201 377.441H427.501V379.941H442.201V377.441Z" fill="#B2C1F9"/>
<path d="M363.901 383.041H390.501C390.501 383.041 392.001 378.341 388.801 372.441C388.801 372.441 386.701 374.141 380.301 373.041C380.301 373.041 377.601 375.341 375.801 376.241C373.801 377.041 363.101 379.141 363.901 383.041Z" fill="#281616"/>
<path d="M365.701 308.141C367.401 318.341 375.301 353.041 378.701 373.441C384.901 373.941 387.901 373.241 389.501 372.941C389.201 365.841 388.601 348.741 388.601 341.241C388.701 328.541 389.301 311.941 383.701 302.741L365.001 304.241C365.101 305.241 365.201 306.041 365.301 306.641C365.501 307.141 365.601 307.641 365.701 308.141Z" fill="#002C54"/>
<path d="M315.801 383.041H342.401C342.401 383.041 343.901 378.341 340.701 372.441C340.701 372.441 338.601 374.141 332.201 373.041C332.201 373.041 329.501 375.341 327.701 376.241C325.701 377.041 315.101 379.141 315.801 383.041Z" fill="#281616"/>
<path d="M331.301 372.842C336.401 374.142 340.101 373.942 341.801 373.742C343.201 365.542 345.401 347.442 347.501 338.942C350.601 325.742 353.701 307.642 351.501 301.142L333.101 296.542C333.001 297.142 331.501 352.642 331.301 372.842Z" fill="#052635"/>
<path d="M404.6 277.641C404.2 274.041 403.8 271.341 403.8 271.341L383.2 276.341L365.7 280.341C359.2 281.741 351.4 283.541 344.5 285.041C336.8 286.841 331.6 292.641 333.3 300.441L335.2 309.841C346 309.741 397 304.841 401.3 302.641C406.4 300.241 407.8 291.441 404.6 277.641Z" fill="#052635"/>
<path d="M435.401 277.642C435.001 274.042 433.301 270.142 433.301 270.142L414.101 276.442L396.601 280.442C390.101 281.842 382.301 283.642 375.401 285.142C367.701 286.942 362.501 292.742 364.201 300.542L366.101 309.942C376.901 309.842 422.201 308.242 432.201 302.742C437.001 300.042 438.601 291.442 435.401 277.642Z" fill="#002C54"/>
<path d="M377.7 248.142C377.7 248.142 386.8 244.042 389.4 248.142C390.8 250.442 389.8 254.642 386.7 256.342C383.6 258.142 366 265.542 349.3 269.742C349.3 269.742 348.6 267.442 347.4 265.042C347.4 265.042 354.9 261.942 362.3 256.742C369.8 251.542 377.7 248.142 377.7 248.142Z" fill="#E5918F"/>
<path d="M380.001 219.642L372.201 250.942C372.201 250.942 373.001 258.842 381.001 254.942C389.001 251.042 394.301 226.142 394.301 226.142L380.001 219.642Z" fill="#E5918F"/>
<path d="M393.3 237.142C392.3 236.942 391.4 236.642 390.5 236.342C389.6 236.042 388.7 235.842 387.9 235.542C380.5 232.942 376.4 229.942 376.4 229.942C378.7 219.742 381.6 212.942 384.1 208.442C384.2 208.342 384.2 208.242 384.3 208.142C384.4 208.042 384.4 207.942 384.5 207.842C385.8 205.642 387.8 203.742 389.9 202.142C390.1 201.942 390.3 201.842 390.6 201.642L391.5 217.942L391.7 219.642L393.3 237.142Z" fill="white"/>
<path d="M393.3 237.142C392.3 236.942 391.4 236.642 390.5 236.342C389.6 236.042 388.7 235.842 387.9 235.542C389.5 224.542 390.9 217.642 390.9 217.642L391.7 219.642L393.3 237.142Z" fill="#C7E5F2"/>
<path d="M439.501 208.841C439.301 213.641 438.501 221.441 437.701 229.241C437.501 231.741 437.201 234.241 437.101 236.641C437.001 238.141 434.701 246.141 434.601 247.541C434.201 254.341 430.901 259.441 434.001 269.841C434.801 272.341 434.901 273.641 434.901 274.641C434.901 275.341 434.001 276.141 433.601 276.341C432.301 277.141 429.701 277.641 426.501 278.041C420.301 278.841 411.901 278.941 406.801 278.941C400.001 278.941 389.801 277.841 388.501 276.141C387.301 274.541 388.401 272.241 389.001 269.141C391.501 254.941 390.601 247.441 390.501 237.241C390.501 236.941 390.501 236.741 390.501 236.441C390.201 220.641 389.201 207.041 389.901 202.141C390.101 201.941 390.301 201.841 390.601 201.641C391.701 200.941 392.701 200.241 393.801 199.641C393.901 199.641 394.001 199.541 394.101 199.441C394.401 199.241 394.701 199.141 395.001 198.941C395.101 198.841 395.201 198.841 395.401 198.741C397.701 197.641 401.101 196.441 403.001 195.741C403.201 195.641 403.501 195.541 403.701 195.541C405.501 195.441 407.501 195.441 409.601 195.441C411.401 195.541 414.301 195.741 417.401 196.141C420.901 196.541 424.701 197.241 427.701 198.041C427.701 198.041 427.701 198.041 427.801 198.041C428.401 198.241 432.101 199.641 435.901 203.741C437.001 205.141 438.401 206.841 439.501 208.841Z" fill="white"/>
<path d="M434.101 269.841C434.901 272.341 435.001 273.641 435.001 274.641C435.001 275.341 434.101 276.141 433.701 276.341C432.401 277.141 429.801 277.641 426.601 278.041C427.901 277.841 430.201 275.841 430.201 273.941C430.201 272.641 428.501 263.841 429.001 258.141C429.501 252.441 430.401 243.441 428.601 236.141C426.801 228.941 425.201 219.341 425.201 219.341L435.101 225.341C435.101 225.341 436.401 227.141 437.801 229.341C437.601 231.841 437.301 234.341 437.201 236.741C437.001 238.141 430.901 259.441 434.101 269.841Z" fill="#C7E5F2"/>
<path d="M390.401 167.042C390.401 167.042 391.301 177.441 394.701 178.141C398.101 178.841 397.301 174.441 397.301 174.441L396.801 169.542L390.401 167.042Z" fill="#002C54"/>
<path d="M406.301 204.641C399.601 203.841 402.101 197.242 403.001 195.742C403.201 195.642 404.401 195.342 404.501 195.242C404.701 195.042 404.901 194.841 405.001 194.441C405.701 192.741 405.401 189.242 405.301 189.042V188.441C405.401 188.041 405.501 187.642 405.601 187.242L409.101 184.441L416.601 178.542C416.601 178.542 414.601 188.441 416.201 194.641C416.301 195.141 416.601 195.741 417.201 196.141C417.401 196.241 417.601 196.341 417.901 196.441C419.901 197.341 417.301 205.941 406.301 204.641Z" fill="#E5918F"/>
<path d="M412.201 184.841C412.201 184.841 412.101 191.441 405.001 194.441C405.701 192.741 405.401 189.241 405.301 189.041L408.301 186.741L412.201 184.841Z" fill="#CC6362"/>
<path d="M392.001 168.441C392.001 168.441 393.601 189.941 399.401 191.841C399.401 191.841 406.801 192.541 412.101 185.341C413.601 183.241 415.601 182.841 416.201 180.341C417.201 176.341 418.701 168.841 416.801 164.341C414.201 157.941 392.301 152.841 392.001 168.441Z" fill="#E5918F"/>
<path d="M417.001 160.841C416.901 156.941 412.901 155.441 412.901 155.441C409.001 153.641 400.801 154.441 392.301 156.241C390.301 156.641 387.801 155.441 386.401 156.441C384.701 157.641 386.401 162.941 386.401 162.941C389.701 172.841 401.701 169.641 405.301 168.341C406.201 170.841 406.001 174.441 408.201 176.241C409.401 177.241 411.501 177.341 413.701 176.941C414.001 177.441 415.001 177.841 415.201 178.541C415.901 180.841 415.801 184.441 415.801 187.241L416.801 186.741C416.901 186.041 427.401 161.141 417.001 160.841Z" fill="#002C54"/>
<path d="M398.001 175.741C398.301 177.541 397.401 179.141 396.001 179.441C394.601 179.641 393.201 178.441 392.901 176.641C392.601 174.841 393.501 173.241 394.901 172.941C396.301 172.641 397.701 173.941 398.001 175.741Z" stroke="white" stroke-width="0.501" stroke-miterlimit="10"/>
<path d="M405.001 174.441C405.301 176.241 404.401 177.841 403.001 178.141C401.601 178.341 400.201 177.141 399.901 175.341C399.601 173.541 400.501 171.941 401.901 171.641C403.301 171.341 404.701 172.641 405.001 174.441Z" stroke="white" stroke-width="0.501" stroke-miterlimit="10"/>
<path d="M398.002 175.741C398.002 175.741 398.302 175.241 399.902 175.341" stroke="white" stroke-width="0.501" stroke-miterlimit="10"/>
<path d="M405.102 174.841L411.102 173.841" stroke="white" stroke-width="0.501" stroke-miterlimit="10"/>
<path d="M411.501 181.541C415.601 183.141 416.901 172.941 413.001 172.441C410.001 172.141 409.901 176.241 409.901 176.241C409.901 176.241 409.201 180.641 411.501 181.541Z" fill="#E5918F"/>
<g opacity="0.5">
<path d="M412.902 174.042C412.202 174.842 412.002 175.642 411.902 176.542C411.802 176.942 411.902 177.441 411.902 177.941C411.902 178.441 412.002 178.842 412.002 179.342C411.802 179.142 411.702 178.942 411.602 178.742C411.502 178.542 411.402 178.242 411.302 178.042C411.202 177.542 411.102 177.042 411.102 176.542C411.202 176.042 411.302 175.542 411.602 175.042C412.002 174.442 412.402 174.142 412.902 174.042Z" fill="#CC6362"/>
<path d="M413.501 175.941C413.101 176.041 412.701 176.241 412.401 176.541C412.101 176.841 411.901 177.241 411.901 177.541L411.201 177.341C411.401 176.841 411.801 176.441 412.201 176.241C412.601 175.941 413.101 175.841 413.501 175.941Z" fill="#CC6362"/>
</g>
<path d="M451.301 252.341C449.501 254.441 442.601 256.041 439.301 253.041C438.301 252.141 437.101 249.641 435.901 246.641C433.001 238.841 430.201 227.241 430.201 227.241L445.601 219.341C445.601 219.341 447.601 228.241 449.301 236.741C449.301 236.741 449.301 236.841 449.301 236.941C449.901 239.641 450.401 242.341 450.801 244.641C450.801 244.741 450.801 244.741 450.801 244.841C451.301 247.541 451.501 250.341 451.301 252.341Z" fill="#E5918F"/>
<path d="M424.301 216.441C425.801 222.641 430.501 234.441 430.501 234.441C433.801 234.941 438.201 234.341 441.801 233.041C446.001 231.541 449.001 228.341 449.001 228.341C449.001 228.341 445.901 219.641 443.101 213.341C440.601 207.741 439.101 205.641 438.001 204.441C436.401 202.741 433.701 200.741 431.901 199.841L424.301 216.441Z" fill="white"/>
<path d="M443.901 220.442L434.801 216.542L427.701 198.142C427.701 198.142 429.001 198.542 430.701 199.242C430.701 199.242 430.801 199.242 430.901 199.342C430.901 199.342 431.001 199.342 431.001 199.442C432.501 200.142 438.501 203.642 442.601 216.442C442.601 216.542 442.701 216.642 442.701 216.742C443.101 218.242 443.501 219.442 443.601 220.042C443.601 220.142 443.601 220.142 443.601 220.242C443.801 220.242 443.801 220.342 443.901 220.442Z" fill="white"/>
<path d="M451.301 252.341C451.201 253.441 450.901 254.341 450.301 254.541C450.201 254.641 448.901 255.341 448.901 255.441C447.001 256.641 443.601 258.541 439.301 260.441C429.001 264.941 414.001 270.041 405.901 272.441C405.901 272.441 405.101 270.141 403.901 267.741C403.901 267.741 411.201 264.341 418.401 258.841C425.601 253.341 436.001 246.641 436.001 246.641L438.601 243.541C438.601 243.541 447.901 234.941 449.401 236.741C449.401 236.741 449.401 236.841 449.401 236.941C449.601 237.841 450.401 241.141 450.901 244.641C450.901 244.741 450.901 244.741 450.901 244.841C451.301 247.541 451.501 250.341 451.301 252.341Z" fill="#E5918F"/>
<path d="M404.901 267.141C404.901 267.141 403.101 268.241 401.201 267.841C400.201 267.641 399.801 267.241 399.001 267.041C398.201 266.941 396.201 266.641 395.201 266.141C394.201 265.641 393.801 265.641 393.801 266.641C393.801 267.641 395.801 268.541 396.301 268.741C396.801 269.041 397.501 269.941 397.601 270.041C397.701 270.141 394.301 271.941 393.401 271.541C393.401 271.541 393.101 272.341 393.301 272.841C393.501 273.341 394.101 273.441 394.201 273.641C394.301 273.841 394.001 274.341 394.201 274.741C394.301 275.141 395.001 275.141 395.201 275.641C395.401 276.241 395.201 276.241 395.401 276.841C395.601 277.441 396.401 277.541 396.501 277.841C396.601 278.141 396.601 278.541 396.901 278.741C397.201 278.941 400.201 277.941 401.401 277.541C402.501 277.041 405.401 272.841 408.701 271.341L404.901 267.141Z" fill="#E5918F"/>
<path d="M420.301 286.141H396.801V283.841H420.301C420.901 283.841 421.401 284.341 421.401 284.941C421.501 285.641 421.001 286.141 420.301 286.141Z" fill="#375F84"/>
<path d="M407.601 286.141H348.801C348.101 286.141 347.501 285.641 347.301 285.041L335.301 241.741C335.001 240.741 335.801 239.841 336.801 239.841H393.701C395.001 239.841 396.201 240.741 396.501 242.041L408.501 285.241C408.601 285.641 408.201 286.141 407.601 286.141Z" fill="#375F84"/>
<path d="M405.501 286.141H346.701C346.001 286.141 345.401 285.641 345.201 285.041L333.201 241.741C332.901 240.741 333.701 239.841 334.701 239.841H391.601C392.901 239.841 394.101 240.741 394.401 242.041L406.401 285.241C406.401 285.641 406.001 286.141 405.501 286.141Z" fill="#467CDB"/>
<path d="M172.301 258.141L179.101 251.141C179.101 251.141 179.301 248.041 179.701 247.341C180.101 246.641 181.001 244.241 181.501 243.941C182.001 243.641 182.901 243.941 182.901 243.941C182.901 243.941 183.801 243.641 184.301 243.641C184.701 243.641 185.501 244.041 185.501 244.041C185.501 244.041 186.501 243.941 186.901 243.941C187.301 243.941 187.501 244.041 187.501 244.041C187.501 244.041 189.101 242.141 189.901 241.541C190.701 240.941 191.901 239.741 192.301 239.741C192.601 239.741 192.801 240.341 192.501 240.941C192.201 241.541 191.201 242.641 191.201 242.641L188.101 247.341C188.101 247.341 188.601 247.141 188.901 246.941C189.201 246.741 191.101 245.041 191.201 244.941C191.301 244.841 192.201 244.341 192.701 244.841C193.201 245.341 189.401 249.941 188.801 250.541C188.201 251.141 184.801 252.841 184.801 252.841C184.801 252.841 181.201 259.341 180.801 259.841C180.501 260.341 172.301 258.141 172.301 258.141Z" fill="#E49191"/>
<path d="M178.7 225.841C178.7 225.841 174.9 247.941 171.3 248.441C171.3 248.441 157 249.041 153.8 231.641C151 216.641 162.1 213.341 167.3 214.541C172.5 215.741 179.8 216.441 178.7 225.841Z" fill="#E49191"/>
<path d="M166.1 244.941C166.1 244.941 164.1 247.641 163.4 254.141C163.4 254.141 157.4 255.041 151.9 252.141C151.9 252.141 154.9 242.941 155.2 232.941" fill="#E49191"/>
<path d="M162.101 210.841C154.301 212.541 154.901 217.441 154.901 217.441C151.201 218.341 150.501 219.841 150.501 226.641C150.501 233.441 153.001 241.541 154.301 242.141C155.601 242.841 163.301 242.841 163.901 242.641C164.501 242.441 167.201 236.241 166.601 235.141C166.001 234.041 166.601 229.741 168.401 229.641C170.201 229.441 169.801 232.241 169.801 232.241L171.301 231.941L172.401 229.141C182.701 229.741 185.401 217.941 185.401 217.941C182.901 216.241 169.901 209.141 162.101 210.841Z" fill="#002C54"/>
<path d="M75.3008 360.141L83.2008 361.241L80.6008 370.441L72.0008 368.241C72.0008 368.241 68.5008 363.541 73.8008 360.041C74.0008 359.941 74.9008 360.041 75.3008 360.141Z" fill="#E5918F"/>
<path d="M134.301 336.441L122.601 301.141C122.601 301.141 119.101 299.841 117.301 301.141C117.301 301.141 105.201 307.641 106.501 326.241C107.501 340.241 110.401 355.441 111.601 361.541L80.5005 360.441C80.5005 360.441 76.7005 365.041 79.1005 370.941C79.1005 370.941 118.201 381.441 123.701 382.441C128.201 383.241 133.101 383.841 135.401 381.841C139.601 378.241 134.301 336.441 134.301 336.441Z" fill="black"/>
<path d="M112.101 360.141L120.001 361.241L117.401 370.441L108.801 368.241C108.801 368.241 105.301 363.541 110.601 360.041C110.801 359.941 111.701 360.041 112.101 360.141Z" fill="#E5918F"/>
<path d="M109.201 364.941C109.001 366.741 110.601 368.441 110.301 368.841C110.001 369.341 104.701 378.241 104.701 378.241C104.701 378.241 108.701 379.941 108.101 382.541H97.9006C97.9006 382.541 95.2006 380.141 95.3006 376.741C95.3006 376.741 96.0006 372.841 97.8006 369.341C99.6006 365.841 103.701 357.941 103.701 357.941C103.701 357.941 104.901 357.441 107.101 358.041C109.601 358.741 112.001 360.241 112.001 360.241C112.001 360.241 109.601 360.441 109.201 364.941Z" fill="#467CDB"/>
<path d="M190.601 374.441C188.101 365.041 164.501 325.141 156.501 314.341C140.101 307.241 122.601 301.141 122.601 301.141C115.401 302.841 111.801 317.441 115.901 327.141C118.701 333.841 136.601 350.541 147.501 360.441H117.201C117.201 360.441 113.601 365.741 116.901 370.841C116.901 370.841 167.301 382.341 171.701 382.941C176.101 383.541 186.001 382.941 186.001 382.941C186.001 382.941 192.701 382.241 190.601 374.441Z" fill="#002C54"/>
<path d="M72.4008 364.941C72.2008 366.741 73.8008 368.441 73.5008 368.841C73.2008 369.341 67.9008 378.241 67.9008 378.241C67.9008 378.241 71.9008 379.941 71.3008 382.541H61.1008C61.1008 382.541 58.4008 380.141 58.5008 376.741C58.5008 376.741 59.2008 372.841 61.0008 369.341C62.8008 365.841 66.9008 357.941 66.9008 357.941C66.9008 357.941 68.1008 357.441 70.3008 358.041C72.8008 358.741 75.2008 360.241 75.2008 360.241C75.2008 360.241 72.8008 360.441 72.4008 364.941Z" fill="#467CDB"/>
<path d="M228.501 251.341L212.201 279.941L200.601 268.341L191.001 282.641L193.801 283.941L192.801 284.741C192.801 284.741 215.301 295.641 218.001 293.241C220.701 290.841 233.201 254.441 233.201 254.441L228.501 251.341Z" fill="#E49191"/>
<path d="M202.7 270.141C202.7 270.141 199.6 283.141 193.5 289.241L177.8 283.241C177.8 283.241 170.5 295.541 163.4 304.941C160.7 308.541 159.8 313.641 156.5 314.341C156.3 314.241 156.1 314.241 155.9 314.141C147.2 311.541 134.3 314.341 123.7 310.341C112 305.941 114.2 303.541 114.2 303.541C114.2 303.541 121.3 290.741 125.4 277.141C127.2 271.141 128.5 265.541 129.3 261.241C130.8 253.541 137 247.541 144.7 246.441C144.8 246.441 144.9 246.441 145 246.441C153.9 245.341 177.2 248.041 181.7 250.041C186.2 251.841 202.7 270.141 202.7 270.141Z" fill="#467CDB"/>
<path d="M177.801 283.241C177.801 283.241 170.501 295.541 163.401 304.941C160.701 308.541 159.801 313.641 156.501 314.341C157.901 313.841 160.301 306.441 161.101 304.741C161.901 303.041 163.301 301.441 166.201 295.541C169.101 289.741 173.001 281.141 173.001 281.141L177.801 283.241Z" fill="#5996EF"/>
<path d="M147.501 360.441C150.101 359.941 152.801 360.041 155.501 360.441C156.801 360.641 158.101 360.841 159.401 361.241C160.701 361.541 161.901 362.141 163.101 362.741L159.201 362.141C157.901 361.941 156.601 361.741 155.301 361.541C152.801 361.141 150.201 360.841 147.501 360.441Z" fill="black"/>
<path d="M240.701 240.841C240.401 240.841 238.801 242.141 238.001 242.841L238.901 241.041C238.901 241.041 240.101 239.841 240.601 239.241C241.001 238.541 240.801 237.941 240.501 237.941C240.301 237.941 238.801 239.041 237.901 239.741L238.101 239.341C238.101 239.341 239.301 238.141 239.801 237.541C240.201 236.841 240.001 236.241 239.701 236.241C239.401 236.241 236.501 238.541 236.501 238.541L235.101 240.341L236.101 238.341C236.101 238.341 236.601 237.641 237.001 236.941C237.401 236.241 237.101 236.041 236.901 235.741C236.701 235.541 234.801 236.941 234.301 237.441C233.801 238.041 232.301 240.341 232.201 240.641L230.601 243.941C230.501 242.941 230.301 241.341 230.201 240.341C230.001 238.841 228.701 238.541 228.601 239.241C228.601 239.941 227.801 243.541 228.001 245.441C228.201 247.341 228.501 248.641 228.601 249.741C228.701 250.841 227.601 253.041 227.601 253.041C227.601 253.041 232.101 255.841 232.901 255.041C233.601 254.241 235.201 252.341 236.001 251.041C237.101 249.341 237.801 247.041 237.801 247.041L239.201 244.041C239.201 244.041 240.401 242.841 240.901 242.241C241.301 241.441 241.001 240.841 240.701 240.841Z" fill="#E49191"/>
<path d="M500.4 149.741H447.3C443.9 149.741 441.1 152.541 441.1 155.941V168.441C441.1 171.541 443.4 174.141 446.5 174.541C446.9 174.641 447.3 174.941 447.3 175.441V182.341C447.3 182.741 447.8 182.941 448 182.541L453.4 174.941C453.6 174.741 453.8 174.541 454.1 174.541H500.3C503.7 174.541 506.5 171.741 506.5 168.341V155.841C506.6 152.441 503.8 149.741 500.4 149.741Z" stroke="white" stroke-width="0.8956" stroke-miterlimit="10"/>
<path d="M455.5 162.141C455.5 163.241 454.6 164.141 453.5 164.141C452.4 164.141 451.5 163.241 451.5 162.141C451.5 161.041 452.4 160.141 453.5 160.141C454.6 160.141 455.5 161.041 455.5 162.141Z" stroke="white" stroke-width="0.8956" stroke-miterlimit="10"/>
<path d="M465.7 162.141C465.7 163.241 464.8 164.141 463.7 164.141C462.6 164.141 461.7 163.241 461.7 162.141C461.7 161.041 462.6 160.141 463.7 160.141C464.8 160.141 465.7 161.041 465.7 162.141Z" stroke="white" stroke-width="0.8956" stroke-miterlimit="10"/>
<path d="M475.9 162.141C475.9 163.241 475 164.141 473.9 164.141C472.8 164.141 471.9 163.241 471.9 162.141C471.9 161.041 472.8 160.141 473.9 160.141C475 160.141 475.9 161.041 475.9 162.141Z" stroke="white" stroke-width="0.8956" stroke-miterlimit="10"/>
<path d="M486.1 162.141C486.1 163.241 485.2 164.141 484.1 164.141C483 164.141 482.1 163.241 482.1 162.141C482.1 161.041 483 160.141 484.1 160.141C485.2 160.141 486.1 161.041 486.1 162.141Z" stroke="white" stroke-width="0.8956" stroke-miterlimit="10"/>
<path d="M496.4 162.141C496.4 163.241 495.5 164.141 494.4 164.141C493.3 164.141 492.4 163.241 492.4 162.141C492.4 161.041 493.3 160.141 494.4 160.141C495.4 160.141 496.4 161.041 496.4 162.141Z" stroke="white" stroke-width="0.8956" stroke-miterlimit="10"/>
<path d="M128.1 59.2412H181.2C184.6 59.2412 187.4 62.0412 187.4 65.4412V77.9412C187.4 81.0412 185.1 83.6412 182 84.0412C181.6 84.1412 181.2 84.4412 181.2 84.9412V91.8412C181.2 92.2412 180.7 92.4412 180.5 92.0412L175.1 84.4412C174.9 84.2412 174.7 84.0412 174.4 84.0412H128.2C124.8 84.0412 122 81.2412 122 77.8412V65.3412C122 62.0412 124.7 59.2412 128.1 59.2412Z" fill="white" stroke="#3945BA" stroke-width="0.8956" stroke-miterlimit="10"/>
<path d="M173.101 71.6411C173.101 72.7411 174.001 73.6411 175.101 73.6411C176.201 73.6411 177.101 72.7411 177.101 71.6411C177.101 70.5411 176.201 69.6411 175.101 69.6411C174.001 69.6411 173.101 70.5411 173.101 71.6411Z" fill="white" stroke="#3945BA" stroke-width="0.8956" stroke-miterlimit="10"/>
<path d="M162.9 71.6411C162.9 72.7411 163.8 73.6411 164.9 73.6411C166 73.6411 166.9 72.7411 166.9 71.6411C166.9 70.5411 166 69.6411 164.9 69.6411C163.8 69.6411 162.9 70.5411 162.9 71.6411Z" fill="white" stroke="#3945BA" stroke-width="0.8956" stroke-miterlimit="10"/>
<path d="M152.601 71.6411C152.601 72.7411 153.501 73.6411 154.601 73.6411C155.701 73.6411 156.601 72.7411 156.601 71.6411C156.601 70.5411 155.701 69.6411 154.601 69.6411C153.601 69.6411 152.601 70.5411 152.601 71.6411Z" fill="white" stroke="#3945BA" stroke-width="0.8956" stroke-miterlimit="10"/>
<path d="M142.4 71.6411C142.4 72.7411 143.3 73.6411 144.4 73.6411C145.5 73.6411 146.4 72.7411 146.4 71.6411C146.4 70.5411 145.5 69.6411 144.4 69.6411C143.3 69.6411 142.4 70.5411 142.4 71.6411Z" fill="white" stroke="#3945BA" stroke-width="0.8956" stroke-miterlimit="10"/>
<path d="M132.2 71.6411C132.2 72.7411 133.1 73.6411 134.2 73.6411C135.3 73.6411 136.2 72.7411 136.2 71.6411C136.2 70.5411 135.3 69.6411 134.2 69.6411C133.1 69.6411 132.2 70.5411 132.2 71.6411Z" fill="white" stroke="#3945BA" stroke-width="0.8956" stroke-miterlimit="10"/>
<path d="M401.599 120.841H304.899C299.599 120.841 295.199 116.541 295.199 111.141C295.199 105.841 299.499 101.441 304.899 101.441H401.599C406.899 101.441 411.299 105.741 411.299 111.141C411.299 116.441 406.899 120.841 401.599 120.841Z" fill="white" stroke="#495AD6" stroke-width="0.8956" stroke-miterlimit="10"/>
<path d="M400.199 110.441C400.199 113.241 397.899 115.541 395.099 115.541C392.299 115.541 389.999 113.241 389.999 110.441C389.999 107.641 392.299 105.341 395.099 105.341C397.899 105.341 400.199 107.641 400.199 110.441Z" stroke="#495AD6" stroke-width="1.6716" stroke-miterlimit="10"/>
<path d="M398.699 114.141L401.499 116.941" stroke="#495AD6" stroke-width="1.6716" stroke-miterlimit="10" stroke-linecap="round"/>
<path d="M255.101 383.441H230.801C226.501 383.441 223.101 379.941 223.101 375.741V351.441C223.101 347.141 226.601 343.741 230.801 343.741H255.101C259.401 343.741 262.801 347.241 262.801 351.441V375.741C262.801 380.041 259.401 383.441 255.101 383.441Z" fill="#193091"/>
<path d="M247.9 383.441H223.6C219.3 383.441 215.9 379.941 215.9 375.741V351.441C215.9 347.141 219.4 343.741 223.6 343.741H247.9C252.2 343.741 255.6 347.241 255.6 351.441V375.741C255.6 380.041 252.1 383.441 247.9 383.441Z" fill="#495AD6"/>
<path d="M231 356.141L242.4 362.741C243.1 363.141 243.1 364.141 242.4 364.541L231 371.141C230.3 371.541 229.4 371.041 229.4 370.241V357.041C229.4 356.241 230.3 355.741 231 356.141Z" fill="white"/>
<path d="M365.201 131.941H344.801C344.001 131.941 343.301 131.241 343.301 130.441C343.301 129.641 344.001 128.941 344.801 128.941H365.201C366.001 128.941 366.701 129.641 366.701 130.441C366.801 131.241 366.101 131.941 365.201 131.941Z" fill="#F0F4FF"/>
<path d="M385.7 131.941H370.9C370.1 131.941 369.4 131.241 369.4 130.441C369.4 129.641 370.1 128.941 370.9 128.941H385.7C386.5 128.941 387.2 129.641 387.2 130.441C387.2 131.241 386.5 131.941 385.7 131.941Z" fill="#F0F4FF"/>
<path d="M353.501 138.642H344.801C344.001 138.642 343.301 137.942 343.301 137.142C343.301 136.342 344.001 135.642 344.801 135.642H353.501C354.301 135.642 355.001 136.342 355.001 137.142C355.001 137.942 354.301 138.642 353.501 138.642Z" fill="#F0F4FF"/>
<path d="M385.701 138.642H358.701C357.901 138.642 357.201 137.942 357.201 137.142C357.201 136.342 357.901 135.642 358.701 135.642H385.701C386.501 135.642 387.201 136.342 387.201 137.142C387.201 137.942 386.501 138.642 385.701 138.642Z" fill="#F0F4FF"/>
<path d="M371.701 145.441H344.801C344.001 145.441 343.301 144.741 343.301 143.941C343.301 143.141 344.001 142.441 344.801 142.441H371.701C372.501 142.441 373.201 143.141 373.201 143.941C373.301 144.741 372.601 145.441 371.701 145.441Z" fill="#F0F4FF"/>
<path d="M385.701 145.441H377.001C376.201 145.441 375.501 144.741 375.501 143.941C375.501 143.141 376.201 142.441 377.001 142.441H385.701C386.501 142.441 387.201 143.141 387.201 143.941C387.201 144.741 386.501 145.441 385.701 145.441Z" fill="#F0F4FF"/>
<path d="M106.5 274.841H35.2004C33.1004 274.841 31.4004 273.141 31.4004 271.041V235.041C31.4004 232.941 33.1004 231.241 35.2004 231.241H106.5C108.6 231.241 110.3 232.941 110.3 235.041V271.041C110.4 273.141 108.6 274.841 106.5 274.841Z" fill="#193091"/>
<path d="M34.7002 237.041H107" stroke="white" stroke-width="0.8956" stroke-miterlimit="10" stroke-linecap="round"/>
<path d="M105.1 234.941C105.597 234.941 106 234.538 106 234.041C106 233.544 105.597 233.141 105.1 233.141C104.603 233.141 104.2 233.544 104.2 234.041C104.2 234.538 104.603 234.941 105.1 234.941Z" fill="white"/>
<path d="M100.501 234.941C100.998 234.941 101.401 234.538 101.401 234.041C101.401 233.544 100.998 233.141 100.501 233.141C100.004 233.141 99.6006 233.544 99.6006 234.041C99.6006 234.538 100.004 234.941 100.501 234.941Z" fill="white"/>
<path d="M96.0006 234.941C96.4976 234.941 96.9006 234.538 96.9006 234.041C96.9006 233.544 96.4976 233.141 96.0006 233.141C95.5035 233.141 95.1006 233.544 95.1006 234.041C95.1006 234.538 95.5035 234.941 96.0006 234.941Z" fill="white"/>
<path d="M48.2008 242.941H36.0008C35.3008 242.941 34.8008 242.441 34.8008 241.741C34.8008 241.041 35.3008 240.541 36.0008 240.541H48.3008C49.0008 240.541 49.5008 241.041 49.5008 241.741C49.4008 242.441 48.9008 242.941 48.2008 242.941Z" fill="#6589D1"/>
<path d="M48.2008 248.541H36.0008C35.3008 248.541 34.8008 248.041 34.8008 247.341C34.8008 246.641 35.3008 246.141 36.0008 246.141H48.3008C49.0008 246.141 49.5008 246.641 49.5008 247.341C49.4008 247.941 48.9008 248.541 48.2008 248.541Z" fill="#6589D1"/>
<path d="M48.2008 254.141H36.0008C35.3008 254.141 34.8008 253.641 34.8008 252.941C34.8008 252.241 35.3008 251.741 36.0008 251.741H48.3008C49.0008 251.741 49.5008 252.241 49.5008 252.941C49.4008 253.541 48.9008 254.141 48.2008 254.141Z" fill="#6589D1"/>
<path d="M48.2008 259.741H36.0008C35.3008 259.741 34.8008 259.241 34.8008 258.541C34.8008 257.841 35.3008 257.341 36.0008 257.341H48.3008C49.0008 257.341 49.5008 257.841 49.5008 258.541C49.4008 259.141 48.9008 259.741 48.2008 259.741Z" fill="#6589D1"/>
<path d="M48.2008 265.241H36.0008C35.3008 265.241 34.8008 264.741 34.8008 264.041C34.8008 263.341 35.3008 262.841 36.0008 262.841H48.3008C49.0008 262.841 49.5008 263.341 49.5008 264.041C49.4008 264.741 48.9008 265.241 48.2008 265.241Z" fill="#6589D1"/>
<path d="M48.2008 270.841H36.0008C35.3008 270.841 34.8008 270.341 34.8008 269.641C34.8008 268.941 35.3008 268.441 36.0008 268.441H48.3008C49.0008 268.441 49.5008 268.941 49.5008 269.641C49.4008 270.341 48.9008 270.841 48.2008 270.841Z" fill="#6589D1"/>
<path d="M105.801 242.941H53.0008C52.3008 242.941 51.8008 242.441 51.8008 241.741C51.8008 241.041 52.3008 240.541 53.0008 240.541H105.801C106.501 240.541 107.001 241.041 107.001 241.741C107.001 242.441 106.501 242.941 105.801 242.941Z" fill="#3B5FB7"/>
<path d="M105.801 248.541H53.0008C52.3008 248.541 51.8008 248.041 51.8008 247.341C51.8008 246.641 52.3008 246.141 53.0008 246.141H105.801C106.501 246.141 107.001 246.641 107.001 247.341C107.001 247.941 106.501 248.541 105.801 248.541Z" fill="#3B5FB7"/>
<path d="M105.801 254.141H53.0008C52.3008 254.141 51.8008 253.641 51.8008 252.941C51.8008 252.241 52.3008 251.741 53.0008 251.741H105.801C106.501 251.741 107.001 252.241 107.001 252.941C107.001 253.541 106.501 254.141 105.801 254.141Z" fill="#3B5FB7"/>
<path d="M105.801 259.741H53.0008C52.3008 259.741 51.8008 259.241 51.8008 258.541C51.8008 257.841 52.3008 257.341 53.0008 257.341H105.801C106.501 257.341 107.001 257.841 107.001 258.541C107.001 259.141 106.501 259.741 105.801 259.741Z" fill="#3B5FB7"/>
<path d="M105.801 265.241H53.0008C52.3008 265.241 51.8008 264.741 51.8008 264.041C51.8008 263.341 52.3008 262.841 53.0008 262.841H105.801C106.501 262.841 107.001 263.341 107.001 264.041C107.001 264.741 106.501 265.241 105.801 265.241Z" fill="#3B5FB7"/>
<path d="M105.801 270.841H53.0008C52.3008 270.841 51.8008 270.341 51.8008 269.641C51.8008 268.941 52.3008 268.441 53.0008 268.441H105.801C106.501 268.441 107.001 268.941 107.001 269.641C107.001 270.341 106.501 270.841 105.801 270.841Z" fill="#3B5FB7"/>
<path d="M470.785 75.9924C474.967 58.5367 464.207 40.9958 446.751 36.8136C429.296 32.6315 411.755 43.3917 407.572 60.8474C403.39 78.303 414.151 95.8439 431.606 100.026C449.062 104.208 466.603 93.448 470.785 75.9924Z" stroke="#DEE3FC" stroke-width="0.7896" stroke-miterlimit="10"/>
<path d="M450.623 94.3174C464.916 87.9936 471.376 71.2801 465.053 56.9868C458.729 42.6935 442.015 36.2329 427.722 42.5566C413.429 48.8804 406.968 65.5939 413.292 79.8872C419.616 94.1805 436.329 100.641 450.623 94.3174Z" fill="#3945BA"/>
<path d="M441.762 68.4145C441.762 69.8145 440.562 71.0145 439.162 71.0145C437.762 71.0145 436.562 69.8145 436.562 68.4145C436.562 67.0145 437.762 65.8145 439.162 65.8145C440.562 65.8145 441.762 67.0145 441.762 68.4145Z" fill="white"/>
<path d="M438.861 67.9146C438.461 68.1146 437.961 68.0145 437.761 67.6145L429.461 52.6146C429.261 52.2146 429.361 51.7146 429.761 51.5146C430.161 51.3146 430.661 51.4146 430.861 51.8146L439.161 66.8146C439.461 67.2146 439.261 67.7146 438.861 67.9146Z" fill="white"/>
<path d="M439.562 68.8144C439.862 68.5144 440.362 68.5144 440.662 68.8144L447.862 76.0144C448.162 76.3144 448.162 76.8144 447.862 77.1144C447.562 77.4144 447.062 77.4144 446.762 77.1144L439.562 69.9144C439.262 69.6144 439.262 69.1144 439.562 68.8144Z" fill="white"/>
<path d="M439.361 45.8146V42.5146" stroke="white" stroke-width="2" stroke-miterlimit="10" stroke-linecap="round"/>
<path d="M461.762 68.6147H465.062" stroke="white" stroke-width="2" stroke-miterlimit="10" stroke-linecap="round"/>
<path d="M438.962 91.0146V94.3146" stroke="white" stroke-width="2" stroke-miterlimit="10" stroke-linecap="round"/>
<path d="M416.562 68.2148H413.262" stroke="white" stroke-width="2" stroke-miterlimit="10" stroke-linecap="round"/>
<g opacity="0.5">
<path d="M428.062 48.7146L426.362 45.9146" stroke="#DEE3FC" stroke-miterlimit="10" stroke-linecap="round"/>
<path d="M458.862 57.2147L461.662 55.6147" stroke="#DEE3FC" stroke-miterlimit="10" stroke-linecap="round"/>
<path d="M450.362 88.1147L451.962 90.9147" stroke="#DEE3FC" stroke-miterlimit="10" stroke-linecap="round"/>
<path d="M419.462 79.6147L416.662 81.2147" stroke="#DEE3FC" stroke-miterlimit="10" stroke-linecap="round"/>
</g>
<g opacity="0.5">
<path d="M419.661 56.9149L416.861 55.3149" stroke="#DEE3FC" stroke-miterlimit="10" stroke-linecap="round"/>
<path d="M450.661 48.9147L452.261 46.1147" stroke="#DEE3FC" stroke-miterlimit="10" stroke-linecap="round"/>
<path d="M458.661 79.9146L461.461 81.5145" stroke="#DEE3FC" stroke-miterlimit="10" stroke-linecap="round"/>
<path d="M427.762 87.9146L426.062 90.7146" stroke="#DEE3FC" stroke-miterlimit="10" stroke-linecap="round"/>
</g>
<path d="M120.5 213.941H84.8002C79.5002 213.941 75.2002 209.641 75.2002 204.341V168.641C75.2002 163.341 79.5002 159.041 84.8002 159.041H120.5C125.8 159.041 130.1 163.341 130.1 168.641V204.341C130.1 209.641 125.8 213.941 120.5 213.941Z" fill="#193091"/>
<path d="M118.2 209.141H78.7C74.5 209.141 71 205.741 71 201.441V161.941C71 157.741 74.4 154.241 78.7 154.241H118.2C122.4 154.241 125.9 157.641 125.9 161.941V201.441C125.8 205.741 122.4 209.141 118.2 209.141Z" fill="#7E89FD" stroke="#DEE3FC" stroke-miterlimit="10"/>
<path d="M107.9 175.441H107.6V172.341C107.6 167.141 103.4 162.941 98.2998 162.941C93.1998 162.941 88.9998 167.141 88.9998 172.341V175.441H88.8998C87.4998 175.441 86.2998 176.641 86.2998 178.041V189.841C86.2998 191.241 87.4998 192.441 88.8998 192.441H107.9C109.3 192.441 110.5 191.241 110.5 189.841V178.041C110.5 176.641 109.4 175.441 107.9 175.441ZM91.2998 172.341C91.2998 168.541 94.3998 165.341 98.2998 165.341C102.1 165.341 105.3 168.441 105.3 172.341V175.441H91.2998V172.341Z" fill="#DEE3FC"/>
<path d="M101.5 181.542C101.5 179.642 99.8001 178.142 97.8001 178.542C96.6001 178.742 95.7001 179.742 95.4001 180.842C95.1001 182.242 95.8001 183.542 96.8001 184.142C97.0001 184.242 97.1001 184.542 97.1001 184.742L96.6001 186.742C96.3001 187.942 97.2001 189.042 98.4001 189.042C99.6001 189.042 100.5 187.942 100.2 186.742L99.7001 184.842C99.6001 184.642 99.8001 184.342 100 184.242C100.8 183.642 101.5 182.742 101.5 181.542Z" fill="#7E89FD"/>
<path d="M109.4 196.742H87.3998C86.7998 196.742 86.2998 196.241 86.2998 195.641C86.2998 195.041 86.7998 194.542 87.3998 194.542H109.4C110 194.542 110.5 195.041 110.5 195.641C110.5 196.241 110 196.742 109.4 196.742Z" fill="#DEE3FC"/>
<path d="M109.4 200.541H87.3998C86.7998 200.541 86.2998 200.041 86.2998 199.441C86.2998 198.841 86.7998 198.341 87.3998 198.341H109.4C110 198.341 110.5 198.841 110.5 199.441C110.5 200.041 110 200.541 109.4 200.541Z" fill="#DEE3FC"/>
<path d="M389.2 61.3411H368.2C365.1 61.3411 362.6 58.8411 362.6 55.7411V34.7411C362.6 31.6411 365.1 29.1411 368.2 29.1411H389.2C392.3 29.1411 394.8 31.6411 394.8 34.7411V55.7411C394.9 58.8411 392.3 61.3411 389.2 61.3411Z" fill="#193091"/>
<path d="M387.8 58.5412H364.5C362 58.5412 360 56.5412 360 54.0412V30.7412C360 28.2412 362 26.2412 364.5 26.2412H387.8C390.3 26.2412 392.3 28.2412 392.3 30.7412V54.0412C392.4 56.5412 390.3 58.5412 387.8 58.5412Z" fill="#7E89FD" stroke="#DEE3FC" stroke-miterlimit="10"/>
<path d="M369.7 52.0414C369.6 52.0414 369.5 52.0414 369.4 52.0414C368.9 51.9414 368.6 51.3414 368.7 50.8414L373.6 33.5414C373.7 33.0414 374.3 32.7414 374.8 32.8414C375.3 32.9414 375.6 33.5414 375.5 34.0414L370.6 51.3414C370.5 51.8414 370.1 52.0414 369.7 52.0414Z" fill="white"/>
<path d="M377.9 52.0414C377.8 52.0414 377.7 52.0414 377.6 52.0414C377.1 51.9414 376.8 51.3414 376.9 50.8414L381.8 33.5414C381.9 33.0414 382.5 32.7414 383 32.8414C383.5 32.9414 383.8 33.5414 383.7 34.0414L378.8 51.3414C378.7 51.8414 378.3 52.0414 377.9 52.0414Z" fill="white"/>
<path d="M384.9 39.5415H367.6C367 39.5415 366.6 39.1415 366.6 38.5415C366.6 37.9415 367 37.5415 367.6 37.5415H384.9C385.5 37.5415 385.9 37.9415 385.9 38.5415C385.9 39.1415 385.4 39.5415 384.9 39.5415Z" fill="white"/>
<path d="M384.9 47.4414H367.6C367 47.4414 366.6 47.0414 366.6 46.4414C366.6 45.8414 367 45.4414 367.6 45.4414H384.9C385.5 45.4414 385.9 45.8414 385.9 46.4414C385.9 46.9414 385.4 47.4414 384.9 47.4414Z" fill="white"/>
<path d="M142.9 109.041H130.4C129.6 109.041 129 108.441 129 107.641C129 106.841 129.6 106.241 130.4 106.241H142.9C143.7 106.241 144.3 106.841 144.3 107.641C144.3 108.441 143.7 109.041 142.9 109.041Z" fill="#F0F4FF"/>
<path d="M155.5 115.141H130.4C129.6 115.141 129 114.541 129 113.741C129 112.941 129.6 112.341 130.4 112.341H155.5C156.3 112.341 156.9 112.941 156.9 113.741C156.9 114.541 156.3 115.141 155.5 115.141Z" fill="#F0F4FF"/>
<path d="M133.4 121.241H130.4C129.6 121.241 129 120.641 129 119.841C129 119.041 129.6 118.441 130.4 118.441H133.4C134.2 118.441 134.8 119.041 134.8 119.841C134.8 120.541 134.1 121.241 133.4 121.241Z" fill="#F0F4FF"/>
<path d="M155.5 121.241H138C137.2 121.241 136.6 120.641 136.6 119.841C136.6 119.041 137.2 118.441 138 118.441H155.5C156.3 118.441 156.9 119.041 156.9 119.841C156.9 120.541 156.3 121.241 155.5 121.241Z" fill="#F0F4FF"/>
<path d="M155.5 109.041H147.9C147.1 109.041 146.5 108.441 146.5 107.641C146.5 106.841 147.1 106.241 147.9 106.241H155.5C156.3 106.241 156.9 106.841 156.9 107.641C156.9 108.441 156.3 109.041 155.5 109.041Z" fill="#F0F4FF"/>
<path d="M30.3004 328.041C30.1004 326.741 30.1004 325.441 30.4004 324.141C31.5004 319.841 32.8004 311.741 30.0004 303.041C25.3004 288.441 6.40039 275.541 6.40039 275.541C6.40039 275.541 11.5004 297.041 15.8004 306.241C18.9004 312.941 24.3004 320.541 27.3004 324.641C28.1004 325.741 28.7004 327.041 29.0004 328.441C32.1004 345.341 31.6004 358.441 31.6004 358.741L33.0004 358.841C32.9004 358.441 33.4004 345.241 30.3004 328.041Z" fill="#DEE3FC"/>
<path d="M45.4003 314.341C49.2003 302.441 50.9003 288.441 50.9003 288.441C50.9003 288.441 33.9003 302.441 32.5003 313.241C31.6003 319.841 32.7003 325.241 33.7003 328.341C34.1003 329.641 34.2003 331.041 34.1003 332.441C32.4003 348.341 33.7003 360.641 33.7003 360.841L35.0003 360.741C35.0003 360.541 33.7003 349.141 35.2003 334.141C35.4003 332.041 36.2003 330.141 37.5003 328.541C40.0003 325.441 43.5003 320.441 45.4003 314.341Z" fill="#B4C1EF"/>
<path d="M62.6002 287.941C62.6002 287.941 44.3002 294.741 39.5002 309.641C36.6002 318.741 38.0002 327.141 39.1002 331.441C39.4002 332.641 39.4002 333.941 39.1002 335.141C34.8002 352.341 34.7002 370.141 34.7002 370.341H36.2002C36.2002 370.141 36.3002 352.741 40.4002 335.841C40.8002 334.141 41.5002 332.641 42.6002 331.241C45.7002 327.041 51.0002 319.441 54.1002 312.841C58.5002 303.541 62.6002 287.941 62.6002 287.941Z" fill="#DEE3FC"/>
<path d="M30.4 350.941C29.9 344.641 28.2 339.041 26.2 334.341C25.8 333.441 25.6 332.341 25.8 331.341C26.1 329.341 26.2 326.341 25.4 322.441C23.8 315.041 14.1 299.241 0 298.341C0 298.341 4.9 306.141 7.4 312.641C10.6 320.941 15.1 329.541 22.6 332.841C23.9 333.441 24.9 334.541 25.5 335.841C27.3 340.241 28.8 345.341 29.2 350.941H30.4Z" fill="#B4C1EF"/>
<path d="M20.8 383.041H44L50 346.241C50.3 344.641 49 343.141 47.4 343.141H17.4C15.7 343.141 14.5 344.641 14.8 346.241L20.8 383.041Z" fill="#DEE3FC"/>
</svg>
