<svg width="158" height="31" viewBox="0 0 158 31" fill="none" xmlns="http://www.w3.org/2000/svg">
<path d="M10.1152 30.5172H4.20549V15.7851H0.179688V10.9886H4.20533V7.57556C4.20533 3.5311 5.98588 0.630432 11.8796 0.630432C13.1261 0.630432 15.0831 0.881682 15.0831 0.881682V5.33548H13.0276C10.9332 5.33548 10.1155 5.97255 10.1155 7.7338V10.9886H15.0047L14.5693 15.7851H10.1153L10.1152 30.5172ZM23.6751 10.6053C23.589 10.6053 23.5004 10.6084 23.4128 10.6106C17.9329 10.6106 15.4258 14.7326 15.4258 20.5838C15.4258 27.9547 18.6779 30.9048 23.4556 30.9048C26.1891 30.9048 27.985 29.7542 29.0765 27.6072V30.5193H34.6975V10.9906H29.0765V13.9939C28.1852 12.0617 26.3391 10.6282 23.6751 10.6053ZM25.1044 15.2199C27.4059 15.2199 28.7873 16.8252 28.7873 19.5559L28.7927 22.3449C28.7927 24.1853 27.6517 26.3385 25.1044 26.3385C21.1882 26.3385 21.2928 22.1099 21.2928 20.7015C21.2928 15.964 23.3794 15.2199 25.1044 15.2199ZM36.9675 20.756C36.9675 18.3829 36.854 10.618 46.9705 10.618C51.0314 10.618 52.7271 11.9092 52.7271 11.9092L51.3642 16.1364C51.3642 16.1364 49.6707 15.2039 47.464 15.2039C44.6377 15.2039 42.8343 16.8423 42.8343 19.7251L42.8374 21.7922C42.8374 24.5622 44.5775 26.4113 47.4698 26.4113C49.4802 26.4113 51.333 25.47 51.333 25.47L52.6924 29.6088C52.6924 29.6088 51.142 30.9082 46.9989 30.9082C37.3664 30.9082 36.9677 23.9416 36.9677 20.756H36.9675ZM85.6849 10.6106C91.1649 10.6106 93.7115 14.7326 93.7115 20.5838C93.7115 27.9547 90.4593 30.9048 85.6816 30.9048C82.9481 30.9048 80.9275 29.7544 79.8359 27.6072V30.5193L74.2856 30.5171V1.22421L80.1786 0.710261V13.7293C81.0291 11.4516 83.8242 10.6106 85.685 10.6106H85.6849ZM84.0328 15.2199C81.7312 15.2199 80.1786 16.8252 80.1786 19.5559L80.1731 22.3449C80.1696 24.1853 81.2483 26.3385 84.0328 26.3385C87.949 26.3385 87.8443 22.1099 87.8443 20.7015C87.8443 15.964 85.758 15.2199 84.0328 15.2199ZM62.9518 10.6268C56.7364 10.6268 53.4551 14.0155 53.4551 20.0377V21.1565C53.4551 28.9727 58.0631 30.9851 63.5567 30.9851C68.8965 30.9851 71.3135 29.4915 71.3135 29.4915L70.2108 25.5142C70.2108 25.5142 67.3677 26.7239 64.2633 26.7239C61.045 26.7239 59.6609 25.9036 59.3062 22.8108H71.7846V19.62C71.7846 13.0875 68.102 10.6266 62.9516 10.6266L62.9518 10.6268ZM63.1016 14.6095C65.253 14.6095 66.6471 15.9287 66.5706 18.9884H59.317C59.4428 15.7681 60.9462 14.6096 63.1016 14.6096V14.6095ZM105.462 10.6C99.0791 10.6 95.7189 14.1968 95.7189 20.6426C95.7189 29.4865 101.511 30.9101 105.472 30.9101C111.272 30.9101 115.13 27.788 115.13 20.7229C115.13 13.3694 110.792 10.6 105.462 10.6ZM105.381 15.2358C108.188 15.2358 109.3 17.3363 109.3 19.7273V21.7829C109.3 24.6794 107.744 26.3547 105.371 26.3547C103.151 26.3547 101.591 24.7876 101.591 21.7829V19.7273C101.591 16.5228 103.448 15.2358 105.381 15.2358ZM126.869 10.6C120.487 10.6 117.127 14.1968 117.127 20.6426C117.127 29.4865 122.919 30.9101 126.88 30.9101C132.679 30.9101 136.537 27.788 136.537 20.7229C136.537 13.3694 132.199 10.6 126.869 10.6ZM126.789 15.2358C129.596 15.2358 130.708 17.3363 130.708 19.7273V21.7829C130.708 24.6794 129.152 26.3547 126.778 26.3547C124.559 26.3547 122.999 24.7876 122.999 21.7829V19.7273C122.999 16.5228 124.855 15.2358 126.789 15.2358ZM138.764 30.5172V1.22421L144.674 0.710261V20.3443L150.538 10.9886H156.779L150.663 20.6783L157.015 30.5172H150.756L144.674 20.9638V30.5172H138.764Z" fill="#2D88FF"/>
</svg>
