<svg width="147" height="41" viewBox="0 0 147 41" fill="none" xmlns="http://www.w3.org/2000/svg">
<g clip-path="url(#clip0_257_12290)">
<path d="M59.0825 23.6022L56.541 14.7629C56.4373 14.4013 56.041 14.4013 55.9371 14.7629L53.396 23.6028C53.378 23.6656 53.372 23.7332 53.3785 23.7996C53.3851 23.8661 53.404 23.9296 53.4337 23.9846C53.4634 24.0396 53.5029 24.0845 53.549 24.1155C53.595 24.1465 53.6462 24.1627 53.6981 24.1627H58.7804C58.8323 24.1627 58.8835 24.1464 58.9296 24.1154C58.9756 24.0843 59.0151 24.0394 59.0448 23.9844C59.0744 23.9293 59.0933 23.8659 59.0999 23.7994C59.1064 23.7329 59.1004 23.6654 59.0823 23.6025M60.2565 28.5707H52.2222C52.1565 28.5707 52.0923 28.5967 52.0384 28.6451C51.9844 28.6936 51.9432 28.7621 51.9203 28.8417L50.3386 34.3418C50.3157 34.4213 50.2745 34.4898 50.2206 34.5383C50.1666 34.5867 50.1025 34.6127 50.0367 34.6127H46.5544C46.5018 34.6127 46.4499 34.596 46.4034 34.5641C46.3569 34.5323 46.3172 34.4862 46.2877 34.43C46.2582 34.3737 46.2399 34.309 46.2343 34.2414C46.2286 34.1739 46.236 34.1056 46.2555 34.0426L54.2729 8.27296C54.2969 8.19598 54.3382 8.13005 54.3915 8.08364C54.4448 8.03723 54.5076 8.01247 54.572 8.01255H57.9063C58.0377 8.01255 58.156 8.1156 58.2052 8.27296L66.2223 34.0423C66.242 34.1054 66.2494 34.1737 66.2438 34.2413C66.2382 34.3089 66.2199 34.3737 66.1904 34.4301C66.1609 34.4864 66.1211 34.5325 66.0746 34.5644C66.028 34.5963 65.9762 34.613 65.9235 34.613H62.4418C62.376 34.6129 62.3118 34.5869 62.2579 34.5384C62.2039 34.49 62.1627 34.4213 62.1399 34.3418L60.5579 28.8417C60.5351 28.7621 60.4939 28.6936 60.4399 28.6451C60.386 28.5967 60.3218 28.5707 60.2561 28.5707M67.8539 17.0564H70.8323C70.9177 17.0564 70.9996 17.1002 71.06 17.1781C71.1204 17.256 71.1543 17.3617 71.1543 17.4719V34.1971C71.1543 34.3074 71.1204 34.413 71.06 34.491C70.9996 34.5689 70.9177 34.6127 70.8323 34.6127H67.8539C67.7685 34.6127 67.6865 34.5689 67.6261 34.491C67.5657 34.413 67.5318 34.3074 67.5318 34.1971V17.4716C67.5318 17.3614 67.5657 17.2557 67.6261 17.1778C67.6865 17.0999 67.7685 17.0561 67.8539 17.0561M82.0167 21.1248C82.0167 21.235 81.9828 21.3407 81.9224 21.4186C81.862 21.4966 81.7801 21.5403 81.6947 21.5403H81.6045C80.1318 21.5403 79.0516 21.9963 78.3646 22.9083C77.6771 23.8203 77.334 25.3278 77.334 27.4305V34.1971C77.334 34.3074 77.3001 34.413 77.2397 34.491C77.1793 34.5689 77.0974 34.6127 77.0119 34.6127H74.0627C73.9773 34.6127 73.8954 34.5689 73.835 34.491C73.7746 34.413 73.7407 34.3074 73.7407 34.1971V17.4716C73.7407 17.3614 73.7746 17.2557 73.835 17.1778C73.8954 17.0999 73.9773 17.0561 74.0627 17.0561H76.9823C77.0677 17.0561 77.1496 17.0999 77.21 17.1778C77.2704 17.2557 77.3044 17.3614 77.3044 17.4716V20.7799H77.3634C77.7168 19.4119 78.2763 18.3612 79.0424 17.6259C79.8078 16.8915 80.7504 16.5239 81.8694 16.5239H82.0167V21.1245V21.1248ZM90.1605 20.9702C90.0751 20.9702 89.9932 21.014 89.9328 21.0919C89.8724 21.1699 89.8385 21.2755 89.8385 21.3858V28.3425C89.8385 29.0519 89.9458 29.5586 90.1622 29.8625C90.378 30.1664 90.7512 30.3185 91.2813 30.3185H91.5778C91.6632 30.3185 91.7451 30.3623 91.8055 30.4402C91.8659 30.5181 91.8999 30.6238 91.8999 30.734V34.2348C91.8999 34.345 91.8659 34.4507 91.8055 34.5287C91.7451 34.6066 91.6632 34.6504 91.5778 34.6504H90.3093C88.9938 34.6504 87.9828 34.2135 87.276 33.3395C86.5689 32.4655 86.2155 31.1676 86.2155 29.4445V21.3858C86.2155 21.2755 86.1816 21.1699 86.1212 21.0919C86.0608 21.014 85.9789 20.9702 85.8935 20.9702H84.0343C83.9489 20.9702 83.867 20.9264 83.8066 20.8485C83.7462 20.7706 83.7123 20.6649 83.7123 20.5547V17.4716C83.7123 17.3614 83.7462 17.2557 83.8066 17.1778C83.867 17.0999 83.9489 17.0561 84.0343 17.0561H85.8937C85.9791 17.0561 86.061 17.0123 86.1214 16.9344C86.1818 16.8565 86.2157 16.7508 86.2157 16.6406V10.4415C86.2157 10.3313 86.2497 10.2256 86.3101 10.1477C86.3705 10.0698 86.4524 10.026 86.5378 10.026H89.5162C89.6016 10.026 89.6835 10.0698 89.7439 10.1477C89.8043 10.2256 89.8383 10.3313 89.8383 10.4415V16.6406C89.8383 16.7508 89.8722 16.8565 89.9326 16.9344C89.993 17.0123 90.0749 17.0561 90.1603 17.0561H92.314C92.3994 17.0561 92.4814 17.0999 92.5418 17.1778C92.6022 17.2557 92.6361 17.3614 92.6361 17.4716V20.5549C92.6361 20.6652 92.6022 20.7709 92.5418 20.8488C92.4814 20.9267 92.3994 20.9705 92.314 20.9705H90.1605V20.9702ZM103.799 29.4065C104.476 28.4945 104.815 27.3039 104.815 25.8343C104.815 24.3655 104.476 23.1742 103.799 22.2623C103.121 21.3503 102.233 20.8943 101.133 20.8943C100.034 20.8943 99.1455 21.3503 98.4679 22.2623C97.7907 23.1742 97.4519 24.3655 97.4519 25.8343C97.4519 27.3039 97.7907 28.4945 98.4679 29.4065C99.1455 30.3185 100.034 30.7745 101.133 30.7745C102.233 30.7745 103.121 30.3185 103.799 29.4065ZM96.9218 34.0805C95.9204 33.3461 95.1299 32.2754 94.551 30.8695C93.9716 29.4636 93.6821 27.7854 93.6821 25.8343C93.6821 23.884 93.9716 22.2052 94.551 20.7993C95.1299 19.3934 95.9204 18.3235 96.9218 17.5883C97.9232 16.8536 99.0225 16.4863 100.22 16.4863C101.281 16.4863 102.189 16.7522 102.945 17.2841C103.7 17.816 104.304 18.5637 104.756 19.5263H104.815V17.4716C104.815 17.3614 104.849 17.2557 104.909 17.1778C104.97 17.0999 105.051 17.0561 105.137 17.0561H108.086C108.171 17.0561 108.253 17.0999 108.314 17.1778C108.374 17.2557 108.408 17.3614 108.408 17.4716V34.1969C108.408 34.3071 108.374 34.4128 108.314 34.4907C108.253 34.5686 108.171 34.6124 108.086 34.6124H105.137C105.051 34.6124 104.97 34.5686 104.909 34.4907C104.849 34.4128 104.815 34.3071 104.815 34.1969V32.1424H104.756C104.304 33.1057 103.7 33.8525 102.945 34.3844C102.189 34.9163 101.281 35.1823 100.22 35.1823C99.0225 35.1823 97.9232 34.8149 96.9218 34.0805ZM120.673 29.4065C121.35 28.4945 121.689 27.3039 121.689 25.8343C121.689 24.3655 121.35 23.1742 120.673 22.2623C119.995 21.3503 119.107 20.8943 118.007 20.8943C116.908 20.8943 116.019 21.3503 115.342 22.2623C114.665 23.1742 114.326 24.3655 114.326 25.8343C114.326 27.3039 114.665 28.4945 115.342 29.4065C116.019 30.3185 116.908 30.7745 118.007 30.7745C119.107 30.7745 119.995 30.3185 120.673 29.4065ZM116.196 34.3844C115.44 33.8525 114.836 33.1057 114.385 32.1424H114.326V34.1969C114.326 34.3071 114.292 34.4128 114.231 34.4907C114.171 34.5686 114.089 34.6124 114.004 34.6124H111.025C110.94 34.6124 110.858 34.5686 110.797 34.4907C110.737 34.4128 110.703 34.3071 110.703 34.1969V8.42726C110.703 8.31705 110.737 8.21136 110.797 8.13343C110.858 8.0555 110.94 8.01172 111.025 8.01172H114.004C114.089 8.01172 114.171 8.0555 114.231 8.13343C114.292 8.21136 114.326 8.31705 114.326 8.42726V19.5261H114.385C114.836 18.5634 115.44 17.816 116.196 17.2841C116.952 16.7519 117.86 16.486 118.92 16.486C120.118 16.486 121.218 16.8533 122.219 17.588C123.22 18.3232 124.01 19.3931 124.59 20.7987C125.169 22.2055 125.459 23.8843 125.459 25.8345C125.459 27.7856 125.169 29.4636 124.59 30.8698C124.011 32.2757 123.221 33.3464 122.219 34.0805C121.218 34.8152 120.118 35.1828 118.921 35.1828C117.86 35.1828 116.952 34.9169 116.196 34.3847M130.477 34.6127H127.499C127.413 34.6127 127.331 34.5689 127.271 34.491C127.21 34.413 127.176 34.3074 127.176 34.1971V8.42809C127.176 8.31788 127.21 8.21219 127.271 8.13426C127.331 8.05633 127.413 8.01255 127.499 8.01255H130.477C130.562 8.01255 130.644 8.05633 130.705 8.13426C130.765 8.21219 130.799 8.31788 130.799 8.42809V34.1971C130.799 34.3074 130.765 34.413 130.705 34.491C130.644 34.5689 130.562 34.6127 130.477 34.6127ZM137.503 21.1226C137.009 21.6196 136.675 22.3371 136.503 23.2756C136.455 23.5344 136.612 23.7826 136.818 23.7826H142.486C142.683 23.7826 142.837 23.5554 142.806 23.305C142.692 22.4171 142.397 21.7093 141.92 21.1796C141.361 20.5591 140.629 20.2488 139.726 20.2488C138.823 20.2488 138.081 20.54 137.503 21.1226ZM144.762 18.9374C145.921 20.5718 146.5 22.8836 146.5 25.8725V26.3689C146.5 26.4791 146.466 26.5848 146.406 26.6627C146.345 26.7407 146.263 26.7845 146.178 26.7845H136.709C136.661 26.7846 136.615 26.798 136.572 26.8237C136.529 26.8495 136.491 26.887 136.461 26.9335C136.431 26.9801 136.409 27.0347 136.396 27.0934C136.384 27.1522 136.382 27.2137 136.39 27.2737C136.541 28.384 136.922 29.2661 137.532 29.9196C138.229 30.6675 139.108 31.0407 140.168 31.0407C141.537 31.0407 142.804 30.3515 143.969 28.9727C144.111 28.8043 144.337 28.84 144.447 29.0447L145.895 31.7263C145.94 31.8098 145.96 31.9118 145.951 32.013C145.942 32.1142 145.905 32.2076 145.846 32.2754C145.135 33.0781 144.345 33.7555 143.496 34.2897C142.553 34.8847 141.444 35.1828 140.168 35.1828C138.695 35.1828 137.409 34.7961 136.31 34.0237C135.21 33.2514 134.356 32.1621 133.748 30.7556C133.139 29.3497 132.834 27.7222 132.834 25.8725C132.834 24.0236 133.129 22.3897 133.718 20.9705C134.307 19.5521 135.132 18.4501 136.192 17.6644C137.252 16.8796 138.489 16.4865 139.903 16.4865C141.983 16.4865 143.604 17.3038 144.762 18.9374ZM71.5434 10.8731C71.5434 12.4406 70.5585 13.7113 69.3435 13.7113C68.1283 13.7113 67.1434 12.4406 67.1434 10.8729C67.1434 9.30516 68.1285 8.03444 69.3435 8.03444C70.5585 8.03444 71.5434 9.30516 71.5434 10.8729" fill="#7D7E83"/>
<path d="M17.4619 0.517147L3.29985 8.07805C2.51231 8.49857 2.52047 9.94216 3.31295 10.3475L17.534 17.6238C18.7835 18.2632 20.175 18.2632 21.4245 17.6238L35.6457 10.3472C36.438 9.94216 36.4466 8.49885 35.6586 8.07832L21.497 0.51687C20.205 -0.172941 18.7536 -0.172941 17.4616 0.51687" fill="#7D7E83"/>
<path d="M20.7412 21.5969V39.7746C20.7412 40.6389 21.4169 41.2312 22.0398 40.9126L37.8863 32.9764C38.0631 32.886 38.2147 32.7292 38.3215 32.5262C38.4283 32.3233 38.4854 32.0837 38.4854 31.8384V13.6609C38.4854 12.7963 37.8097 12.2043 37.1868 12.5229L21.3402 20.4592C21.1635 20.5496 21.012 20.7065 20.9052 20.9094C20.7983 21.1123 20.7412 21.3519 20.7412 21.5972" fill="#7D7E83"/>
<path d="M17.0405 22.5352L12.3376 25.465L11.8601 25.7628L1.93252 31.9004C1.30343 32.2921 0.5 31.7004 0.5 30.7984V13.7374C0.5 13.411 0.629682 13.1293 0.803594 12.9174C0.874941 12.8257 0.955883 12.7474 1.04406 12.6847C1.2811 12.501 1.61948 12.452 1.90718 12.5988L16.9615 20.2952C17.7267 20.6869 17.7868 22.0703 17.0405 22.5355" fill="#7D7E83"/>
<path d="M17.0406 22.5352L12.3377 25.465L0.803711 12.9171C0.875072 12.8255 0.956013 12.7473 1.04418 12.6847C1.28122 12.501 1.61959 12.452 1.9073 12.5988L16.9616 20.2952C17.7268 20.6869 17.7869 22.0703 17.0406 22.5355" fill="#7D7E83"/>
</g>
<defs>
<clipPath id="clip0_257_12290">
<rect width="146" height="41" fill="white" transform="translate(0.5)"/>
</clipPath>
</defs>
</svg>
