<svg width="147" height="41" viewBox="0 0 147 41" fill="none" xmlns="http://www.w3.org/2000/svg">
<g clip-path="url(#clip0_257_12275)">
<path d="M9.8131 40.2661H4.31717V20.4696H0.573242V14.0243H4.31703V9.43803C4.31703 4.00326 5.97291 0.105469 11.454 0.105469C12.6132 0.105469 14.4332 0.443087 14.4332 0.443087V6.42791H12.5216C10.5739 6.42791 9.81339 7.28397 9.81339 9.65067V14.0243H14.3603L13.9554 20.4696H9.81325L9.8131 40.2661ZM22.4237 13.5093C22.3436 13.5093 22.2612 13.5135 22.1796 13.5164C17.0835 13.5164 14.7519 19.0553 14.7519 26.9179C14.7519 36.8226 17.7763 40.7868 22.2195 40.7868C24.7615 40.7868 26.4317 39.2408 27.4469 36.3556V40.2688H32.6743V14.0271H27.4469V18.0627C26.618 15.4663 24.9011 13.54 22.4237 13.5093ZM23.7528 19.7101C25.8932 19.7101 27.1779 21.8673 27.1779 25.5367L27.1829 29.2844C27.1829 31.7575 26.1218 34.6509 23.7528 34.6509C20.1108 34.6509 20.2081 28.9687 20.2081 27.0762C20.2081 20.7101 22.1486 19.7101 23.7528 19.7101ZM34.7854 27.1493C34.7854 23.9605 34.6798 13.5263 44.088 13.5263C47.8646 13.5263 49.4415 15.2614 49.4415 15.2614L48.1741 20.9417C48.1741 20.9417 46.5991 19.6886 44.547 19.6886C41.9185 19.6886 40.2413 21.8903 40.2413 25.7641L40.2443 28.5417C40.2443 32.264 41.8625 34.7487 44.5524 34.7487C46.4219 34.7487 48.145 33.4838 48.145 33.4838L49.4093 39.0454C49.4093 39.0454 47.9674 40.7915 44.1143 40.7915C35.1563 40.7915 34.7855 31.43 34.7855 27.1493H34.7854ZM80.0918 13.5164C85.188 13.5164 87.5564 19.0553 87.5564 26.9179C87.5564 36.8226 84.5319 40.7868 80.0887 40.7868C77.5466 40.7868 75.6674 39.241 74.6523 36.3556V40.2688L69.4906 40.2659V0.903361L74.971 0.21274V17.7072C75.7619 14.6465 78.3613 13.5164 80.0919 13.5164H80.0918ZM78.5553 19.7101C76.4149 19.7101 74.971 21.8673 74.971 25.5367L74.9659 29.2844C74.9626 31.7575 75.9658 34.6509 78.5553 34.6509C82.1973 34.6509 82.1 28.9687 82.1 27.0762C82.1 20.7101 80.1597 19.7101 78.5553 19.7101ZM58.9503 13.5381C53.1701 13.5381 50.1186 18.0918 50.1186 26.1841V27.6876C50.1186 38.1906 54.4039 40.8947 59.5129 40.8947C64.4788 40.8947 66.7266 38.8878 66.7266 38.8878L65.7011 33.5432C65.7011 33.5432 63.057 35.1687 60.17 35.1687C57.1771 35.1687 55.8899 34.0665 55.56 29.9105H67.1647V25.6229C67.1647 16.8448 63.7399 13.5379 58.9502 13.5379L58.9503 13.5381ZM59.0896 18.8899C61.0905 18.8899 62.387 20.6627 62.3158 24.7742H55.57C55.687 20.4469 57.0852 18.8901 59.0896 18.8901V18.8899ZM98.484 13.5021C92.5481 13.5021 89.4232 18.3354 89.4232 26.9969C89.4232 38.881 94.8099 40.794 98.4939 40.794C103.887 40.794 107.475 36.5986 107.475 27.1048C107.475 17.2235 103.441 13.5021 98.484 13.5021ZM98.4093 19.7316C101.019 19.7316 102.054 22.5542 102.054 25.767V28.5293C102.054 32.4214 100.606 34.6726 98.3994 34.6726C96.3352 34.6726 94.8846 32.5668 94.8846 28.5293V25.767C94.8846 21.461 96.6108 19.7316 98.4093 19.7316ZM118.393 13.5021C112.457 13.5021 109.332 18.3354 109.332 26.9969C109.332 38.881 114.719 40.794 118.403 40.794C123.796 40.794 127.384 36.5986 127.384 27.1048C127.384 17.2235 123.349 13.5021 118.393 13.5021ZM118.318 19.7316C120.928 19.7316 121.962 22.5542 121.962 25.767V28.5293C121.962 32.4214 120.515 34.6726 118.308 34.6726C116.244 34.6726 114.793 32.5668 114.793 28.5293V25.767C114.793 21.461 116.52 19.7316 118.318 19.7316ZM129.455 40.2661V0.903361L134.951 0.21274V26.5961L140.404 14.0243H146.208L140.52 27.045L146.427 40.2661H140.606L134.951 27.4285V40.2661H129.455Z" fill="#7D7E83"/>
</g>
<defs>
<clipPath id="clip0_257_12275">
<rect width="146" height="41" fill="white" transform="translate(0.5)"/>
</clipPath>
</defs>
</svg>
