<svg width="146" height="41" viewBox="0 0 146 41" fill="none" xmlns="http://www.w3.org/2000/svg">
<g clip-path="url(#clip0_257_12267)">
<path d="M18.263 14.6295V19.0091H30.0558C29.7427 21.4318 28.8034 23.2955 27.3424 24.5068C25.6726 25.9977 22.9593 27.675 18.263 27.675C11.0622 27.675 5.42673 22.4568 5.42673 16.0273C5.42673 9.59773 10.9578 4.37955 18.263 4.37955C22.1244 4.37955 25.0465 5.77727 27.1337 7.54773L30.5776 4.47273C27.6555 1.95682 23.6898 0 18.263 0C8.34882 0 0 7.175 0 16.0273C0 24.8795 8.34882 32.0545 18.263 32.0545C23.5854 32.0545 27.6555 30.4705 30.7863 27.5818C34.0214 24.6932 35.065 20.5932 35.065 17.3318C35.065 16.3068 34.9607 15.375 34.8563 14.6295H18.263Z" fill="#7D7E83"/>
<path d="M49.6757 10.9956C43.3097 10.9956 37.9873 15.3752 37.9873 21.3388C37.9873 27.3024 43.2053 31.682 49.6757 31.682C56.146 31.682 61.364 27.3956 61.364 21.432C61.364 15.3752 56.146 10.9956 49.6757 10.9956ZM49.6757 27.6752C46.1274 27.6752 43.101 25.0661 43.101 21.432C43.101 17.7047 46.1274 15.1888 49.6757 15.1888C53.2239 15.1888 56.2503 17.7047 56.2503 21.432C56.2503 25.0661 53.2239 27.6752 49.6757 27.6752Z" fill="#7D7E83"/>
<path d="M106.76 13.3252H106.552C105.404 12.1138 103.212 10.9956 100.394 10.9956C94.5503 10.9956 89.541 15.4683 89.541 21.3388C89.541 27.1161 94.5503 31.682 100.394 31.682C103.212 31.682 105.404 30.5638 106.552 29.3524H106.76V30.8433C106.76 34.757 104.36 36.9002 100.603 36.9002C97.4724 36.9002 95.5939 34.9433 94.759 33.1729L90.3759 34.8502C91.6282 37.5524 95.0721 41.0002 100.708 41.0002C106.656 41.0002 111.77 37.832 111.77 30.1911V11.5547H106.969V13.3252H106.76ZM100.916 27.6752C97.368 27.6752 94.759 24.9729 94.759 21.432C94.759 17.7979 97.4724 15.1888 100.916 15.1888C104.36 15.1888 107.074 17.8911 107.074 21.5252C107.178 25.0661 104.465 27.6752 100.916 27.6752Z" fill="#7D7E83"/>
<path d="M75.661 10.9956C69.295 10.9956 63.9727 15.3752 63.9727 21.3388C63.9727 27.3024 69.1907 31.682 75.661 31.682C82.1313 31.682 87.3494 27.3956 87.3494 21.432C87.3494 15.3752 82.1313 10.9956 75.661 10.9956ZM75.661 27.6752C72.1128 27.6752 69.0863 25.0661 69.0863 21.432C69.0863 17.7047 72.1128 15.1888 75.661 15.1888C79.2093 15.1888 82.2357 17.7047 82.2357 21.432C82.2357 25.0661 79.2093 27.6752 75.661 27.6752Z" fill="#7D7E83"/>
<path d="M115.631 0.46582H120.64V31.7749H115.631V0.46582Z" fill="#7D7E83"/>
<path d="M136.086 27.6752C133.477 27.6752 131.703 26.6501 130.451 24.507L146 18.8229L145.478 17.6115C144.539 15.282 141.513 10.9956 135.564 10.9956C129.616 10.9956 124.606 15.1888 124.606 21.3388C124.606 27.1161 129.511 31.682 136.086 31.682C141.408 31.682 144.435 28.7933 145.792 27.1161L141.826 24.7865C140.469 26.557 138.695 27.6752 136.086 27.6752ZM135.773 14.9092C137.86 14.9092 139.634 15.8411 140.156 17.1456L129.72 21.0592C129.616 16.7729 133.164 14.9092 135.773 14.9092Z" fill="#7D7E83"/>
</g>
<defs>
<clipPath id="clip0_257_12267">
<rect width="146" height="41" fill="white"/>
</clipPath>
</defs>
</svg>
