<svg width="146" height="19" viewBox="0 0 146 19" fill="none" xmlns="http://www.w3.org/2000/svg">
<g clip-path="url(#clip0_257_12296)">
<path d="M22.0404 9.59982C22.0404 14.7005 17.1546 18.8357 11.1274 18.8357C5.10029 18.8357 0.214844 14.7018 0.214844 9.59982C0.214844 4.49785 5.10066 0.364258 11.1274 0.364258C17.1542 0.364258 22.0404 4.49909 22.0404 9.59982Z" fill="#7D7E83"/>
<path d="M34.0126 9.59966C34.0126 14.4014 31.5695 18.2936 28.5561 18.2936C25.5427 18.2936 23.0996 14.4001 23.0996 9.59966C23.0996 4.79921 25.5427 0.905762 28.5561 0.905762C31.5695 0.905762 34.0126 4.79921 34.0126 9.59966Z" fill="#7D7E83"/>
<path d="M38.9086 9.59944C38.9086 13.9015 38.0492 17.3888 36.9894 17.3888C35.9296 17.3888 35.0703 13.9003 35.0703 9.59944C35.0703 5.29858 35.9296 1.81006 36.9898 1.81006C38.05 1.81006 38.9086 5.29765 38.9086 9.59944Z" fill="#7D7E83"/>
<path d="M69.0266 1.16501L69.057 1.1594V0.961616H62.8509L57.0884 12.346L51.3258 0.961616H44.638V1.1594L44.668 1.16501C45.8008 1.37993 46.3759 1.70044 46.3759 2.85632V16.3884C46.3759 17.5443 45.7986 17.8648 44.6658 18.0797L44.6357 18.0853V18.2837H49.1732V18.0859L49.1432 18.0803C48.0104 17.8654 47.4353 17.5449 47.4353 16.389V3.64124L54.838 18.2837H55.2578L62.8761 3.2329V16.7232C62.779 17.6361 62.2091 17.918 61.1834 18.1127L61.153 18.1186V18.3148H69.057V18.1186L69.0266 18.1127C67.9998 17.918 67.4162 17.6361 67.3191 16.7232L67.3139 2.85632H67.3191C67.3191 1.70044 67.8942 1.37993 69.0266 1.16501ZM72.637 10.1293C72.7663 7.6979 73.805 5.94304 75.5481 5.91283C76.0858 5.92031 76.5367 6.06857 76.8873 6.35388C77.6321 6.96157 77.9823 8.23145 77.9282 10.1293H72.637ZM72.5588 10.8145H81.8228V10.7818C81.7965 8.92262 81.1558 7.47644 79.9203 6.48345C78.8524 5.62534 77.2712 5.15314 75.6103 5.15314H75.5733C74.7114 5.15314 73.6542 5.32881 72.9019 5.64714C72.0456 5.98042 71.2904 6.47878 70.6619 7.13288C69.6503 8.1866 69.0374 9.61067 68.8884 11.211C68.8836 11.259 68.8795 11.307 68.8754 11.3549C68.8714 11.4029 68.8688 11.4459 68.8662 11.4917C68.861 11.5773 68.8569 11.6633 68.8547 11.7496C68.851 11.8879 68.8499 12.0271 68.8528 12.1673C68.9533 15.7919 71.2826 18.6886 75.4199 18.6886C79.0514 18.6886 81.1661 16.4572 81.6934 13.4621L81.427 13.3833C80.5006 14.993 78.8368 15.9685 76.9432 15.8495C74.3582 15.6869 72.378 13.4839 72.5577 10.8151M92.297 15.7265C91.9931 16.3323 91.3591 16.6656 90.5094 16.6656C89.6597 16.6656 88.883 16.1753 88.3312 15.2845C87.7383 14.3283 87.4263 12.9765 87.4263 11.3752C87.4263 8.04239 88.6596 5.88667 90.5683 5.88667C91.3676 5.88667 91.9968 6.21994 92.297 6.80147V15.7265ZM98.4423 18.1024C97.3095 17.8772 96.7344 17.5418 96.7344 16.327V0.164551L89.852 1.86894V2.07763L89.8943 2.07483C90.8436 2.01035 91.4877 2.12062 91.8616 2.41091C92.1543 2.63829 92.297 2.98714 92.297 3.47803V5.69386C91.6185 5.32975 90.8114 5.15252 89.832 5.15252C87.8458 5.15252 86.0304 5.85552 84.7213 7.13226C83.3565 8.46288 82.635 10.2813 82.635 12.3903C82.6347 16.1569 84.8406 18.6886 88.1237 18.6886C90.0443 18.6886 91.5896 17.804 92.297 16.3121V18.3148H98.4723V18.1074L98.4423 18.1024ZM104.345 2.36263C104.345 1.1865 103.29 0.29942 101.89 0.29942C100.497 0.29942 99.4076 1.20581 99.4076 2.36263C99.4076 3.51945 100.499 4.42585 101.89 4.42585C103.29 4.42585 104.345 3.53876 104.345 2.36263ZM105.969 18.1024C104.837 17.8772 104.262 17.5418 104.262 16.327H104.257V5.19083L98.081 6.68124V6.8837L98.1181 6.8865C99.4543 6.98649 99.82 7.37334 99.82 8.68589V18.3148H106.001V18.1074L105.969 18.1024ZM121.794 18.1024C120.661 17.8772 120.086 17.5418 120.086 16.327V5.19083L114.206 6.63203V6.83511L114.241 6.83822C115.333 6.93478 115.649 7.34375 115.649 8.66222V15.7016C115.285 16.3074 114.602 16.6671 113.774 16.6914C112.431 16.6914 111.692 15.9293 111.692 14.5454V5.19114L105.516 6.68155V6.8837L105.553 6.8865C106.89 6.98617 107.256 7.37303 107.256 8.68589V14.6435C107.252 15.0594 107.296 15.4746 107.384 15.8838L107.495 16.2903C108.018 17.8651 109.388 18.6886 111.534 18.6886C113.352 18.6886 114.946 17.7427 115.648 16.2625V18.3183H121.823V18.1108L121.794 18.1024ZM145.785 18.3148V18.1071L145.755 18.1012C144.526 17.8629 144.047 17.4137 144.047 16.4993V8.92417C144.047 6.56226 142.469 5.15252 139.826 5.15252C137.899 5.15252 136.274 6.0885 135.648 7.54652C135.151 6.0016 133.721 5.15252 131.607 5.15252C129.75 5.15252 128.294 5.97637 127.67 7.36804V5.19176L121.494 6.62112V6.82483L121.531 6.82763C122.851 6.92606 123.233 7.32412 123.233 8.60304V18.3148H128.995V18.1074L128.965 18.1012C127.984 17.9074 127.668 17.5542 127.668 16.6478V7.96514C127.927 7.45588 128.45 6.85255 129.484 6.85255C130.767 6.85255 131.418 7.60009 131.418 9.07275V18.3148H137.182V18.1074L137.151 18.1012C136.171 17.9074 135.854 17.5542 135.854 16.6478V8.92324C135.857 8.63441 135.829 8.34594 135.773 8.06108C136.048 7.50758 136.601 6.85255 137.676 6.85255C138.978 6.85255 139.611 7.5786 139.611 9.07275V18.3148H145.785Z" fill="#7D7E83"/>
</g>
<defs>
<clipPath id="clip0_257_12296">
<rect width="146" height="19" fill="white"/>
</clipPath>
</defs>
</svg>
