<svg width="146" height="41" viewBox="0 0 146 41" fill="none" xmlns="http://www.w3.org/2000/svg">
<g clip-path="url(#clip0_257_12278)">
<path d="M72.7473 33.278C73.0021 32.4409 73.1302 31.0727 73.1302 29.1739V21.1733C73.1302 19.3304 73.0021 17.9835 72.7473 17.1315C72.492 16.28 72.0424 15.8539 71.3989 15.8539C70.7772 15.8539 70.3383 16.28 70.0834 17.1315C69.8282 17.9835 69.7005 19.3304 69.7005 21.1733V29.1739C69.7005 31.0727 69.8224 32.4409 70.067 33.278C70.3107 34.1161 70.7546 34.5345 71.3989 34.5345C72.0424 34.5345 72.492 34.1161 72.7473 33.278ZM67.5864 37.2992C66.6646 36.5182 66.0095 35.3029 65.6217 33.655C65.233 32.0081 65.0391 29.8159 65.0391 27.0793V23.3515C65.0391 20.5872 65.2606 18.367 65.7048 16.6917C66.1487 15.0163 66.842 13.795 67.786 13.0268C68.7293 12.2592 69.9669 11.875 71.4989 11.875C73.0083 11.875 74.2179 12.2662 75.1282 13.0477C76.0381 13.8295 76.7043 15.0516 77.1263 16.7126C77.5475 18.3743 77.7587 20.5872 77.7587 23.3515V27.0793C77.7587 29.8159 77.5532 32.0153 77.1427 33.6764C76.7319 35.3378 76.0657 36.5525 75.1447 37.32C74.2233 38.088 72.9749 38.4722 71.3989 38.4722C69.778 38.4722 68.507 38.0808 67.5864 37.2992Z" fill="#7D7E83"/>
<path d="M138.893 16.3341C138.66 16.697 138.504 17.2906 138.426 18.114C138.348 18.9379 138.31 20.1873 138.31 21.8627V23.7057H141.673V21.8627C141.673 20.2155 141.628 18.966 141.54 18.114C141.451 17.2625 141.29 16.6625 141.057 16.3132C140.824 15.964 140.463 15.7892 139.975 15.7892C139.486 15.7892 139.126 15.9713 138.893 16.3341ZM138.31 27.1404V28.439C138.31 30.0869 138.348 31.3224 138.426 32.1457C138.504 32.9696 138.665 33.5701 138.909 33.9471C139.154 34.3237 139.53 34.5126 140.042 34.5126C140.729 34.5126 141.201 34.1774 141.457 33.507C141.712 32.8369 141.85 31.7201 141.873 30.156L145.835 30.4494C145.858 30.6735 145.869 30.9805 145.869 31.3707C145.869 33.7447 145.353 35.518 144.32 36.6907C143.288 37.8631 141.828 38.4497 139.942 38.4497C137.678 38.4497 136.09 37.5565 135.18 35.7688C134.269 33.9825 133.814 31.2178 133.814 27.4757V22.9936C133.814 19.1402 134.286 16.3275 135.23 14.5536C136.173 12.7806 137.788 11.894 140.075 11.894C141.651 11.894 142.861 12.2571 143.704 12.9829C144.548 13.7095 145.142 14.8404 145.486 16.3757C145.83 17.9117 146.002 20.0342 146.002 22.7424V27.1404H138.31Z" fill="#7D7E83"/>
<path d="M56.3969 26.6596L51.1689 2.91019H55.7308L57.5621 13.675C58.0286 16.3283 58.3724 18.59 58.5943 20.4604H58.7277C58.8829 19.1202 59.2271 16.8726 59.7598 13.717L61.6579 2.91019H66.2197L60.9254 26.6596V38.0532H56.3969V26.6596Z" fill="#7D7E83"/>
<path d="M92.5962 12.3774V38.0532H88.9999L88.6001 34.9119H88.5004C87.5235 37.2852 86.0582 38.4717 84.105 38.4717C82.7508 38.4717 81.752 37.9138 81.1081 36.7965C80.4641 35.6802 80.1426 33.9344 80.1426 31.5609V12.3774H84.7378V31.2257C84.7378 32.3713 84.8378 33.1877 85.0375 33.6758C85.2372 34.1651 85.5702 34.409 86.0363 34.409C86.4361 34.409 86.819 34.2559 87.185 33.948C87.5514 33.641 87.8232 33.2508 88.001 32.7758V12.3774H92.5962Z" fill="#7D7E83"/>
<path d="M116.167 12.3774V38.0532H112.57L112.17 34.9119H112.071C111.093 37.2852 109.628 38.4717 107.675 38.4717C106.321 38.4717 105.322 37.9138 104.678 36.7965C104.034 35.6802 103.713 33.9344 103.713 31.5609V12.3774H108.308V31.2257C108.308 32.3713 108.408 33.1877 108.607 33.6758C108.807 34.1651 109.141 34.409 109.607 34.409C110.006 34.409 110.389 34.2559 110.755 33.948C111.122 33.641 111.393 33.2508 111.571 32.7758V12.3774H116.167Z" fill="#7D7E83"/>
<path d="M105.083 7.56044H100.521V38.0532H96.0257V7.56044H91.4639V2.91096H105.083V7.56044Z" fill="#7D7E83"/>
<path d="M127.162 26.9547C127.162 28.8258 127.101 30.2919 126.979 31.3526C126.857 32.4144 126.651 33.1681 126.363 33.6144C126.074 34.0614 125.685 34.2845 125.198 34.2845C124.82 34.2845 124.47 34.1734 124.149 33.9493C123.826 33.7261 123.566 33.3913 123.366 32.944V18.368C123.521 17.6704 123.788 17.0977 124.165 16.6506C124.543 16.2046 124.953 15.9807 125.397 15.9807C125.863 15.9807 126.224 16.2112 126.479 16.6717C126.734 17.1323 126.912 17.9073 127.012 18.9966C127.112 20.0854 127.162 21.6351 127.162 23.6456V26.9547ZM131.374 16.4815C131.096 14.8624 130.647 13.6897 130.025 12.9631C129.404 12.2376 128.549 11.8744 127.462 11.8744C126.618 11.8744 125.83 12.1747 125.098 12.7747C124.365 13.3753 123.799 14.1643 123.399 15.1415H123.366L123.366 1.61221H118.938V38.0525H122.733L123.2 35.6236H123.299C123.654 36.4889 124.187 37.1731 124.898 37.6758C125.608 38.1783 126.396 38.4297 127.262 38.4297C128.815 38.4297 129.959 37.5289 130.692 35.7281C131.424 33.9267 131.791 31.114 131.791 27.2881V23.2252C131.791 20.3494 131.651 18.1015 131.374 16.4815Z" fill="#7D7E83"/>
<path d="M45.5899 6.40221C45.0545 3.88233 43.4769 1.89751 41.4735 1.22403C37.8421 5.72205e-05 23.2814 5.72205e-05 23.2814 5.72205e-05C23.2814 5.72205e-05 8.72087 5.72205e-05 5.08957 1.22403C3.08632 1.89751 1.50843 3.88233 0.973028 6.40221C0 10.97 0 20.4999 0 20.4999C0 20.4999 0 30.0301 0.973028 34.5977C1.50843 37.1174 3.08632 39.1024 5.08957 39.7757C8.72087 41 23.2814 41 23.2814 41C23.2814 41 37.8421 41 41.4735 39.7757C43.4769 39.1024 45.0545 37.1174 45.5899 34.5977C46.5627 30.0301 46.5627 20.4999 46.5627 20.4999C46.5627 20.4999 46.5627 10.97 45.5899 6.40221Z" fill="#7D7E83"/>
<path d="M18.625 29.2856V11.7142L30.7221 20.5001L18.625 29.2856Z" fill="white"/>
</g>
<defs>
<clipPath id="clip0_257_12278">
<rect width="146" height="41" fill="white"/>
</clipPath>
</defs>
</svg>
