<svg width="36" height="29" viewBox="0 0 36 29" fill="none" xmlns="http://www.w3.org/2000/svg">
<path d="M35.4083 2.90841L28.2654 0.0512623C28.0949 -0.0170874 27.9046 -0.0170874 27.734 0.0512623L20.5912 2.90841C20.4587 2.96147 20.3453 3.05297 20.2653 3.17111C20.1854 3.28924 20.1426 3.42861 20.1426 3.57126V10.9541C20.1463 12.3107 20.4993 13.6434 21.1676 14.8239C21.8359 16.0044 22.797 16.9929 23.9583 17.6941L27.6326 19.8984C27.7435 19.9649 27.8704 20 27.9997 20C28.129 20 28.2559 19.9649 28.3669 19.8984L31.5711 17.9755V25.9756C31.5708 26.2861 31.4472 26.5839 31.2276 26.8035C31.008 27.0231 30.7103 27.1466 30.3997 27.147H2.74258C2.43201 27.1466 2.13427 27.0231 1.91467 26.8035C1.69507 26.5839 1.57153 26.2861 1.57115 25.9756V9.99984H17.9997C18.1892 9.99984 18.3708 9.92458 18.5048 9.79063C18.6388 9.65667 18.714 9.47499 18.714 9.28555C18.714 9.09611 18.6388 8.91443 18.5048 8.78047C18.3708 8.64652 18.1892 8.57126 17.9997 8.57126H1.57115V6.88555C1.57153 6.57498 1.69507 6.27724 1.91467 6.05764C2.13427 5.83804 2.43201 5.7145 2.74258 5.71412H17.9997C18.1892 5.71412 18.3708 5.63886 18.5048 5.50491C18.6388 5.37096 18.714 5.18927 18.714 4.99983C18.714 4.81039 18.6388 4.62871 18.5048 4.49476C18.3708 4.3608 18.1892 4.28555 17.9997 4.28555H2.74258C2.05313 4.28593 1.39203 4.55998 0.904519 5.04749C0.417006 5.535 0.142957 6.1961 0.142578 6.88555V25.9713C0.142957 26.6607 0.417006 27.3218 0.904519 27.8093C1.39203 28.2968 2.05313 28.5709 2.74258 28.5713H30.3997C31.0892 28.5709 31.7503 28.2968 32.2378 27.8093C32.7253 27.3218 32.9993 26.6607 32.9997 25.9713V16.9998C33.8895 16.2621 34.6066 15.3381 35.1002 14.293C35.5939 13.2478 35.8522 12.1071 35.8569 10.9513V3.57126C35.8568 3.42861 35.8141 3.28924 35.7341 3.17111C35.6542 3.05297 35.5407 2.96147 35.4083 2.90841ZM34.4283 10.9541C34.4254 12.0641 34.1365 13.1546 33.5895 14.1205C33.0425 15.0864 32.2559 15.895 31.3054 16.4684L27.9997 18.4527L24.694 16.4684C23.7436 15.895 22.9569 15.0864 22.41 14.1205C21.863 13.1546 21.5741 12.0641 21.5711 10.9541V4.05412L27.9997 1.48269L34.4283 4.05412V10.9541Z" fill="url(#paint0_linear_257_12342)"/>
<path d="M25.6481 8.90251C25.5818 8.8361 25.5031 8.7834 25.4164 8.74742C25.3297 8.71144 25.2368 8.69289 25.1429 8.69282C25.0491 8.69276 24.9561 8.71118 24.8694 8.74703C24.7827 8.78289 24.7038 8.83547 24.6374 8.90179C24.571 8.96811 24.5183 9.04686 24.4823 9.13354C24.4464 9.22023 24.4278 9.31315 24.4277 9.407C24.4277 9.50086 24.4461 9.5938 24.4819 9.68054C24.5178 9.76727 24.5704 9.8461 24.6367 9.91251L26.5424 11.8168C26.6764 11.9507 26.858 12.0259 27.0474 12.0259C27.2368 12.0259 27.4185 11.9507 27.5524 11.8168L31.3624 8.00679C31.4964 7.87267 31.5715 7.69083 31.5714 7.50129C31.5713 7.31174 31.4958 7.13001 31.3617 6.99608C31.2276 6.86214 31.0457 6.78698 30.8562 6.78711C30.6667 6.78724 30.4849 6.86267 30.351 6.99679L27.0467 10.3025L25.6481 8.90251Z" fill="url(#paint1_linear_257_12342)"/>
<path d="M5.143 22.8569C4.95356 22.8569 4.77188 22.9322 4.63792 23.0661C4.50397 23.2001 4.42871 23.3818 4.42871 23.5712C4.42871 23.7607 4.50397 23.9423 4.63792 24.0763C4.77188 24.2103 4.95356 24.2855 5.143 24.2855H10.8573C11.0467 24.2855 11.2284 24.2103 11.3624 24.0763C11.4963 23.9423 11.5716 23.7607 11.5716 23.5712C11.5716 23.3818 11.4963 23.2001 11.3624 23.0661C11.2284 22.9322 11.0467 22.8569 10.8573 22.8569H5.143Z" fill="url(#paint2_linear_257_12342)"/>
<defs>
<linearGradient id="paint0_linear_257_12342" x1="-0.0530095" y1="14.2856" x2="35.6222" y2="14.2856" gradientUnits="userSpaceOnUse">
<stop stop-color="#44BCFF"/>
<stop offset="0.234375" stop-color="#44B0FF"/>
<stop offset="0.489583" stop-color="#FF44EC"/>
<stop offset="0.739583" stop-color="#FF44EC"/>
<stop offset="1" stop-color="#FF675E"/>
</linearGradient>
<linearGradient id="paint1_linear_257_12342" x1="24.3886" y1="9.40652" x2="31.5244" y2="9.40652" gradientUnits="userSpaceOnUse">
<stop stop-color="#44BCFF"/>
<stop offset="0.234375" stop-color="#44B0FF"/>
<stop offset="0.489583" stop-color="#FF44EC"/>
<stop offset="0.739583" stop-color="#FF44EC"/>
<stop offset="1" stop-color="#FF675E"/>
</linearGradient>
<linearGradient id="paint2_linear_257_12342" x1="4.38959" y1="23.5712" x2="11.5246" y2="23.5712" gradientUnits="userSpaceOnUse">
<stop stop-color="#44BCFF"/>
<stop offset="0.234375" stop-color="#44B0FF"/>
<stop offset="0.489583" stop-color="#FF44EC"/>
<stop offset="0.739583" stop-color="#FF44EC"/>
<stop offset="1" stop-color="#FF675E"/>
</linearGradient>
</defs>
</svg>
