<svg width="40" height="36" viewBox="0 0 40 36" fill="none" xmlns="http://www.w3.org/2000/svg">
<path d="M39.5745 34.343H36.3788V13.7712C36.3788 13.5362 36.1883 13.3457 35.9532 13.3457H30.0809C29.8459 13.3457 29.6554 13.5362 29.6554 13.7712V34.3429H27.7008V19.2088C27.7008 18.9737 27.5103 18.7832 27.2753 18.7832H21.403C21.168 18.7832 20.9775 18.9737 20.9775 19.2088V34.3429H19.0229V24.3257C19.0229 24.0907 18.8324 23.9002 18.5974 23.9002H12.7251C12.49 23.9002 12.2995 24.0907 12.2995 24.3257V34.343H10.3447V28.57C10.3447 28.335 10.1542 28.1444 9.91916 28.1444H4.04677C3.81175 28.1444 3.62125 28.335 3.62125 28.57V34.343H0.425525C0.190505 34.343 0 34.5335 0 34.7685C0 35.0035 0.190505 35.194 0.425525 35.194H4.04677H9.91907H12.7248H18.5971H21.4028H27.2751H30.0808H35.9531H39.5744C39.8094 35.194 39.9999 35.0035 39.9999 34.7685C39.9999 34.5335 39.8095 34.343 39.5745 34.343ZM9.49364 34.343H4.4723V28.9955H9.49355V34.343H9.49364ZM18.1717 34.343H13.1504V24.7512H18.1717V34.343ZM26.8497 34.343H21.8284V19.6344H26.8497V34.343ZM35.5277 34.343H30.5065V14.1968H35.5277V34.343Z" fill="url(#paint0_linear_257_12352)"/>
<path d="M32.5592 1.18046C32.5571 1.163 32.5536 1.14597 32.5495 1.12911C32.5488 1.12643 32.5478 1.12384 32.5471 1.12116C32.5408 1.09774 32.5328 1.07492 32.5228 1.05305C32.5221 1.05158 32.5216 1.05003 32.521 1.04864C32.5105 1.0266 32.4977 1.00577 32.4836 0.98589C32.4812 0.982432 32.4789 0.978888 32.4764 0.975517C32.462 0.956501 32.4459 0.938868 32.4286 0.922359C32.4252 0.919161 32.4218 0.916049 32.4183 0.912938C32.4029 0.899281 32.3868 0.886401 32.3693 0.874992C32.3659 0.872744 32.3622 0.870929 32.3585 0.868769C32.357 0.867818 32.3559 0.866521 32.3542 0.865571C32.3522 0.86436 32.35 0.863842 32.3479 0.862632C32.326 0.850012 32.3032 0.839207 32.2797 0.830823C32.2761 0.829527 32.2724 0.828576 32.2687 0.827366C32.245 0.819586 32.2208 0.813449 32.1962 0.809906C32.1943 0.809646 32.1924 0.809646 32.1906 0.809387C32.1669 0.806362 32.143 0.805584 32.119 0.806534C32.116 0.806621 32.113 0.806535 32.1099 0.806707C32.0861 0.808177 32.0623 0.812066 32.0387 0.817685C32.0347 0.818636 32.0308 0.8195 32.0269 0.820537C32.0224 0.821747 32.0177 0.822525 32.0132 0.823822L24.9012 2.97703C24.6763 3.04515 24.5491 3.28267 24.6172 3.50758C24.6852 3.73249 24.9226 3.85955 25.1478 3.79161L31.1869 1.96322C28.9804 5.46536 26.234 8.74674 23.0077 11.7286C20.1906 14.3324 17.0044 16.7156 13.5377 18.8121C8.80856 21.6721 4.4737 23.404 2.84221 23.9203C2.61826 23.9911 2.49396 24.2303 2.56484 24.4543C2.62215 24.6357 2.78975 24.7516 2.9704 24.7516C3.01284 24.7516 3.05606 24.7452 3.09876 24.7317C3.14673 24.7166 7.9633 23.1747 13.9564 19.5534C17.4757 17.427 20.7115 15.0083 23.5738 12.3643C26.8366 9.35041 29.6179 6.03368 31.8587 2.49273C32.1578 5.00077 32.5082 7.97434 32.5225 8.20573C32.5281 8.43574 32.7164 8.62054 32.9479 8.62054C33.1829 8.62054 33.3734 8.43004 33.3734 8.19502C33.3736 7.99535 32.804 3.22303 32.5592 1.18046Z" fill="url(#paint1_linear_257_12352)"/>
<defs>
<linearGradient id="paint0_linear_257_12352" x1="-0.219058" y1="24.2699" x2="39.737" y2="24.2699" gradientUnits="userSpaceOnUse">
<stop stop-color="#44BCFF"/>
<stop offset="0.234375" stop-color="#44B0FF"/>
<stop offset="0.489583" stop-color="#FF44EC"/>
<stop offset="0.739583" stop-color="#FF44EC"/>
<stop offset="1" stop-color="#FF675E"/>
</linearGradient>
<linearGradient id="paint1_linear_257_12352" x1="2.37609" y1="12.7789" x2="33.1708" y2="12.7789" gradientUnits="userSpaceOnUse">
<stop stop-color="#44BCFF"/>
<stop offset="0.234375" stop-color="#44B0FF"/>
<stop offset="0.489583" stop-color="#FF44EC"/>
<stop offset="0.739583" stop-color="#FF44EC"/>
<stop offset="1" stop-color="#FF675E"/>
</linearGradient>
</defs>
</svg>
