<svg width="40" height="30" viewBox="0 0 40 30" fill="none" xmlns="http://www.w3.org/2000/svg">
<path d="M39.6797 6.71186C39.3914 6.27142 38.9429 5.96711 38.4304 5.86301L10.6266 0.0972412C10.1141 -0.00686287 9.57758 0.0892332 9.14515 0.385529C8.70471 0.66581 8.4004 1.11426 8.2963 1.62677L7.78378 4.09324L7.27928 6.54369H1.96997C0.880881 6.54369 0 7.42457 0 8.51366V27.9731C0 29.0622 0.880881 29.9431 1.96997 29.9431H30.3664C31.2553 29.9431 32.04 29.3425 32.2643 28.4776L33.6817 28.7739C33.8098 28.7979 33.9459 28.814 34.0821 28.814C35.019 28.814 35.8198 28.1573 36.012 27.2444L38.4705 15.3925L39.4635 10.5877L39.96 8.18533C40.0641 7.67282 39.968 7.14429 39.6797 6.71186ZM8.52853 5.23037L14.9429 6.54369H8.25626L8.52853 5.23037ZM30.3664 28.9821H1.96997C1.40941 28.9821 0.960961 28.5337 0.960961 27.9731V8.51366C0.952953 7.9611 1.4014 7.51266 1.95395 7.50465H1.96997H30.3664C30.9269 7.50465 31.3754 7.9531 31.3754 8.51366V27.9731C31.3834 28.5257 30.9349 28.9741 30.3824 28.9821C30.3744 28.9821 30.3744 28.9821 30.3664 28.9821ZM32.3363 10.1073L38.3263 11.3405L37.7177 14.2714L32.3363 13.2384V10.1073ZM35.0671 27.0522C34.963 27.5887 34.4424 27.9411 33.8979 27.837C33.8899 27.837 33.8819 27.837 33.8739 27.829L32.3363 27.5167V14.2154L37.5255 15.2084L35.0671 27.0522ZM32.3363 9.13027V8.51366C32.3363 7.42457 31.4555 6.54369 30.3664 6.54369H19.7237L8.72873 4.28543L9.24124 1.81896C9.28929 1.5547 9.44945 1.33047 9.67367 1.18633C9.83383 1.07422 10.026 1.01816 10.2262 1.01816C10.2903 1.01816 10.3624 1.02617 10.4264 1.04219L38.2382 6.79994C38.7828 6.91206 39.1271 7.44859 39.015 7.99314L38.5185 10.3955L32.3363 9.13027Z" fill="url(#paint0_linear_257_12382)"/>
<path d="M5.05326 14.3032H7.36757C7.93614 14.2952 8.39259 13.8388 8.38459 13.2702V13.2622V11.5324C8.39259 10.9639 7.93614 10.4914 7.36757 10.4834H5.05326C4.48469 10.4914 4.02823 10.9639 4.03624 11.5324V13.2622C4.02823 13.8307 4.47668 14.2952 5.05326 14.3032ZM4.9972 11.5324C4.9972 11.4764 5.02923 11.4444 5.05326 11.4444H7.36757C7.39159 11.4444 7.42363 11.4764 7.42363 11.5324V13.2622C7.42363 13.3102 7.39159 13.3423 7.36757 13.3423H5.05326C5.02923 13.3423 4.9972 13.3102 4.9972 13.2622V11.5324Z" fill="url(#paint1_linear_257_12382)"/>
<path d="M2.75488 23.064H4.18832V24.0249H2.75488V23.064Z" fill="url(#paint2_linear_257_12382)"/>
<path d="M5.08496 23.064H6.51839V24.0249H5.08496V23.064Z" fill="url(#paint3_linear_257_12382)"/>
<path d="M7.44727 23.064H8.8807V24.0249H7.44727V23.064Z" fill="url(#paint4_linear_257_12382)"/>
<path d="M9.77734 23.064H11.2108V24.0249H9.77734V23.064Z" fill="url(#paint5_linear_257_12382)"/>
<path d="M12.1484 23.064H13.5819V24.0249H12.1484V23.064Z" fill="url(#paint6_linear_257_12382)"/>
<path d="M25.1211 9.29053H26.0821V10.724H25.1211V9.29053Z" fill="url(#paint7_linear_257_12382)"/>
<path d="M27.0908 9.29053H28.0518V10.724H27.0908V9.29053Z" fill="url(#paint8_linear_257_12382)"/>
<path d="M20.8525 9.29053H21.8135V10.724H20.8525V9.29053Z" fill="url(#paint9_linear_257_12382)"/>
<path d="M22.8232 9.29053H23.7842V10.724H22.8232V9.29053Z" fill="url(#paint10_linear_257_12382)"/>
<path d="M2.75488 26.2114H13.5817V27.1724H2.75488V26.2114Z" fill="url(#paint11_linear_257_12382)"/>
<defs>
<linearGradient id="paint0_linear_257_12382" x1="-0.219062" y1="14.9999" x2="39.7378" y2="14.9999" gradientUnits="userSpaceOnUse">
<stop stop-color="#44BCFF"/>
<stop offset="0.234375" stop-color="#44B0FF"/>
<stop offset="0.489583" stop-color="#FF44EC"/>
<stop offset="0.739583" stop-color="#FF44EC"/>
<stop offset="1" stop-color="#FF675E"/>
</linearGradient>
<linearGradient id="paint1_linear_257_12382" x1="4.01232" y1="12.3933" x2="8.35611" y2="12.3933" gradientUnits="userSpaceOnUse">
<stop stop-color="#44BCFF"/>
<stop offset="0.234375" stop-color="#44B0FF"/>
<stop offset="0.489583" stop-color="#FF44EC"/>
<stop offset="0.739583" stop-color="#FF44EC"/>
<stop offset="1" stop-color="#FF675E"/>
</linearGradient>
<linearGradient id="paint2_linear_257_12382" x1="2.74703" y1="23.5444" x2="4.1789" y2="23.5444" gradientUnits="userSpaceOnUse">
<stop stop-color="#44BCFF"/>
<stop offset="0.234375" stop-color="#44B0FF"/>
<stop offset="0.489583" stop-color="#FF44EC"/>
<stop offset="0.739583" stop-color="#FF44EC"/>
<stop offset="1" stop-color="#FF675E"/>
</linearGradient>
<linearGradient id="paint3_linear_257_12382" x1="5.07711" y1="23.5444" x2="6.50897" y2="23.5444" gradientUnits="userSpaceOnUse">
<stop stop-color="#44BCFF"/>
<stop offset="0.234375" stop-color="#44B0FF"/>
<stop offset="0.489583" stop-color="#FF44EC"/>
<stop offset="0.739583" stop-color="#FF44EC"/>
<stop offset="1" stop-color="#FF675E"/>
</linearGradient>
<linearGradient id="paint4_linear_257_12382" x1="7.43942" y1="23.5444" x2="8.87128" y2="23.5444" gradientUnits="userSpaceOnUse">
<stop stop-color="#44BCFF"/>
<stop offset="0.234375" stop-color="#44B0FF"/>
<stop offset="0.489583" stop-color="#FF44EC"/>
<stop offset="0.739583" stop-color="#FF44EC"/>
<stop offset="1" stop-color="#FF675E"/>
</linearGradient>
<linearGradient id="paint5_linear_257_12382" x1="9.76949" y1="23.5444" x2="11.2014" y2="23.5444" gradientUnits="userSpaceOnUse">
<stop stop-color="#44BCFF"/>
<stop offset="0.234375" stop-color="#44B0FF"/>
<stop offset="0.489583" stop-color="#FF44EC"/>
<stop offset="0.739583" stop-color="#FF44EC"/>
<stop offset="1" stop-color="#FF675E"/>
</linearGradient>
<linearGradient id="paint6_linear_257_12382" x1="12.1406" y1="23.5444" x2="13.5725" y2="23.5444" gradientUnits="userSpaceOnUse">
<stop stop-color="#44BCFF"/>
<stop offset="0.234375" stop-color="#44B0FF"/>
<stop offset="0.489583" stop-color="#FF44EC"/>
<stop offset="0.739583" stop-color="#FF44EC"/>
<stop offset="1" stop-color="#FF675E"/>
</linearGradient>
<linearGradient id="paint7_linear_257_12382" x1="25.1158" y1="10.0072" x2="26.0757" y2="10.0072" gradientUnits="userSpaceOnUse">
<stop stop-color="#44BCFF"/>
<stop offset="0.234375" stop-color="#44B0FF"/>
<stop offset="0.489583" stop-color="#FF44EC"/>
<stop offset="0.739583" stop-color="#FF44EC"/>
<stop offset="1" stop-color="#FF675E"/>
</linearGradient>
<linearGradient id="paint8_linear_257_12382" x1="27.0856" y1="10.0072" x2="28.0455" y2="10.0072" gradientUnits="userSpaceOnUse">
<stop stop-color="#44BCFF"/>
<stop offset="0.234375" stop-color="#44B0FF"/>
<stop offset="0.489583" stop-color="#FF44EC"/>
<stop offset="0.739583" stop-color="#FF44EC"/>
<stop offset="1" stop-color="#FF675E"/>
</linearGradient>
<linearGradient id="paint9_linear_257_12382" x1="20.8473" y1="10.0072" x2="21.8072" y2="10.0072" gradientUnits="userSpaceOnUse">
<stop stop-color="#44BCFF"/>
<stop offset="0.234375" stop-color="#44B0FF"/>
<stop offset="0.489583" stop-color="#FF44EC"/>
<stop offset="0.739583" stop-color="#FF44EC"/>
<stop offset="1" stop-color="#FF675E"/>
</linearGradient>
<linearGradient id="paint10_linear_257_12382" x1="22.818" y1="10.0072" x2="23.7779" y2="10.0072" gradientUnits="userSpaceOnUse">
<stop stop-color="#44BCFF"/>
<stop offset="0.234375" stop-color="#44B0FF"/>
<stop offset="0.489583" stop-color="#FF44EC"/>
<stop offset="0.739583" stop-color="#FF44EC"/>
<stop offset="1" stop-color="#FF675E"/>
</linearGradient>
<linearGradient id="paint11_linear_257_12382" x1="2.69559" y1="26.6919" x2="13.5106" y2="26.6919" gradientUnits="userSpaceOnUse">
<stop stop-color="#44BCFF"/>
<stop offset="0.234375" stop-color="#44B0FF"/>
<stop offset="0.489583" stop-color="#FF44EC"/>
<stop offset="0.739583" stop-color="#FF44EC"/>
<stop offset="1" stop-color="#FF675E"/>
</linearGradient>
</defs>
</svg>
