<svg width="38" height="38" viewBox="0 0 38 38" fill="none" xmlns="http://www.w3.org/2000/svg">
<path d="M37.569 7.30625L30.694 0.43125C30.5748 0.316128 30.416 0.251234 30.2503 0.25H14.6253C14.1284 0.251484 13.6524 0.449504 13.3011 0.800814C12.9498 1.15212 12.7517 1.62818 12.7503 2.125V5.90625C9.38372 6.06404 6.2073 7.51247 3.88064 9.95074C1.55398 12.389 0.255859 15.6298 0.255859 19C0.255859 22.3702 1.55398 25.611 3.88064 28.0493C6.2073 30.4875 9.38372 31.936 12.7503 32.0938V35.875C12.7517 36.3718 12.9498 36.8479 13.3011 37.1992C13.6524 37.5505 14.1284 37.7485 14.6253 37.75H35.8753C36.3721 37.7485 36.8481 37.5505 37.1995 37.1992C37.5508 36.8479 37.7488 36.3718 37.7503 35.875V7.75C37.749 7.5843 37.6841 7.42543 37.569 7.30625ZM30.8753 2.38125L35.619 7.125H31.5003C31.3345 7.125 31.1755 7.05915 31.0583 6.94194C30.9411 6.82473 30.8753 6.66576 30.8753 6.5V2.38125ZM1.50026 19C1.50434 15.9602 2.6726 13.0374 4.76496 10.8323C6.85732 8.62714 9.71484 7.30722 12.7503 7.14375V18.7437L4.56276 26.9312C2.59184 24.7599 1.50007 21.9325 1.50026 19ZM5.44401 27.8125L13.6315 19.625H25.2315C25.1177 21.8645 24.3708 24.0258 23.0777 25.8578C21.7846 27.6898 19.9983 29.1174 17.9263 29.9747C15.8543 30.8321 13.5815 31.084 11.372 30.7013C9.16254 30.3185 7.10695 29.3168 5.44401 27.8125ZM36.5003 35.875C36.5003 36.0408 36.4344 36.1997 36.3172 36.3169C36.2 36.4342 36.041 36.5 35.8753 36.5H14.6253C14.4595 36.5 14.3005 36.4342 14.1833 36.3169C14.0661 36.1997 14.0003 36.0408 14.0003 35.875V32.0938C17.3656 31.9312 20.5398 30.4814 22.8664 28.0444C25.193 25.6073 26.4939 22.3693 26.5003 19C26.5003 18.8342 26.4344 18.6753 26.3172 18.5581C26.2 18.4408 26.041 18.375 25.8753 18.375H14.0003V2.125C14.0003 1.95924 14.0661 1.80027 14.1833 1.68306C14.3005 1.56585 14.4595 1.5 14.6253 1.5H29.6253V6.5C29.6267 6.99682 29.8248 7.47288 30.1761 7.82419C30.5274 8.1755 31.0034 8.37352 31.5003 8.375H36.5003V35.875Z" fill="url(#paint0_linear_257_12366)"/>
<path d="M15.875 3.375C15.7092 3.375 15.5503 3.44085 15.4331 3.55806C15.3158 3.67527 15.25 3.83424 15.25 4V16.5C15.25 16.6658 15.3158 16.8247 15.4331 16.9419C15.5503 17.0592 15.7092 17.125 15.875 17.125H28.375C28.5408 17.125 28.6997 17.0592 28.8169 16.9419C28.9342 16.8247 29 16.6658 29 16.5C28.9962 13.0202 27.6122 9.68402 25.1516 7.22343C22.691 4.76284 19.3548 3.3788 15.875 3.375ZM16.5 15.875V4.64375C19.4277 4.80095 22.194 6.0347 24.2671 8.10787C26.3403 10.181 27.574 12.9473 27.7313 15.875H16.5Z" fill="url(#paint1_linear_257_12366)"/>
<path d="M29.625 24C28.5125 24 27.4249 24.3299 26.4999 24.948C25.5749 25.5661 24.8539 26.4446 24.4282 27.4724C24.0024 28.5002 23.891 29.6312 24.1081 30.7224C24.3251 31.8135 24.8609 32.8158 25.6475 33.6025C26.4342 34.3891 27.4365 34.9249 28.5276 35.1419C29.6188 35.359 30.7498 35.2476 31.7776 34.8218C32.8054 34.3961 33.6839 33.6751 34.302 32.7501C34.9201 31.8251 35.25 30.7375 35.25 29.625C35.2477 28.1339 34.6543 26.7045 33.5999 25.6501C32.5455 24.5957 31.1161 24.0023 29.625 24ZM29.625 34C28.7597 34 27.9138 33.7434 27.1944 33.2627C26.4749 32.7819 25.9142 32.0987 25.583 31.2992C25.2519 30.4998 25.1653 29.6201 25.3341 28.7715C25.5029 27.9228 25.9196 27.1433 26.5314 26.5314C27.1433 25.9196 27.9228 25.5029 28.7715 25.3341C29.6202 25.1653 30.4998 25.2519 31.2992 25.583C32.0987 25.9142 32.7819 26.4749 33.2627 27.1944C33.7434 27.9138 34 28.7597 34 29.625C33.9987 30.7849 33.5373 31.8969 32.7171 32.7171C31.8969 33.5373 30.7849 33.9987 29.625 34Z" fill="url(#paint2_linear_257_12366)"/>
<path d="M28.3755 30.6162L26.9423 29.1831L26.0586 30.0669L27.9336 31.9419C28.0508 32.059 28.2097 32.1248 28.3755 32.1248C28.5412 32.1248 28.7001 32.059 28.8173 31.9419L32.5673 28.1919L31.6836 27.3081L28.3755 30.6162Z" fill="url(#paint3_linear_257_12366)"/>
<path d="M30.25 10.875H35.25V12.125H30.25V10.875Z" fill="url(#paint4_linear_257_12366)"/>
<path d="M30.25 14.625H35.25V15.875H30.25V14.625Z" fill="url(#paint5_linear_257_12366)"/>
<path d="M30.25 18.375H35.25V19.625H30.25V18.375Z" fill="url(#paint6_linear_257_12366)"/>
<defs>
<linearGradient id="paint0_linear_257_12366" x1="0.050523" y1="19" x2="37.5039" y2="19" gradientUnits="userSpaceOnUse">
<stop stop-color="#44BCFF"/>
<stop offset="0.234375" stop-color="#44B0FF"/>
<stop offset="0.489583" stop-color="#FF44EC"/>
<stop offset="0.739583" stop-color="#FF44EC"/>
<stop offset="1" stop-color="#FF675E"/>
</linearGradient>
<linearGradient id="paint1_linear_257_12366" x1="15.1747" y1="10.25" x2="28.9096" y2="10.25" gradientUnits="userSpaceOnUse">
<stop stop-color="#44BCFF"/>
<stop offset="0.234375" stop-color="#44B0FF"/>
<stop offset="0.489583" stop-color="#FF44EC"/>
<stop offset="0.739583" stop-color="#FF44EC"/>
<stop offset="1" stop-color="#FF675E"/>
</linearGradient>
<linearGradient id="paint2_linear_257_12366" x1="23.9384" y1="29.625" x2="35.1761" y2="29.625" gradientUnits="userSpaceOnUse">
<stop stop-color="#44BCFF"/>
<stop offset="0.234375" stop-color="#44B0FF"/>
<stop offset="0.489583" stop-color="#FF44EC"/>
<stop offset="0.739583" stop-color="#FF44EC"/>
<stop offset="1" stop-color="#FF675E"/>
</linearGradient>
<linearGradient id="paint3_linear_257_12366" x1="26.0229" y1="29.7165" x2="32.5246" y2="29.7165" gradientUnits="userSpaceOnUse">
<stop stop-color="#44BCFF"/>
<stop offset="0.234375" stop-color="#44B0FF"/>
<stop offset="0.489583" stop-color="#FF44EC"/>
<stop offset="0.739583" stop-color="#FF44EC"/>
<stop offset="1" stop-color="#FF675E"/>
</linearGradient>
<linearGradient id="paint4_linear_257_12366" x1="30.2226" y1="11.5" x2="35.2171" y2="11.5" gradientUnits="userSpaceOnUse">
<stop stop-color="#44BCFF"/>
<stop offset="0.234375" stop-color="#44B0FF"/>
<stop offset="0.489583" stop-color="#FF44EC"/>
<stop offset="0.739583" stop-color="#FF44EC"/>
<stop offset="1" stop-color="#FF675E"/>
</linearGradient>
<linearGradient id="paint5_linear_257_12366" x1="30.2226" y1="15.25" x2="35.2171" y2="15.25" gradientUnits="userSpaceOnUse">
<stop stop-color="#44BCFF"/>
<stop offset="0.234375" stop-color="#44B0FF"/>
<stop offset="0.489583" stop-color="#FF44EC"/>
<stop offset="0.739583" stop-color="#FF44EC"/>
<stop offset="1" stop-color="#FF675E"/>
</linearGradient>
<linearGradient id="paint6_linear_257_12366" x1="30.2226" y1="19" x2="35.2171" y2="19" gradientUnits="userSpaceOnUse">
<stop stop-color="#44BCFF"/>
<stop offset="0.234375" stop-color="#44B0FF"/>
<stop offset="0.489583" stop-color="#FF44EC"/>
<stop offset="0.739583" stop-color="#FF44EC"/>
<stop offset="1" stop-color="#FF675E"/>
</linearGradient>
</defs>
</svg>
