<svg width="40" height="40" viewBox="0 0 40 40" fill="none" xmlns="http://www.w3.org/2000/svg">
<path d="M13.6191 39.9997C10.9256 39.9996 8.29262 39.2008 6.05311 37.7042C3.8136 36.2077 2.06814 34.0807 1.03747 31.5922C0.00679383 29.1037 -0.262814 26.3654 0.262739 23.7237C0.788292 21.082 2.0854 18.6554 3.99004 16.7508C5.89468 14.8463 8.32131 13.5493 10.9631 13.0238C13.6048 12.4984 16.3431 12.7681 18.8315 13.7989C21.32 14.8297 23.4469 16.5753 24.9434 18.8149C26.4398 21.0544 27.2385 23.6875 27.2385 26.381C27.2343 29.9917 25.7981 33.4534 23.2449 36.0065C20.6916 38.5597 17.2299 39.9957 13.6191 39.9997ZM13.6191 14.4772C11.2646 14.4772 8.963 15.1754 7.00533 16.4835C5.04765 17.7916 3.52184 19.6508 2.62084 21.8261C1.71984 24.0014 1.48413 26.395 1.94352 28.7042C2.4029 31.0135 3.53675 33.1346 5.20166 34.7995C6.86658 36.4643 8.9878 37.598 11.2971 38.0573C13.6063 38.5166 15.9999 38.2807 18.1751 37.3796C20.3504 36.4785 22.2095 34.9526 23.5175 32.9948C24.8255 31.0371 25.5236 28.7355 25.5235 26.381C25.5198 23.2249 24.2644 20.1992 22.0327 17.9675C19.801 15.7359 16.7752 14.4807 13.6191 14.4772Z" fill="url(#paint0_linear_257_12402)"/>
<path d="M28.9331 22.1342C28.7057 22.1342 28.4876 22.0439 28.3267 21.8831C28.1659 21.7223 28.0756 21.5042 28.0756 21.2767C28.0756 21.0493 28.1659 20.8312 28.3267 20.6704C28.4876 20.5096 28.7057 20.4192 28.9331 20.4192C30.7827 20.4192 32.5909 19.8708 34.1288 18.8431C35.6667 17.8155 36.8653 16.3549 37.5732 14.646C38.281 12.9372 38.4661 11.0568 38.1052 9.24268C37.7443 7.42858 36.8536 5.76223 35.5456 4.45437C34.2377 3.14651 32.5713 2.25588 30.7572 1.89511C28.943 1.53434 27.0627 1.71962 25.3538 2.42754C23.645 3.13546 22.1845 4.33421 21.157 5.8722C20.1295 7.41019 19.5811 9.21834 19.5812 11.068C19.5812 11.2954 19.4909 11.5135 19.3301 11.6743C19.1692 11.8351 18.9511 11.9255 18.7237 11.9255C18.4963 11.9255 18.2782 11.8351 18.1174 11.6743C17.9566 11.5135 17.8662 11.2954 17.8662 11.068C17.8661 8.87915 18.515 6.73942 19.731 4.9194C20.947 3.09938 22.6753 1.68081 24.6975 0.843088C26.7197 0.005367 28.9449 -0.213883 31.0917 0.213064C33.2385 0.640011 35.2105 1.69398 36.7583 3.24168C38.3061 4.78939 39.3602 6.76132 39.7873 8.9081C40.2143 11.0549 39.9952 13.2801 39.1576 15.3023C38.32 17.3246 36.9015 19.053 35.0816 20.2691C33.2616 21.4852 31.1219 22.1342 28.9331 22.1342Z" fill="url(#paint1_linear_257_12402)"/>
<path d="M14.8951 34.8954C14.6677 34.8951 14.4498 34.8047 14.2891 34.6439C14.1283 34.4832 14.0379 34.2653 14.0376 34.0379V32.7617C14.0376 32.6506 13.9934 32.5441 13.9149 32.4656C13.8364 32.3871 13.7299 32.3429 13.6188 32.3429H12.3432C12.2881 32.3429 12.2336 32.3536 12.1827 32.3746C12.1319 32.3957 12.0856 32.4265 12.0467 32.4654C12.0077 32.5043 11.9768 32.5505 11.9557 32.6013C11.9347 32.6522 11.9238 32.7067 11.9238 32.7617V34.0379C11.9269 34.1525 11.907 34.2664 11.8653 34.3731C11.8236 34.4798 11.761 34.5771 11.6811 34.6592C11.6012 34.7413 11.5057 34.8065 11.4001 34.8511C11.2946 34.8956 11.1812 34.9186 11.0666 34.9186C10.9521 34.9186 10.8387 34.8956 10.7331 34.8511C10.6276 34.8065 10.5321 34.7413 10.4522 34.6592C10.3722 34.5771 10.3096 34.4798 10.2679 34.3731C10.2262 34.2664 10.2063 34.1525 10.2094 34.0379V32.7617C10.2094 32.6506 10.1653 32.5441 10.0868 32.4656C10.0083 32.3871 9.90175 32.3429 9.79069 32.3429H8.51444C8.39992 32.346 8.28595 32.3262 8.17925 32.2845C8.07254 32.2428 7.97528 32.1801 7.89319 32.1002C7.8111 32.0203 7.74585 31.9248 7.7013 31.8193C7.65674 31.7137 7.63379 31.6003 7.63379 31.4858C7.63379 31.3712 7.65674 31.2578 7.7013 31.1523C7.74585 31.0467 7.8111 30.9512 7.89319 30.8713C7.97528 30.7914 8.07254 30.7287 8.17925 30.6871C8.28595 30.6454 8.39992 30.6255 8.51444 30.6286H9.79069C9.90175 30.6286 10.0083 30.5845 10.0868 30.5059C10.1653 30.4274 10.2094 30.3209 10.2094 30.2098V22.5529C10.2094 22.4419 10.1653 22.3354 10.0868 22.2568C10.0083 22.1783 9.90175 22.1342 9.79069 22.1342H8.51444C8.28701 22.1342 8.06891 22.0439 7.90809 21.883C7.74728 21.7222 7.65694 21.5041 7.65694 21.2767C7.65694 21.0493 7.74728 20.8312 7.90809 20.6704C8.06891 20.5095 8.28701 20.4192 8.51444 20.4192H9.79069C9.84568 20.4192 9.90013 20.4084 9.95094 20.3873C10.0017 20.3663 10.0479 20.3354 10.0868 20.2966C10.1257 20.2577 10.1565 20.2115 10.1776 20.1607C10.1986 20.1099 10.2094 20.0554 10.2094 20.0004V18.7242C10.2155 18.5009 10.3084 18.2887 10.4685 18.1329C10.6286 17.977 10.8432 17.8898 11.0666 17.8898C11.29 17.8898 11.5046 17.977 11.6647 18.1329C11.8248 18.2887 11.9178 18.5009 11.9238 18.7242V19.9998C11.9238 20.0549 11.9347 20.1094 11.9557 20.1602C11.9768 20.2111 12.0077 20.2573 12.0467 20.2961C12.0856 20.335 12.1319 20.3659 12.1827 20.3869C12.2336 20.4079 12.2881 20.4187 12.3432 20.4186H13.6188C13.7299 20.4186 13.8364 20.3745 13.9149 20.2959C13.9934 20.2174 14.0376 20.1109 14.0376 19.9998V18.7242C14.0376 18.4968 14.1279 18.2787 14.2887 18.1179C14.4495 17.957 14.6676 17.8667 14.8951 17.8667C15.1225 17.8667 15.3406 17.957 15.5014 18.1179C15.6622 18.2787 15.7526 18.4968 15.7526 18.7242V20.2361C15.7526 20.3225 15.7793 20.4067 15.8291 20.4774C15.8789 20.548 15.9493 20.6014 16.0307 20.6304C16.4998 20.793 16.9272 21.0572 17.2823 21.4041C17.6375 21.751 17.9116 22.172 18.0852 22.6371C18.2588 23.1023 18.3275 23.6 18.2864 24.0947C18.2453 24.5895 18.0955 25.0691 17.8476 25.4992C17.7935 25.5928 17.7778 25.7037 17.8038 25.8086C17.8298 25.9135 17.8954 26.0042 17.9869 26.0617C18.6097 26.4562 19.0877 27.0422 19.3491 27.7315C19.6105 28.4209 19.6412 29.1764 19.4366 29.8847C19.2319 30.593 18.803 31.2158 18.2142 31.6595C17.6254 32.1032 16.9086 32.3439 16.1713 32.3454C16.0603 32.3454 15.9537 32.3896 15.8752 32.4681C15.7967 32.5466 15.7526 32.6531 15.7526 32.7642V34.0404C15.7516 34.2673 15.6608 34.4846 15.5002 34.6448C15.3395 34.805 15.122 34.8951 14.8951 34.8954ZM12.3432 27.2386C12.2881 27.2385 12.2336 27.2493 12.1827 27.2703C12.1319 27.2913 12.0856 27.3221 12.0467 27.361C12.0077 27.3999 11.9768 27.4461 11.9557 27.4969C11.9347 27.5478 11.9238 27.6023 11.9238 27.6573V30.2098C11.9238 30.2649 11.9347 30.3194 11.9557 30.3702C11.9768 30.4211 12.0077 30.4673 12.0467 30.5061C12.0856 30.545 12.1319 30.5759 12.1827 30.5969C12.2336 30.6179 12.2881 30.6287 12.3432 30.6286H16.1713C18.4144 30.6286 18.4119 27.2386 16.1713 27.2386H12.3432ZM12.3432 22.1342C12.2881 22.1341 12.2336 22.1449 12.1827 22.1659C12.1319 22.1869 12.0856 22.2177 12.0467 22.2566C12.0077 22.2955 11.9768 22.3417 11.9557 22.3926C11.9347 22.4434 11.9238 22.4979 11.9238 22.5529V25.1048C11.9238 25.1599 11.9347 25.2144 11.9557 25.2652C11.9768 25.3161 12.0077 25.3623 12.0467 25.4011C12.0856 25.44 12.1319 25.4709 12.1827 25.4919C12.2336 25.5129 12.2881 25.5237 12.3432 25.5236H14.8951C17.1388 25.5236 17.1357 22.1342 14.8951 22.1342H12.3432Z" fill="url(#paint2_linear_257_12402)"/>
<path d="M28.0765 17.4488C28.0621 17.3863 28.1471 16.9795 27.7821 16.8657C27.2859 16.7158 26.83 16.4556 26.4486 16.1046C26.0672 15.7536 25.7701 15.3209 25.5796 14.8388C25.4993 14.6262 25.5069 14.3903 25.6005 14.1832C25.6942 13.9761 25.8663 13.8147 26.0789 13.7345C26.2916 13.6542 26.5275 13.6618 26.7346 13.7554C26.9417 13.8491 27.1031 14.0212 27.1833 14.2338C27.3323 14.5608 27.576 14.8354 27.8829 15.0222C28.1898 15.209 28.5457 15.2993 28.9046 15.2813C30.5102 15.2813 31.9408 13.172 28.6196 11.8657C24.3321 10.1782 24.9321 6.33695 27.7977 5.32383C28.1683 5.19195 28.059 4.77945 28.0765 4.68758C28.0765 4.46016 28.1668 4.24205 28.3276 4.08123C28.4884 3.92042 28.7065 3.83008 28.9339 3.83008C29.1614 3.83008 29.3795 3.92042 29.5403 4.08123C29.7011 4.24205 29.7915 4.46016 29.7915 4.68758C29.8058 4.75008 29.7208 5.15695 30.0858 5.2707C30.5819 5.42057 31.0378 5.68067 31.4192 6.03156C31.8006 6.38244 32.0977 6.81503 32.2883 7.29695C32.3687 7.50971 32.3613 7.74568 32.2677 7.95297C32.1741 8.16025 32.002 8.32187 31.7893 8.40227C31.5765 8.48266 31.3405 8.47524 31.1332 8.38165C30.926 8.28806 30.7643 8.11596 30.6839 7.9032C30.0952 6.3407 27.239 6.5432 27.239 8.41383C27.239 10.4138 32.3433 10.3263 32.3433 13.7226C32.3376 14.4113 32.1149 15.0806 31.7068 15.6354C31.2986 16.1902 30.726 16.6021 30.0702 16.8126C29.699 16.9438 29.809 17.357 29.7915 17.4488C29.7915 17.6763 29.7011 17.8944 29.5403 18.0552C29.3795 18.216 29.1614 18.3063 28.9339 18.3063C28.7065 18.3063 28.4884 18.216 28.3276 18.0552C28.1668 17.8944 28.0765 17.6763 28.0765 17.4488Z" fill="url(#paint3_linear_257_12402)"/>
<path d="M26.3188 37.6494C33.2288 37.1494 38.6976 30.5488 38.2601 23.2425C38.2528 23.0193 38.3328 22.802 38.4833 22.6369C38.6337 22.4718 38.8426 22.3719 39.0655 22.3585C39.2885 22.3451 39.5079 22.4191 39.677 22.565C39.8462 22.7108 39.9518 22.9169 39.9713 23.1394C40.4713 31.5038 34.4044 38.78 26.4432 39.36C26.2164 39.3765 25.9923 39.3022 25.8202 39.1535C25.6481 39.0047 25.5422 38.7937 25.5257 38.5669C25.5092 38.34 25.5835 38.1159 25.7322 37.9439C25.881 37.7718 26.092 37.6659 26.3188 37.6494Z" fill="url(#paint4_linear_257_12402)"/>
<path d="M0.642546 13.5324C1.02337 9.81732 2.76516 6.37447 5.53255 3.86679C7.05459 2.47365 8.85231 1.41579 10.8093 0.761717C12.7662 0.107645 14.8387 -0.128047 16.8925 0.0699102C17.1155 0.0957569 17.3194 0.207977 17.4605 0.382483C17.6017 0.556989 17.6688 0.779869 17.6474 1.00328C17.6261 1.2267 17.518 1.43284 17.3463 1.57745C17.1747 1.72207 16.9532 1.79363 16.7294 1.77679C13.2408 1.45511 9.76715 2.5308 7.07088 4.76772C4.37461 7.00465 2.67609 10.22 2.34817 13.708C2.32064 13.9307 2.20691 14.1338 2.03138 14.2736C1.85586 14.4134 1.63253 14.4788 1.40932 14.4558C1.18611 14.4328 0.980796 14.3233 0.837444 14.1506C0.694092 13.978 0.624121 13.756 0.642546 13.5324Z" fill="url(#paint5_linear_257_12402)"/>
<defs>
<linearGradient id="paint0_linear_257_12402" x1="-0.148188" y1="26.381" x2="27.0595" y2="26.381" gradientUnits="userSpaceOnUse">
<stop stop-color="#44BCFF"/>
<stop offset="0.234375" stop-color="#44B0FF"/>
<stop offset="0.489583" stop-color="#FF44EC"/>
<stop offset="0.739583" stop-color="#FF44EC"/>
<stop offset="1" stop-color="#FF675E"/>
</linearGradient>
<linearGradient id="paint1_linear_257_12402" x1="17.745" y1="11.0674" x2="39.8545" y2="11.0674" gradientUnits="userSpaceOnUse">
<stop stop-color="#44BCFF"/>
<stop offset="0.234375" stop-color="#44B0FF"/>
<stop offset="0.489583" stop-color="#FF44EC"/>
<stop offset="0.739583" stop-color="#FF44EC"/>
<stop offset="1" stop-color="#FF675E"/>
</linearGradient>
<linearGradient id="paint2_linear_257_12402" x1="7.56842" y1="26.3926" x2="19.492" y2="26.3926" gradientUnits="userSpaceOnUse">
<stop stop-color="#44BCFF"/>
<stop offset="0.234375" stop-color="#44B0FF"/>
<stop offset="0.489583" stop-color="#FF44EC"/>
<stop offset="0.739583" stop-color="#FF44EC"/>
<stop offset="1" stop-color="#FF675E"/>
</linearGradient>
<linearGradient id="paint3_linear_257_12402" x1="25.4871" y1="11.0682" x2="32.2989" y2="11.0682" gradientUnits="userSpaceOnUse">
<stop stop-color="#44BCFF"/>
<stop offset="0.234375" stop-color="#44B0FF"/>
<stop offset="0.489583" stop-color="#FF44EC"/>
<stop offset="0.739583" stop-color="#FF44EC"/>
<stop offset="1" stop-color="#FF675E"/>
</linearGradient>
<linearGradient id="paint4_linear_257_12402" x1="25.4442" y1="30.8596" x2="39.905" y2="30.8596" gradientUnits="userSpaceOnUse">
<stop stop-color="#44BCFF"/>
<stop offset="0.234375" stop-color="#44B0FF"/>
<stop offset="0.489583" stop-color="#FF44EC"/>
<stop offset="0.739583" stop-color="#FF44EC"/>
<stop offset="1" stop-color="#FF675E"/>
</linearGradient>
<linearGradient id="paint5_linear_257_12402" x1="0.546485" y1="7.23114" x2="17.5395" y2="7.23114" gradientUnits="userSpaceOnUse">
<stop stop-color="#44BCFF"/>
<stop offset="0.234375" stop-color="#44B0FF"/>
<stop offset="0.489583" stop-color="#FF44EC"/>
<stop offset="0.739583" stop-color="#FF44EC"/>
<stop offset="1" stop-color="#FF675E"/>
</linearGradient>
</defs>
</svg>
