<svg width="26" height="36" viewBox="0 0 26 36" fill="none" xmlns="http://www.w3.org/2000/svg">
<path d="M1.34684 13.2692C-1.39125 18.3974 0.434139 26.1922 3.35477 31.1153C4.81509 33.5769 6.2754 35.6281 8.28334 35.6281C8.28334 35.6281 8.28335 35.6281 8.46589 35.6281C9.37859 35.6281 10.1087 35.2179 10.8389 35.0128C11.5691 34.6025 12.2992 34.1922 13.577 34.1922C14.6722 34.1922 15.4024 34.6025 16.1326 34.8076C16.8627 35.2179 17.5929 35.423 18.6881 35.423C21.0611 35.423 22.3389 33.1666 23.6167 31.1153C24.8945 29.064 25.6246 27.0128 25.8072 26.1922C25.8072 25.9871 25.8071 25.9871 25.6246 25.782C25.2595 25.5769 21.6087 23.9358 21.6087 19.0128C21.6087 15.1153 24.3468 13.064 24.7119 12.6538L24.8945 12.4487V12.2435C23.0691 9.16661 20.1484 8.75635 19.0532 8.75635C18.8706 8.75635 18.6881 8.75635 18.5056 8.75635C17.2278 8.75635 15.95 9.37173 14.8548 9.78199C14.1246 10.1922 13.577 10.3974 13.0294 10.3974C12.4818 10.3974 11.9341 10.1922 11.204 9.78199C10.2913 9.37173 9.19604 8.96148 7.91827 8.96148C5.36271 8.96148 2.80716 10.6025 1.34684 13.2692Z" fill="#0066FF"/>
<path d="M19.0527 0.346191C17.4099 0.346191 15.402 1.57696 14.3067 3.01286C13.394 4.24363 12.2988 6.50004 12.6639 8.55132C12.6639 8.75645 12.8464 8.75645 12.8464 8.75645C13.0289 8.75645 13.0289 8.75645 13.2115 8.75645C14.8543 8.75645 16.4972 7.73081 17.5924 6.08978C18.8702 4.44876 19.4178 2.19235 19.2353 0.346191C19.2353 0.55132 19.0527 0.346191 19.0527 0.346191Z" fill="#0066FF"/>
</svg>
