<svg width="27" height="36" viewBox="0 0 27 36" fill="none" xmlns="http://www.w3.org/2000/svg">
<path d="M2.34391 13.0061C-0.394184 18.1343 1.43121 25.9292 4.35184 30.8523C5.81216 33.3138 7.27247 35.3651 9.28041 35.3651C9.28041 35.3651 9.28042 35.3651 9.46296 35.3651C10.3757 35.3651 11.1058 34.9548 11.836 34.7497C12.5661 34.3394 13.2963 33.9292 14.5741 33.9292C15.6693 33.9292 16.3995 34.3394 17.1296 34.5446C17.8598 34.9548 18.5899 35.16 19.6852 35.16C22.0582 35.16 23.336 32.9035 24.6137 30.8523C25.8915 28.801 26.6217 26.7497 26.8042 25.9292C26.8042 25.7241 26.8042 25.7241 26.6217 25.5189C26.2566 25.3138 22.6058 23.6728 22.6058 18.7497C22.6058 14.8523 25.3439 12.801 25.709 12.3907L25.8915 12.1856V11.9805C24.0661 8.90354 21.1455 8.49329 20.0503 8.49329C19.8677 8.49329 19.6852 8.49329 19.5026 8.49329C18.2249 8.49329 16.9471 9.10867 15.8518 9.51893C15.1217 9.92918 14.5741 10.1343 14.0265 10.1343C13.4788 10.1343 12.9312 9.92918 12.2011 9.51893C11.2884 9.10867 10.1931 8.69842 8.91534 8.69842C6.35978 8.69842 3.80423 10.3394 2.34391 13.0061Z" fill="#F9F9FA"/>
<path d="M20.0498 0.0830078C18.407 0.0830078 16.399 1.31378 15.3038 2.74967C14.3911 3.98044 13.2958 6.23685 13.6609 8.28814C13.6609 8.49327 13.8435 8.49326 13.8435 8.49326C14.026 8.49326 14.026 8.49326 14.2085 8.49326C15.8514 8.49326 17.4943 7.46762 18.5895 5.8266C19.8673 4.18557 20.4149 1.92916 20.2323 0.0830078C20.2323 0.288136 20.0498 0.0830078 20.0498 0.0830078Z" fill="#F9F9FA"/>
</svg>
