<svg width="135" height="37" viewBox="0 0 135 37" fill="none" xmlns="http://www.w3.org/2000/svg">
<path d="M1.34684 13.2692C-1.39125 18.3974 0.434139 26.1922 3.35477 31.1153C4.81509 33.5769 6.2754 35.6281 8.28334 35.6281C8.28334 35.6281 8.28335 35.6281 8.46589 35.6281C9.37859 35.6281 10.1087 35.2179 10.8389 35.0128C11.5691 34.6025 12.2992 34.1922 13.577 34.1922C14.6722 34.1922 15.4024 34.6025 16.1326 34.8076C16.8627 35.2179 17.5929 35.423 18.6881 35.423C21.0611 35.423 22.3389 33.1666 23.6167 31.1153C24.8945 29.064 25.6246 27.0128 25.8072 26.1922C25.8072 25.9871 25.8071 25.9871 25.6246 25.782C25.2595 25.5769 21.6087 23.9358 21.6087 19.0128C21.6087 15.1153 24.3468 13.064 24.7119 12.6538L24.8945 12.4487V12.2435C23.0691 9.16661 20.1484 8.75635 19.0532 8.75635C18.8706 8.75635 18.6881 8.75635 18.5056 8.75635C17.2278 8.75635 15.95 9.37173 14.8548 9.78199C14.1246 10.1922 13.577 10.3974 13.0294 10.3974C12.4818 10.3974 11.9341 10.1922 11.204 9.78199C10.2913 9.37173 9.19604 8.96148 7.91827 8.96148C5.36271 8.96148 2.80716 10.6025 1.34684 13.2692Z" fill="#0066FF"/>
<path d="M19.0527 0.346191C17.4099 0.346191 15.402 1.57696 14.3067 3.01286C13.394 4.24363 12.2988 6.50004 12.6639 8.55132C12.6639 8.75645 12.8464 8.75645 12.8464 8.75645C13.0289 8.75645 13.0289 8.75645 13.2115 8.75645C14.8543 8.75645 16.4972 7.73081 17.5924 6.08978C18.8702 4.44876 19.4178 2.19235 19.2353 0.346191C19.2353 0.55132 19.0527 0.346191 19.0527 0.346191Z" fill="#0066FF"/>
<path d="M39.998 0.756592H43.1012C43.8314 0.756592 44.5615 0.961719 45.2917 1.37198C45.8393 1.78223 46.3869 2.19249 46.752 3.013C47.1171 3.62839 47.2996 4.4489 47.2996 5.26941C47.2996 6.08993 47.1171 6.91044 46.752 7.52582C46.3869 8.14121 45.8393 8.75659 45.2917 9.16685C44.7441 9.5771 44.0139 9.78223 43.1012 9.78223H39.998V0.756592ZM42.9187 8.96172C43.6488 8.96172 44.1964 8.75659 44.7441 8.55146C45.2917 8.14121 45.6568 7.73095 46.0219 7.11557C46.3869 6.50018 46.3869 5.8848 46.3869 5.06428C46.3869 4.24377 46.2044 3.62839 46.0219 3.013C45.6568 2.39762 45.2917 1.98736 44.7441 1.5771C44.1964 1.16685 43.6488 1.16685 42.9187 1.16685H40.5457V8.75659H42.9187V8.96172Z" fill="#0066FF"/>
<path d="M49.6732 9.16678C49.3081 8.96166 48.943 8.5514 48.578 7.93602C48.3954 7.52576 48.2129 6.91038 48.2129 6.29499C48.2129 5.67961 48.3954 5.06422 48.578 4.65396C48.7605 4.24371 49.1256 3.83345 49.6732 3.4232C50.0383 3.21807 50.5859 3.01294 51.1335 3.01294C51.6811 3.01294 52.2288 3.21807 52.5938 3.4232C52.9589 3.62832 53.324 4.03858 53.6891 4.65396C53.8716 5.06422 54.0542 5.67961 54.0542 6.29499C54.0542 6.91038 53.8716 7.52576 53.6891 7.93602C53.5065 8.34627 53.1415 8.75653 52.5938 9.16678C52.2288 9.37191 51.6811 9.57704 51.1335 9.57704C50.5859 9.57704 50.2208 9.57704 49.6732 9.16678ZM52.4113 8.75653C52.7764 8.5514 52.9589 8.14114 53.324 7.73089C53.5065 7.32063 53.6891 6.91038 53.6891 6.29499C53.6891 5.67961 53.5065 5.26935 53.324 4.85909C53.1415 4.44884 52.7764 4.03858 52.4113 3.83345C52.0462 3.62832 51.6811 3.4232 51.1335 3.4232C50.7684 3.4232 50.2208 3.62832 49.8557 3.83345C49.4907 4.03858 49.3081 4.44884 48.943 4.85909C48.7605 5.26935 48.578 5.67961 48.578 6.29499C48.578 6.91038 48.7605 7.32063 48.943 7.73089C49.1256 8.14114 49.4907 8.5514 49.8557 8.75653C50.2208 8.96166 50.5859 9.16678 51.1335 9.16678C51.6811 9.16678 52.0462 8.96166 52.4113 8.75653Z" fill="#0066FF"/>
<path d="M63.9111 3.01294L61.7206 9.57704H61.173L59.1651 3.83345L57.1571 9.57704H56.792L54.6016 3.01294H55.1492L57.1571 8.75653L59.1651 3.01294H59.7127L61.7206 8.75653L63.7285 3.01294H63.9111Z" fill="#0066FF"/>
<path d="M69.7519 3.83345C70.117 4.24371 70.2995 5.06422 70.2995 5.88473V9.78217H69.7519V5.88473C69.7519 5.06422 69.5694 4.65396 69.2043 4.24371C68.8392 3.83345 68.4741 3.62832 67.744 3.62832C67.0138 3.62832 66.4662 3.83345 66.1011 4.24371C65.736 4.65396 65.5535 5.26935 65.5535 6.08986V9.57704H65.0059V3.01294H65.5535V4.44884C65.736 4.03858 66.1011 3.62832 66.4662 3.4232C66.8313 3.21807 67.3789 3.01294 67.9265 3.01294C68.8392 3.01294 69.3868 3.21807 69.7519 3.83345Z" fill="#0066FF"/>
<path d="M72.6729 0.346191H73.2205V9.57696H72.6729V0.346191Z" fill="#0066FF"/>
<path d="M76.3236 9.16678C75.9585 8.96166 75.5935 8.5514 75.2284 7.93602C75.0458 7.52576 74.8633 6.91038 74.8633 6.29499C74.8633 5.67961 75.0458 5.06422 75.2284 4.65396C75.4109 4.24371 75.776 3.83345 76.3236 3.4232C76.6887 3.21807 77.2363 3.01294 77.7839 3.01294C78.3315 3.01294 78.8792 3.21807 79.2443 3.4232C79.6093 3.62832 79.9744 4.03858 80.3395 4.65396C80.522 5.06422 80.7046 5.67961 80.7046 6.29499C80.7046 6.91038 80.522 7.52576 80.3395 7.93602C80.1569 8.34627 79.7919 8.75653 79.2443 9.16678C78.8792 9.37191 78.3315 9.57704 77.7839 9.57704C77.2363 9.57704 76.8712 9.57704 76.3236 9.16678ZM79.0617 8.75653C79.4268 8.5514 79.6093 8.14114 79.9744 7.73089C80.1569 7.32063 80.3395 6.91038 80.3395 6.29499C80.3395 5.67961 80.1569 5.26935 79.9744 4.85909C79.7919 4.44884 79.4268 4.03858 79.0617 3.83345C78.6966 3.62832 78.3315 3.4232 77.7839 3.4232C77.2363 3.4232 76.8712 3.62832 76.5062 3.83345C76.1411 4.03858 75.9585 4.44884 75.5935 4.85909C75.4109 5.26935 75.2284 5.67961 75.2284 6.29499C75.2284 6.91038 75.4109 7.32063 75.5935 7.73089C75.776 8.14114 76.1411 8.5514 76.5062 8.75653C76.8712 8.96166 77.2363 9.16678 77.7839 9.16678C78.3315 9.16678 78.6966 8.96166 79.0617 8.75653Z" fill="#0066FF"/>
<path d="M85.9983 3.62842C86.3634 4.03868 86.5459 4.65407 86.5459 5.47458V9.57714H85.9983V8.34637C85.8157 8.75663 85.6332 8.96176 85.2681 9.16689C84.9031 9.37201 84.538 9.57714 83.9903 9.57714C83.2602 9.57714 82.8951 9.37201 82.53 9.16689C82.165 8.75663 81.9824 8.34637 81.9824 7.73099C81.9824 7.1156 82.165 6.70535 82.53 6.50022C82.8951 6.08996 83.4427 6.08996 84.1729 6.08996H86.1808V5.47458C86.1808 4.85919 85.9983 4.44894 85.8157 4.03868C85.4507 3.62842 85.0856 3.62842 84.538 3.62842C84.1729 3.62842 83.8078 3.62843 83.4427 3.83355C83.0777 4.03868 82.7126 4.24381 82.53 4.44894L82.1649 4.03868C82.53 3.83355 82.7126 3.4233 83.2602 3.4233C83.6253 3.21817 84.1729 3.21817 84.538 3.21817C85.0856 3.01304 85.6332 3.21817 85.9983 3.62842ZM85.2681 8.75663C85.6332 8.5515 85.8157 8.14125 85.9983 7.73099V6.50022H83.9903C83.4427 6.50022 83.0776 6.70535 82.7126 6.91048C82.53 7.1156 82.3475 7.52586 82.3475 7.93612C82.3475 8.34637 82.53 8.75663 82.7126 8.96176C83.0776 9.16689 83.4427 9.37201 83.8078 9.37201C84.538 9.16689 84.9031 8.96176 85.2681 8.75663Z" fill="#0066FF"/>
<path d="M94.0297 0.346191V9.57696H93.4821V8.14106C93.2996 8.55132 92.9345 8.96158 92.5694 9.37183C92.2044 9.57696 91.6567 9.78209 91.1091 9.78209C90.5615 9.78209 90.0139 9.57696 89.6488 9.37183C89.2837 9.1667 88.9186 8.75645 88.5536 8.14106C88.371 7.73081 88.1885 7.11542 88.1885 6.50004C88.1885 5.88465 88.371 5.26927 88.5536 4.85901C88.7361 4.44876 89.1012 4.0385 89.6488 3.62824C90.0139 3.42311 90.5615 3.21799 91.1091 3.21799C91.6567 3.21799 92.0218 3.42311 92.5694 3.62824C92.9345 3.83337 93.2996 4.24363 93.4821 4.85901V0.346191H94.0297ZM92.3869 8.75645C92.752 8.55132 92.9345 8.14106 93.2996 7.73081C93.4821 7.32055 93.6647 6.91029 93.6647 6.29491C93.6647 5.67952 93.4821 5.26927 93.2996 4.85901C93.1171 4.44876 92.752 4.0385 92.3869 3.83337C92.0218 3.62824 91.6567 3.42311 91.1091 3.42311C90.744 3.42311 90.1964 3.62824 89.8314 3.83337C89.4663 4.0385 89.2837 4.44876 88.9187 4.85901C88.7361 5.26927 88.5536 5.67952 88.5536 6.29491C88.5536 6.91029 88.7361 7.32055 88.9187 7.73081C89.1012 8.14106 89.4663 8.55132 89.8314 8.75645C90.1964 8.96158 90.5615 9.1667 91.1091 9.1667C91.6567 9.1667 92.0218 8.96158 92.3869 8.75645Z" fill="#0066FF"/>
<path d="M100.054 9.16678C99.689 8.96166 99.3239 8.5514 98.9589 7.93602C98.7763 7.52576 98.5938 6.91038 98.5938 6.29499C98.5938 5.67961 98.7763 5.06422 98.9589 4.65396C99.1414 4.24371 99.5065 3.83345 100.054 3.4232C100.419 3.21807 100.967 3.01294 101.514 3.01294C102.062 3.01294 102.61 3.21807 102.975 3.4232C103.34 3.62832 103.705 4.03858 104.07 4.65396C104.252 5.06422 104.435 5.67961 104.435 6.29499C104.435 6.91038 104.252 7.52576 104.07 7.93602C103.887 8.34627 103.522 8.75653 102.975 9.16678C102.61 9.37191 102.062 9.57704 101.514 9.57704C100.967 9.57704 100.419 9.57704 100.054 9.16678ZM102.61 8.75653C102.975 8.5514 103.157 8.14114 103.522 7.73089C103.705 7.32063 103.887 6.91038 103.887 6.29499C103.887 5.67961 103.705 5.26935 103.522 4.85909C103.34 4.44884 102.975 4.03858 102.61 3.83345C102.245 3.62832 101.879 3.4232 101.332 3.4232C100.784 3.4232 100.419 3.62832 100.054 3.83345C99.689 4.03858 99.5065 4.44884 99.1414 4.85909C98.9588 5.26935 98.7763 5.67961 98.7763 6.29499C98.7763 6.91038 98.9588 7.32063 99.1414 7.73089C99.3239 8.14114 99.689 8.5514 100.054 8.75653C100.419 8.96166 100.784 9.16678 101.332 9.16678C101.879 9.16678 102.245 8.96166 102.61 8.75653Z" fill="#0066FF"/>
<path d="M110.641 3.83345C111.006 4.24371 111.188 5.06422 111.188 5.88473V9.78217H110.641V5.88473C110.641 5.06422 110.458 4.65396 110.093 4.24371C109.728 3.83345 109.363 3.62832 108.633 3.62832C107.903 3.62832 107.355 3.83345 106.99 4.24371C106.625 4.65396 106.442 5.26935 106.442 6.08986V9.57704H106.077V3.01294H106.625V4.44884C106.807 4.03858 107.172 3.62832 107.537 3.4232C107.903 3.21807 108.45 3.01294 108.998 3.01294C109.728 3.01294 110.276 3.21807 110.641 3.83345Z" fill="#0066FF"/>
<path d="M119.22 9.16665C119.037 9.37178 118.855 9.37178 118.672 9.57691C118.49 9.57691 118.307 9.78203 117.942 9.78203C117.395 9.78203 117.03 9.57691 116.847 9.37178C116.664 8.96152 116.482 8.55126 116.482 8.14101V3.62819H115.387V3.0128H116.482V1.5769H117.03V3.0128H118.855V3.62819H117.03V7.73075C117.03 8.14101 117.03 8.55126 117.212 8.75639C117.395 8.96152 117.577 9.16665 117.942 9.16665C118.307 9.16665 118.672 8.96152 118.855 8.75639L119.22 9.16665Z" fill="#0066FF"/>
<path d="M125.427 3.83337C125.792 4.24363 125.974 5.06414 125.974 5.88465V9.78209H125.427V5.88465C125.427 5.06414 125.244 4.65388 124.879 4.24363C124.514 3.83337 124.149 3.62824 123.419 3.62824C122.689 3.62824 122.141 3.83337 121.776 4.24363C121.411 4.65388 121.228 5.26927 121.228 6.08978V9.57696H120.681V0.346191H121.228V4.44876C121.411 4.0385 121.776 3.62824 122.141 3.42311C122.506 3.21799 123.054 3.01286 123.601 3.01286C124.331 3.01286 124.879 3.21799 125.427 3.83337Z" fill="#0066FF"/>
<path d="M133.276 6.50007H128.347C128.347 6.91033 128.53 7.52571 128.713 7.93597C128.895 8.34622 129.26 8.55135 129.625 8.75648C129.99 8.96161 130.355 9.16674 130.903 9.16674C131.268 9.16674 131.633 9.16674 131.998 8.96161C132.363 8.75648 132.546 8.55135 132.728 8.34622L133.094 8.75648C132.911 9.16674 132.546 9.37186 132.181 9.57699C131.816 9.78212 131.451 9.78212 130.903 9.78212C130.355 9.78212 129.808 9.57699 129.443 9.37186C129.078 9.16674 128.713 8.75648 128.347 8.14109C128.165 7.73084 127.982 7.11545 127.982 6.50007C127.982 5.88469 128.165 5.2693 128.347 4.85904C128.53 4.44879 128.895 4.03853 129.26 3.62827C129.625 3.42315 130.173 3.21802 130.721 3.21802C131.268 3.21802 131.633 3.42315 132.181 3.62827C132.546 3.8334 132.911 4.24366 133.094 4.85904C133.094 5.06417 133.276 5.67956 133.276 6.50007ZM129.26 3.8334C128.895 4.03853 128.713 4.24366 128.53 4.65391C128.348 5.06417 128.165 5.47443 128.165 5.88468H132.546C132.546 5.47443 132.363 5.06417 132.181 4.65391C131.998 4.24366 131.633 4.03853 131.451 3.8334C131.086 3.62827 130.721 3.42315 130.355 3.42315C129.99 3.62827 129.625 3.62827 129.26 3.8334Z" fill="#0066FF"/>
<path d="M48.2124 28.859H41.6409L40.3632 32.3462H37.8076L43.8314 17.3718H46.2044L52.2283 32.3462H49.4902L48.2124 28.859ZM47.2997 26.6026L44.7441 20.0385L42.1886 26.6026H47.2997Z" fill="#0066FF"/>
<path d="M61.7201 21.4743C62.4503 21.8845 63.1805 22.705 63.5455 23.5256C63.9106 24.3461 64.2757 25.3717 64.2757 26.6025C64.2757 27.8332 64.0932 28.8589 63.5455 29.6794C63.1805 30.4999 62.4503 31.3204 61.7201 31.7307C60.99 32.1409 60.0773 32.5512 59.1646 32.5512C57.8868 32.5512 56.7916 32.1409 55.8789 31.1153V36.6538H53.5059V21.064H55.6963V22.4999C56.0614 21.8845 56.609 21.4743 57.1567 21.2691C57.7043 21.064 58.4344 20.8589 58.982 20.8589C60.0773 20.8589 60.99 21.064 61.7201 21.4743ZM60.99 29.2691C61.5376 28.6538 61.9027 27.8332 61.9027 26.6025C61.9027 25.5768 61.5376 24.7563 60.99 23.9358C60.4424 23.3204 59.7122 22.9102 58.7995 22.9102C58.2519 22.9102 57.7043 23.1153 57.3392 23.3204C56.9741 23.5256 56.609 23.9358 56.244 24.5512C56.0614 25.1666 55.8789 25.782 55.8789 26.3973C55.8789 27.0127 56.0614 27.8332 56.244 28.2435C56.4265 28.8589 56.7916 29.2691 57.3392 29.4743C57.7043 29.6794 58.2519 29.8845 58.7995 29.8845C59.7122 30.0897 60.4424 29.8845 60.99 29.2691Z" fill="#0066FF"/>
<path d="M74.8637 21.4743C75.5939 21.8845 76.324 22.705 76.6891 23.5256C77.0542 24.3461 77.4193 25.3717 77.4193 26.6025C77.4193 27.8332 77.2367 28.8589 76.6891 29.6794C76.324 30.4999 75.5939 31.3204 74.8637 31.7307C74.1335 32.1409 73.2209 32.5512 72.3082 32.5512C71.0304 32.5512 69.9351 32.1409 69.0224 31.1153V36.6538H66.6494V21.064H68.8399V22.4999C69.205 21.8845 69.7526 21.4743 70.3002 21.2691C70.8478 21.064 71.578 20.8589 72.1256 20.8589C73.0383 20.8589 73.951 21.064 74.8637 21.4743ZM73.951 29.2691C74.4986 28.6538 74.8637 27.8332 74.8637 26.6025C74.8637 25.5768 74.4986 24.7563 73.951 23.9358C73.4034 23.3204 72.6732 22.9102 71.7605 22.9102C71.2129 22.9102 70.6653 23.1153 70.3002 23.3204C69.9351 23.5256 69.5701 23.9358 69.205 24.5512C69.0224 25.1666 68.8399 25.782 68.8399 26.3973C68.8399 27.0127 69.0224 27.8332 69.205 28.2435C69.3875 28.8589 69.7526 29.2691 70.3002 29.4743C70.6653 29.6794 71.2129 29.8845 71.7605 29.8845C72.6732 30.0897 73.4034 29.8845 73.951 29.2691Z" fill="#0066FF"/>
<path d="M86.1807 31.936C85.268 31.5257 84.5379 31.1155 83.9902 30.7052L84.9029 28.6539C85.4506 29.0642 86.1807 29.4744 86.9109 29.8847C87.641 30.0898 88.5537 30.295 89.2839 30.295C90.1966 30.295 90.9268 30.0898 91.4744 29.6796C92.022 29.2693 92.2045 28.8591 92.2045 28.2437C92.2045 27.8334 92.022 27.4232 91.8394 27.218C91.6569 27.0129 91.2918 26.8078 90.7442 26.6026C90.3791 26.3975 89.8315 26.1924 89.1014 25.9873C88.0061 25.7821 87.2759 25.3719 86.7283 25.1667C86.1807 24.9616 85.6331 24.5514 85.0855 23.936C84.7204 23.3206 84.3553 22.5001 84.3553 21.6796C84.3553 20.8591 84.5379 20.0385 84.9029 19.4232C85.268 18.8078 85.8156 18.1924 86.7283 17.7821C87.4585 17.3719 88.5537 17.1667 89.649 17.1667C90.3791 17.1667 91.2918 17.3719 92.022 17.577C92.7522 17.7821 93.4823 18.1924 94.0299 18.6026L93.2998 20.6539C92.7521 20.2437 92.022 20.0385 91.4744 19.8334C90.9268 19.6283 90.1966 19.6283 89.649 19.6283C88.7363 19.6283 88.0061 19.8334 87.4585 20.2437C86.9109 20.6539 86.7283 21.0642 86.7283 21.6796C86.7283 22.0898 86.9109 22.5001 87.0934 22.7052C87.276 22.9103 87.641 23.1155 88.1887 23.3206C88.5537 23.5257 89.1014 23.7309 89.8315 23.936C90.7442 24.1411 91.6569 24.5514 92.2045 24.7565C92.7521 24.9616 93.2998 25.3719 93.8474 25.9873C94.2125 26.6026 94.5775 27.4232 94.5775 28.2437C94.5775 29.0642 94.395 29.8847 94.0299 30.5001C93.6648 31.1155 93.1172 31.7309 92.2045 32.1411C91.4744 32.5514 90.3791 32.7565 89.2839 32.7565C88.0061 32.5514 87.0934 32.3462 86.1807 31.936Z" fill="#0066FF"/>
<path d="M102.792 31.7308C102.427 31.9359 102.244 32.1411 101.697 32.3462C101.331 32.5513 100.966 32.5513 100.419 32.5513C99.3235 32.5513 98.4108 32.1411 97.8632 31.5257C97.3155 30.9103 96.9505 29.8846 96.9505 28.6539V23.1154H95.3076V21.0641H96.9505V18.3975H99.3235V21.0641H102.062V23.1154H99.3235V28.4487C99.3235 29.0641 99.506 29.4744 99.6886 29.6795C99.8711 29.8846 100.236 30.0898 100.784 30.0898C101.331 30.0898 101.697 29.8846 102.062 29.6795L102.792 31.7308Z" fill="#0066FF"/>
<path d="M106.078 31.7307C105.348 31.3205 104.618 30.5 104.07 29.6794C103.522 28.8589 103.34 27.8333 103.34 26.6025C103.34 25.5769 103.522 24.5512 104.07 23.5256C104.618 22.7051 105.165 21.8846 106.078 21.4743C106.808 21.0641 107.903 20.6538 108.816 20.6538C109.911 20.6538 110.824 20.8589 111.554 21.4743C112.284 21.8846 113.014 22.7051 113.562 23.5256C114.11 24.3461 114.292 25.3718 114.292 26.6025C114.292 27.6282 114.11 28.6538 113.562 29.6794C113.014 30.5 112.467 31.3205 111.554 31.7307C110.824 32.141 109.729 32.5512 108.816 32.5512C107.903 32.5512 106.991 32.141 106.078 31.7307ZM111.007 29.2692C111.554 28.6538 111.919 27.8333 111.919 26.6025C111.919 25.5769 111.554 24.7564 111.007 23.9359C110.459 23.3205 109.729 22.9102 108.816 22.9102C107.903 22.9102 107.173 23.3205 106.626 23.9359C106.078 24.5512 105.713 25.3718 105.713 26.6025C105.713 27.6282 106.078 28.4487 106.626 29.2692C107.173 29.8846 107.903 30.2948 108.816 30.2948C109.729 30.0897 110.459 29.8846 111.007 29.2692Z" fill="#0066FF"/>
<path d="M122.506 20.8589V23.3204C122.324 23.3204 122.141 23.3204 121.959 23.3204C121.046 23.3204 120.316 23.5256 119.768 24.1409C119.221 24.7563 119.038 25.5768 119.038 26.8076V32.3461H116.665V21.064H118.856V22.705C119.586 21.4743 120.681 20.8589 122.506 20.8589Z" fill="#0066FF"/>
<path d="M133.824 27.423H125.975C126.157 28.2436 126.522 28.8589 127.07 29.4743C127.617 29.8846 128.348 30.2948 129.26 30.2948C130.356 30.2948 131.268 29.8846 131.998 29.0641L133.276 30.7051C132.911 31.3205 132.181 31.7307 131.633 32.141C130.903 32.5512 130.173 32.5512 129.26 32.5512C128.165 32.5512 127.252 32.3461 126.34 31.7307C125.427 31.3205 124.879 30.5 124.332 29.6794C123.784 28.8589 123.602 27.8333 123.602 26.6025C123.602 25.5769 123.784 24.5512 124.332 23.5256C124.697 22.7051 125.427 21.8846 126.157 21.4743C126.887 21.0641 127.8 20.6538 128.895 20.6538C129.808 20.6538 130.721 20.8589 131.451 21.4743C132.181 21.8846 132.911 22.7051 133.276 23.5256C133.641 24.3461 134.006 25.3718 134.006 26.6025C133.824 26.8077 133.824 27.2179 133.824 27.423ZM126.887 23.7307C126.34 24.141 125.975 24.9615 125.975 25.782H131.633C131.451 24.9615 131.268 24.3461 130.721 23.7307C130.173 23.3205 129.625 22.9102 128.713 22.9102C127.982 22.9102 127.435 23.1153 126.887 23.7307Z" fill="#0066FF"/>
</svg>
