<svg width="149" height="39" viewBox="0 0 149 39" fill="none" xmlns="http://www.w3.org/2000/svg">
<path d="M30.3077 18.0642L24.1013 13.9617L18.9902 19.5001L23.7363 24.6283L30.4902 20.3206C30.8553 20.1155 31.0379 19.7053 31.0379 19.0899C30.8553 18.6796 30.6728 18.2694 30.3077 18.0642Z" fill="#FFD10F"/>
<path d="M23.0063 13.3462L16.0698 8.8334L1.10156 0.218018L18.0778 18.6796L23.0063 13.3462Z" fill="#66BE6C"/>
<path d="M1.2832 38.7823L16.2515 29.5515L22.6403 25.2438L18.0769 20.5259L1.2832 38.7823Z" fill="#EF3C49"/>
<path d="M0.00585938 0.833496V38.1668L17.1646 19.5002L0.00585938 0.833496Z" fill="#48C7ED"/>
<path d="M38.6889 9.24366C38.1413 9.24366 37.5936 9.03853 37.2286 8.8334C36.8635 8.62827 36.3159 8.21802 36.1333 7.80776C35.7682 7.3975 35.5857 6.98725 35.4032 6.37186C35.2206 5.75648 35.0381 5.34622 35.0381 4.73084C35.0381 4.11545 35.2206 3.50007 35.4032 3.08981C35.5857 2.47443 35.7682 2.06417 36.1333 1.65392C36.4984 1.24366 36.8635 0.833403 37.2286 0.628275C37.5936 0.423146 38.1413 0.218018 38.6889 0.218018C39.419 0.218018 40.1492 0.423146 40.5143 0.833403C41.0619 1.24366 41.427 1.65392 41.6095 2.2693L40.8794 2.88468C40.6968 2.2693 40.3317 2.06417 39.9667 1.65392C39.6016 1.44879 39.054 1.24366 38.6889 1.24366C38.3238 1.24366 37.9587 1.24366 37.5936 1.44879C37.2286 1.65392 37.046 1.85904 36.6809 2.2693C36.4984 2.67956 36.3159 3.08981 36.3159 3.50007C36.1333 3.91033 36.1333 4.32058 36.1333 4.73084C36.1333 5.1411 36.1333 5.75648 36.3159 6.16674C36.3159 6.57699 36.6809 6.98725 36.8635 7.19238C37.046 7.60263 37.4111 7.80776 37.7762 8.01289C38.1413 8.21802 38.5063 8.21802 38.8714 8.21802C39.419 8.21802 39.7841 8.01289 40.1492 7.80776C40.5143 7.60263 40.8794 7.19238 41.2444 6.57699V7.80776C40.5143 8.8334 39.7841 9.24366 38.6889 9.24366ZM41.2444 5.55135H39.6016V4.73084H42.1571V9.24366H41.2444V5.55135Z" fill="#0066FF"/>
<path d="M48.9108 8.21802V9.24366H43.4346V0.218018H48.7282V1.24366H44.3473V4.11545H48.1806V5.1411H44.3473V8.21802H48.9108Z" fill="#0066FF"/>
<path d="M56.213 1.24366H53.4749V9.24366H52.3797V1.24366H49.6416V0.218018H56.213V1.24366Z" fill="#0066FF"/>
<path d="M59.8633 9.24366V0.218018H60.9585V9.24366H59.8633Z" fill="#0066FF"/>
<path d="M63.6968 2.2693V9.24366H62.6016V0.218018H63.5143L68.4428 7.19238V0.218018H69.5381V9.24366H68.6254L63.6968 2.2693Z" fill="#0066FF"/>
<path d="M77.3872 9.24366C76.8396 9.24366 76.292 9.03853 75.9269 8.8334C75.3793 8.62827 75.0142 8.21802 74.8316 7.80776C74.4666 7.3975 74.284 6.98725 74.1015 6.37186C73.9189 5.75648 73.9189 5.34622 73.9189 4.73084C73.9189 4.11545 74.1015 3.50007 74.284 3.08981C74.4666 2.47443 74.8316 2.06417 75.0142 1.65392C75.3793 1.24366 75.7443 0.833403 76.292 0.628275C76.8396 0.423146 77.2047 0.218018 77.7523 0.218018C78.2999 0.218018 78.8475 0.423146 79.2126 0.628275C79.3951 0.833403 79.9428 1.24366 80.1253 1.65392C80.4904 2.06417 80.6729 2.67956 80.8555 3.08981C81.038 3.7052 81.038 4.11545 81.038 4.73084C81.038 5.34622 80.8555 5.96161 80.6729 6.37186C80.6729 6.98725 80.4904 7.60263 80.1253 8.01289C79.7602 8.42315 79.3951 8.8334 78.8475 9.03853C78.4824 9.24366 77.9348 9.24366 77.3872 9.24366ZM74.6491 4.73084C74.6491 5.1411 74.6491 5.55135 74.8316 5.96161C75.0142 6.37186 75.1967 6.78212 75.3793 7.19238C75.5618 7.60263 75.9269 7.80776 76.292 8.01289C76.657 8.21802 77.0221 8.21802 77.3872 8.21802C77.7523 8.21802 78.1174 8.21802 78.4824 8.01289C78.8475 7.80776 79.0301 7.60263 79.3951 7.19238C79.5777 6.78212 79.7602 6.57699 79.9428 5.96161C80.1253 5.55135 80.1253 5.1411 80.1253 4.73084C80.1253 4.32058 80.1253 3.91033 79.9428 3.50007C79.7602 3.08981 79.5777 2.67956 79.3951 2.2693C79.2126 1.85904 78.8475 1.65392 78.4824 1.44879C78.1174 1.24366 77.7523 1.24366 77.3872 1.24366C77.0221 1.24366 76.657 1.24366 76.292 1.44879C75.9269 1.65392 75.7443 1.85904 75.3793 2.2693C75.1967 2.67956 75.0142 2.88469 74.8316 3.50007C74.8316 3.91033 74.6491 4.32058 74.6491 4.73084Z" fill="#0066FF"/>
<path d="M83.5933 2.2693V9.24366H82.498V0.218018H83.4107L88.3393 7.19238V0.218018H89.4346V9.24366H88.5219L83.5933 2.2693Z" fill="#0066FF"/>
<path d="M44.8952 24.2438H47.2682V29.9874C46.5381 30.6028 45.8079 31.013 44.8952 31.4233C43.9825 31.8335 43.0698 31.8335 42.1571 31.8335C40.8794 31.8335 39.6016 31.4233 38.5063 30.8079C37.4111 30.1925 36.6809 29.1669 35.9508 28.1412C35.4032 26.9105 35.0381 25.6797 35.0381 24.2438C35.0381 22.8079 35.4032 21.5771 35.9508 20.3464C36.4984 19.1156 37.4111 18.2951 38.5063 17.6797C39.6016 17.0643 40.6968 16.6541 42.1571 16.6541C43.2524 16.6541 44.1651 16.8592 45.0778 17.2694C45.9905 17.6797 46.7206 18.2951 47.2682 19.1156L45.8079 20.9617C44.8952 19.9361 43.6174 19.3207 42.1571 19.3207C41.2444 19.3207 40.5143 19.5258 39.7841 19.9361C39.054 20.3464 38.5063 20.9617 38.1413 21.7823C37.7762 22.6028 37.5936 23.4233 37.5936 24.4489C37.5936 25.4746 37.7762 26.2951 38.1413 27.1156C38.5063 27.9361 39.054 28.5515 39.7841 28.9617C40.5143 29.372 41.2444 29.5771 42.1571 29.5771C43.2524 29.5771 43.9825 29.372 44.8952 28.7566V24.2438Z" fill="#0066FF"/>
<path d="M52.0145 31.0129C51.2844 30.6026 50.5542 29.7821 50.1891 28.9616C49.8241 28.1411 49.459 27.1154 49.459 26.0898C49.459 25.0641 49.6415 24.0385 50.1891 23.218C50.5542 22.3975 51.2844 21.577 52.0145 21.1667C52.7447 20.7564 53.6574 20.3462 54.7526 20.3462C55.8479 20.3462 56.7606 20.5513 57.4907 21.1667C58.2209 21.577 58.951 22.3975 59.3161 23.218C59.6812 24.0385 60.0463 25.0641 60.0463 26.0898C60.0463 27.1154 59.8637 28.1411 59.3161 28.9616C58.951 29.7821 58.2209 30.6026 57.4907 31.0129C56.7606 31.4231 55.8479 31.8334 54.7526 31.8334C53.6574 31.8334 52.7447 31.6282 52.0145 31.0129ZM56.7606 28.5513C57.3082 27.9359 57.6733 27.1154 57.6733 26.0898C57.6733 25.0641 57.3082 24.2436 56.7606 23.6282C56.213 23.0129 55.4828 22.6026 54.5701 22.6026C53.6574 22.6026 52.9272 23.0129 52.3796 23.6282C51.832 24.2436 51.4669 25.0641 51.4669 26.0898C51.4669 27.1154 51.832 27.9359 52.3796 28.5513C52.9272 29.1667 53.6574 29.577 54.5701 29.577C55.4828 29.577 56.213 29.1667 56.7606 28.5513Z" fill="#0066FF"/>
<path d="M63.8798 31.0129C63.1496 30.6026 62.4195 29.7821 62.0544 28.9616C61.6893 28.1411 61.3242 27.1154 61.3242 26.0898C61.3242 25.0641 61.5068 24.0385 62.0544 23.218C62.4195 22.3975 63.1496 21.577 63.8798 21.1667C64.6099 20.7564 65.5226 20.3462 66.6179 20.3462C67.7131 20.3462 68.6258 20.5513 69.356 21.1667C70.0861 21.577 70.8163 22.3975 71.1814 23.218C71.5464 24.0385 71.9115 25.0641 71.9115 26.0898C71.9115 27.1154 71.729 28.1411 71.1814 28.9616C70.8163 29.7821 70.0861 30.6026 69.356 31.0129C68.6258 31.4231 67.7131 31.8334 66.6179 31.8334C65.7052 31.8334 64.7925 31.6282 63.8798 31.0129ZM68.8083 28.5513C69.356 27.9359 69.721 27.1154 69.721 26.0898C69.721 25.0641 69.356 24.2436 68.8083 23.6282C68.2607 23.0129 67.5306 22.6026 66.6179 22.6026C65.7052 22.6026 64.975 23.0129 64.4274 23.6282C63.8798 24.2436 63.5147 25.0641 63.5147 26.0898C63.5147 27.1154 63.8798 27.9359 64.4274 28.5513C64.975 29.1667 65.7052 29.577 66.6179 29.577C67.5306 29.577 68.2607 29.1667 68.8083 28.5513Z" fill="#0066FF"/>
<path d="M83.9583 20.5513V29.9872C83.9583 33.8846 82.1329 35.9359 78.6647 35.9359C77.752 35.9359 76.8393 35.7308 75.9266 35.5256C75.0139 35.3205 74.2837 34.9102 73.7361 34.2949L74.8313 32.2436C75.1964 32.6538 75.744 33.0641 76.4742 33.2692C77.2043 33.4743 77.752 33.6795 78.4821 33.6795C79.5774 33.6795 80.3075 33.4743 80.8551 32.859C81.4028 32.2436 81.5853 31.4231 81.5853 30.3974V29.782C81.2202 30.1923 80.6726 30.6026 80.125 30.8077C79.5774 31.0128 78.8472 31.2179 78.2996 31.2179C77.3869 31.2179 76.4742 31.0128 75.744 30.6026C75.0139 30.1923 74.4663 29.5769 73.9186 28.7564C73.5536 27.9359 73.1885 26.9102 73.1885 25.8846C73.1885 24.859 73.371 23.8333 73.9186 23.0128C74.2837 22.1923 75.0139 21.5769 75.744 21.1667C76.4742 20.7564 77.3869 20.5513 78.2996 20.5513C79.0297 20.5513 79.7599 20.7564 80.3075 20.9615C80.8551 21.1667 81.4028 21.5769 81.7678 22.1923V20.7564H83.9583V20.5513ZM80.8551 28.141C81.4028 27.5256 81.7678 26.7051 81.7678 25.8846C81.7678 24.859 81.4028 24.2436 80.8551 23.6282C80.3075 23.0128 79.5774 22.8077 78.6647 22.8077C77.752 22.8077 77.0218 23.0128 76.4742 23.6282C75.9266 24.2436 75.5615 25.0641 75.5615 25.8846C75.5615 26.9102 75.9266 27.5256 76.4742 28.141C77.0218 28.7564 77.752 28.9615 78.6647 28.9615C79.5774 28.9615 80.3075 28.5513 80.8551 28.141Z" fill="#0066FF"/>
<path d="M87.0615 16.2437H89.4345V31.8334H87.0615V16.2437Z" fill="#0066FF"/>
<path d="M101.665 26.9103H93.8155C93.998 27.7308 94.3631 28.3462 94.9107 28.9616C95.4583 29.3718 96.1885 29.7821 97.1012 29.7821C98.1964 29.7821 99.1091 29.3718 99.8393 28.5513L101.117 30.1923C100.752 30.8077 100.022 31.218 99.4742 31.6282C98.744 31.8334 98.0139 32.0385 97.1012 32.0385C96.006 32.0385 95.0933 31.8334 94.1806 31.218C93.2679 30.8077 92.7202 29.9872 92.1726 29.1667C91.8075 28.1411 91.625 27.1154 91.625 26.0898C91.625 25.0641 91.8075 24.0385 92.3552 23.218C92.7202 22.3975 93.4504 21.577 94.1806 21.1667C94.9107 20.7564 95.8234 20.3462 96.7361 20.3462C97.6488 20.3462 98.5615 20.5513 99.2917 21.1667C100.022 21.577 100.569 22.3975 101.117 23.218C101.482 24.0385 101.847 25.0641 101.847 26.2949C101.847 26.2949 101.847 26.5 101.665 26.9103ZM94.9107 23.218C94.3631 23.6282 93.998 24.4488 93.998 25.2693H99.6567C99.4742 24.4488 99.2917 23.8334 98.7441 23.218C98.1964 22.8077 97.6488 22.3975 96.9187 22.3975C96.006 22.3975 95.4583 22.8077 94.9107 23.218Z" fill="#0066FF"/>
<path d="M117.729 17.6794C118.642 18.0897 119.189 18.7051 119.737 19.5256C120.102 20.3461 120.467 21.1666 120.467 22.3974C120.467 23.423 120.284 24.4487 119.737 25.0641C119.372 25.8846 118.642 26.5 117.729 26.9102C116.816 27.3205 115.903 27.5256 114.808 27.5256H111.705V31.8333H109.332V17.2692H114.626C115.903 17.0641 116.816 17.2692 117.729 17.6794ZM116.999 24.4487C117.546 24.0384 117.729 23.2179 117.729 22.3974C117.729 21.3718 117.546 20.7564 116.999 20.3461C116.451 19.9359 115.721 19.5256 114.626 19.5256H111.705V25.0641H114.443C115.721 25.0641 116.451 24.8589 116.999 24.4487Z" fill="#0066FF"/>
<path d="M122.657 16.2437H125.03V31.8334H122.657V16.2437Z" fill="#0066FF"/>
<path d="M135.07 21.577C135.8 22.3975 136.165 23.6282 136.165 25.0641V31.6282H133.975V30.1923C133.61 30.6026 133.245 31.0129 132.697 31.218C132.149 31.4231 131.602 31.6282 130.871 31.6282C130.141 31.6282 129.411 31.4231 128.864 31.218C128.316 31.0129 127.951 30.6026 127.586 29.9872C127.221 29.577 127.221 28.9616 127.221 28.3462C127.221 27.3206 127.586 26.5 128.133 25.8847C128.864 25.2693 129.776 25.0641 131.237 25.0641H133.792C133.792 24.2436 133.61 23.6282 133.245 23.218C132.879 22.8077 132.149 22.6026 131.419 22.6026C130.872 22.6026 130.324 22.6026 129.776 22.8077C129.229 23.0129 128.864 23.218 128.498 23.6282L127.586 21.7821C128.133 21.3718 128.681 20.9616 129.411 20.7564C130.141 20.5513 130.871 20.3462 131.784 20.3462C133.245 20.3462 134.34 20.7564 135.07 21.577ZM133.062 29.3718C133.427 29.1667 133.792 28.5513 133.975 28.1411V26.9103H131.602C130.324 26.9103 129.594 27.3206 129.594 28.3462C129.594 28.7564 129.776 29.1667 130.141 29.3718C130.506 29.577 130.871 29.7821 131.602 29.7821C132.149 29.9872 132.514 29.7821 133.062 29.3718Z" fill="#0066FF"/>
<path d="M148.395 20.5513L143.831 32.6538C143.466 33.8846 142.918 34.7051 142.188 35.1154C141.641 35.5256 140.728 35.9359 139.998 35.9359C139.45 35.9359 139.085 35.9359 138.538 35.7308C137.99 35.5256 137.625 35.3205 137.26 34.9102L138.172 33.0641C138.355 33.2692 138.72 33.4743 138.903 33.6795C139.268 33.8846 139.45 33.8846 139.815 33.8846C140.18 33.8846 140.545 33.6795 140.911 33.4743C141.093 33.2692 141.458 32.859 141.641 32.2436L141.823 31.8333L137.442 20.5513H139.815L142.918 28.7564L146.022 20.5513H148.395Z" fill="#0066FF"/>
</svg>
