<svg width="127" height="41" viewBox="0 0 127 41" fill="none" xmlns="http://www.w3.org/2000/svg">
<path fill-rule="evenodd" clip-rule="evenodd" d="M20.3279 40.8925C31.5547 40.8925 40.6558 31.7914 40.6558 20.5647C40.6558 9.33792 31.5547 0.236816 20.3279 0.236816C9.10108 0.236816 0 9.33792 0 20.5647C0 31.7914 9.10108 40.8925 20.3279 40.8925ZM26.6695 9.70639C26.9781 8.60992 25.9141 7.96154 24.9423 8.65387L11.3766 18.318C10.3227 19.0688 10.4885 20.5647 11.6256 20.5647H15.1978V20.537H22.1599L16.4871 22.5386L13.9863 31.423C13.6776 32.5195 14.7416 33.1678 15.7135 32.4755L29.2792 22.8114C30.3331 22.0606 30.1672 20.5647 29.0301 20.5647H23.613L26.6695 9.70639Z" fill="#0066FF"/>
<path d="M48.6553 30.3235L53.8903 10.4076H60.4341L65.6691 30.3235H61.7998L60.7186 25.942H53.6058L52.5246 30.3235H48.6553ZM54.4878 22.4709H59.8366L57.4183 12.769H56.9061L54.4878 22.4709Z" fill="#F9F9FA"/>
<path d="M72.8502 30.3235C71.9208 30.3235 71.1621 30.039 70.5741 29.4699C70.0051 28.8819 69.7205 28.1043 69.7205 27.1369V19.1706H66.1926V16.2117H69.7205V11.8302H73.3054V16.2117H77.1748V19.1706H73.3054V26.511C73.3054 27.08 73.5709 27.3645 74.102 27.3645H76.8334V30.3235H72.8502Z" fill="#F9F9FA"/>
<path d="M84.8013 30.7218C83.796 30.7218 82.895 30.5511 82.0984 30.2097C81.3018 29.8493 80.6663 29.3372 80.1922 28.6733C79.7369 27.9905 79.5093 27.1654 79.5093 26.198C79.5093 25.2307 79.7369 24.4246 80.1922 23.7797C80.6663 23.1158 81.3112 22.6227 82.1268 22.3002C82.9614 21.9588 83.9098 21.7881 84.972 21.7881H88.8413V20.9915C88.8413 20.3276 88.6327 19.787 88.2154 19.3697C87.7981 18.9335 87.1343 18.7154 86.2238 18.7154C85.3324 18.7154 84.6685 18.924 84.2322 19.3413C83.796 19.7396 83.5115 20.2612 83.3787 20.9061L80.0784 19.7965C80.306 19.0757 80.6663 18.4214 81.1595 17.8334C81.6716 17.2264 82.345 16.7427 83.1795 16.3824C84.0331 16.003 85.0668 15.8133 86.2807 15.8133C88.1395 15.8133 89.6095 16.278 90.6907 17.2074C91.7718 18.1369 92.3124 19.4835 92.3124 21.2475V26.511C92.3124 27.08 92.5779 27.3645 93.109 27.3645H94.2471V30.3235H91.8572C91.1554 30.3235 90.5769 30.1528 90.1216 29.8114C89.6664 29.4699 89.4388 29.0147 89.4388 28.4457V28.4172H88.8982C88.8224 28.6448 88.6517 28.9483 88.3861 29.3277C88.1206 29.6881 87.7033 30.0105 87.1343 30.295C86.5652 30.5795 85.7876 30.7218 84.8013 30.7218ZM85.4272 27.8198C86.4325 27.8198 87.2481 27.5447 87.874 26.9947C88.5189 26.4257 88.8413 25.6764 88.8413 24.747V24.4625H85.228C84.5642 24.4625 84.0426 24.6048 83.6632 24.8893C83.2839 25.1738 83.0942 25.5721 83.0942 26.0842C83.0942 26.5964 83.2933 27.0136 83.6917 27.3361C84.09 27.6585 84.6685 27.8198 85.4272 27.8198Z" fill="#F9F9FA"/>
<path d="M103.219 30.7218C101.854 30.7218 100.611 30.4373 99.4923 29.8683C98.3922 29.2992 97.5197 28.4741 96.8748 27.393C96.2299 26.3118 95.9075 25.0031 95.9075 23.4667V23.0684C95.9075 21.532 96.2299 20.2233 96.8748 19.1421C97.5197 18.061 98.3922 17.2359 99.4923 16.6669C100.611 16.0978 101.854 15.8133 103.219 15.8133C104.566 15.8133 105.723 16.0504 106.691 16.5246C107.658 16.9988 108.436 17.6532 109.024 18.4878C109.63 19.3034 110.029 20.2328 110.218 21.276L106.747 22.0157C106.672 21.4467 106.501 20.9346 106.235 20.4793C105.97 20.0241 105.59 19.6637 105.097 19.3982C104.623 19.1326 104.026 18.9999 103.305 18.9999C102.584 18.9999 101.93 19.1611 101.342 19.4835C100.773 19.787 100.317 20.2517 99.976 20.8777C99.6536 21.4846 99.4923 22.2338 99.4923 23.1253V23.4098C99.4923 24.3013 99.6536 25.06 99.976 25.6859C100.317 26.2929 100.773 26.7576 101.342 27.08C101.93 27.3835 102.584 27.5352 103.305 27.5352C104.386 27.5352 105.202 27.2602 105.752 26.7102C106.321 26.1411 106.681 25.4014 106.833 24.491L110.304 25.3161C110.057 26.3213 109.63 27.2413 109.024 28.0758C108.436 28.8914 107.658 29.5363 106.691 30.0105C105.723 30.4847 104.566 30.7218 103.219 30.7218Z" fill="#F9F9FA"/>
<path d="M113.261 30.3235V10.4076H116.846V17.9472H117.358C117.51 17.6437 117.747 17.3402 118.069 17.0367C118.392 16.7333 118.818 16.4867 119.35 16.297C119.9 16.0884 120.592 15.984 121.426 15.984C122.527 15.984 123.484 16.2401 124.3 16.7522C125.135 17.2454 125.78 17.9377 126.235 18.8292C126.69 19.7017 126.918 20.7259 126.918 21.9019V30.3235H123.333V22.1864C123.333 21.1242 123.067 20.3276 122.536 19.7965C122.024 19.2654 121.284 18.9999 120.317 18.9999C119.217 18.9999 118.363 19.3697 117.756 20.1095C117.149 20.8302 116.846 21.845 116.846 23.1538V30.3235H113.261Z" fill="#F9F9FA"/>
</svg>
